SplineFontDB: 3.2
FontName: NewCM10-Bold
FullName: NewComputerModern10-Bold
FamilyName: NewComputerModern10
Weight: Bold
Copyright: (C) 2019-2020 Antonis Tsolomitis. This work is released under the GUST Font License --  see http://tug.org/fonts/licenses/GUST-FONT-LICENSE.txt for details.
Version: 3.93
ItalicAngle: 0
UnderlinePosition: -146
UnderlineWidth: 60
Ascent: 806
Descent: 194
InvalidEm: 0
sfntRevision: 0x00013333
LayerCount: 2
Layer: 0 0 "Back" 1
Layer: 1 0 "Fore" 0
XUID: [1021 970 578947182 9699227]
StyleMap: 0x0020
FSType: 8
OS2Version: 3
OS2_WeightWidthSlopeOnly: 0
OS2_UseTypoMetrics: 0
CreationTime: 1254995903
ModificationTime: 1633793786
PfmFamily: 81
TTFWeight: 700
TTFWidth: 5
LineGap: 0
VLineGap: 0
Panose: 0 0 8 0 0 0 0 0 0 0
OS2TypoAscent: 806
OS2TypoAOffset: 0
OS2TypoDescent: -194
OS2TypoDOffset: 0
OS2TypoLinegap: 200
OS2WinAscent: 1133
OS2WinAOffset: 0
OS2WinDescent: 295
OS2WinDOffset: 0
HheadAscent: 1133
HheadAOffset: 0
HheadDescent: -295
HheadDOffset: 0
OS2SubXSize: 650
OS2SubYSize: 600
OS2SubXOff: 0
OS2SubYOff: 75
OS2SupXSize: 650
OS2SupYSize: 600
OS2SupXOff: 0
OS2SupYOff: 350
OS2StrikeYSize: 60
OS2StrikeYPos: 266
OS2CapHeight: 686
OS2XHeight: 444
OS2Vendor: 'UKWN'
OS2CodePages: 20000193.00000000
OS2UnicodeRanges: 20000007.00000000.00000000.00000000
Lookup: 1 0 0 "'aalt' Access All Alternates lookup 0" { "'aalt' Access All Alternates lookup 0 subtable"  } ['aalt' ('DFLT' <'dflt' > 'cyrl' <'dflt' > 'latn' <'AZE ' 'CRT ' 'MOL ' 'NLD ' 'PLK ' 'ROM ' 'TRK ' 'dflt' > ) ]
Lookup: 3 0 0 "'aalt' Access All Alternates lookup 1" { "'aalt' Access All Alternates lookup 1 subtable"  } ['aalt' ('DFLT' <'dflt' > 'cyrl' <'dflt' > 'latn' <'AZE ' 'CRT ' 'MOL ' 'NLD ' 'PLK ' 'ROM ' 'TRK ' 'dflt' > ) ]
Lookup: 1 0 0 "'locl' Localized Forms in Latin lookup 2" { "'locl' Localized Forms in Latin lookup 2 subtable"  } ['locl' ('latn' <'MOL ' 'ROM ' > ) ]

StartChar: exclam
Encoding: 33 33 2
Width: 350
GlyphClass: 2
Flags: MW
HStem: 0 156<153.5 196.5>
VStem: 96 158<634 653.5 634 653.5>
LayerCount: 2
Fore
SplineSet
254 634 m 1
 252 621 l 1
 200 248 l 2
 197 228 194 226 175 226 c 0
 154 226 153 228 150 252 c 2
 98 616 l 2
 96 626 96 628 96 634 c 0
 96 673 132 705 175 705 c 0
 218 705 254 673 254 634 c 1
253 78 m 0
 253 35 218 0 175 0 c 0
 132 0 97 35 97 78 c 0
 97 121 132 156 175 156 c 0
 218 156 253 121 253 78 c 0
EndSplineSet
EndChar

StartChar: quotedbl
Encoding: 34 34 3
Width: 481
GlyphClass: 2
Flags: MW
HStem: 418 21G<136 184 136 136 298 298 298 346> 677 20G<143 176.5 305 338.5>
LayerCount: 2
Fore
SplineSet
217 640 m 2
 184 418 l 1
 136 418 l 1
 103 640 l 2
 98 671 126 697 160 697 c 0
 193 697 221 671 217 640 c 2
379 640 m 2
 346 418 l 1
 298 418 l 1
 265 640 l 2
 260 671 288 697 322 697 c 0
 355 697 383 671 379 640 c 2
EndSplineSet
EndChar

StartChar: numbersign
Encoding: 35 35 4
Width: 958
GlyphClass: 2
Flags: MW
HStem: -194 21G<213.5 233.5 469.5 489.5> 108 61<105 110 110 274 358 530 105 338 614 847> 332 61<99 363 110 343 110 407 427 599 683 847 847 852> 674 20G<467 487.5 723 743.5>
VStem: 64 829<123.5 154 347 377.5>
LayerCount: 2
Fore
SplineSet
893 139 m 0
 893 108 862 108 847 108 c 2
 594 108 l 1
 509 -166 l 2
 505 -178 500 -194 479 -194 c 0
 460 -194 448 -179 448 -164 c 0
 448 -156 450 -150 452 -144 c 2
 530 108 l 1
 338 108 l 1
 253 -166 l 2
 249 -178 244 -194 223 -194 c 0
 204 -194 192 -179 192 -164 c 0
 192 -156 194 -150 196 -144 c 2
 274 108 l 1
 110 108 l 2
 95 108 64 108 64 139 c 0
 64 169 93 169 105 169 c 2
 294 169 l 1
 343 332 l 1
 105 332 l 2
 93 332 64 332 64 362 c 0
 64 393 95 393 110 393 c 2
 363 393 l 1
 447 664 l 2
 451 677 456 694 478 694 c 0
 497 694 509 679 509 664 c 0
 509 657 509 656 505 644 c 2
 427 393 l 1
 619 393 l 1
 703 664 l 2
 707 677 712 694 734 694 c 0
 753 694 765 679 765 664 c 0
 765 657 765 656 761 644 c 2
 683 393 l 1
 847 393 l 2
 862 393 893 393 893 362 c 0
 893 332 864 332 852 332 c 2
 663 332 l 1
 614 169 l 1
 852 169 l 2
 864 169 893 169 893 139 c 0
599 332 m 1
 407 332 l 1
 358 169 l 1
 550 169 l 1
 599 332 l 1
EndSplineSet
EndChar

StartChar: dollar
Encoding: 36 36 5
Width: 575
GlyphClass: 2
Flags: MW
HStem: -56 21G<264 311 264 264> -6 48 127 125<123 138.5 123 149.5> 456 125<447 447> 652 45 730 20G<264 311 311 311>
VStem: 64 125<177 212.5 177 217> 264 47<-56 -5 -56 -5 42 283 439 652 699 750> 385 125<496.5 531>
LayerCount: 2
Fore
SplineSet
510 210 m 0
 510 117 459 9 311 -5 c 1
 311 -56 l 1
 264 -56 l 1
 264 -5 l 1
 110 6 64 107 64 185 c 0
 64 249 119 252 127 252 c 0
 150 252 189 236 189 189 c 0
 189 165 176 127 123 127 c 1
 129 113 154 52 264 42 c 1
 264 293 l 1
 223 302 171 312 123 359 c 0
 85 397 64 444 64 498 c 0
 64 585 116 688 264 699 c 1
 264 750 l 1
 311 750 l 1
 311 699 l 1
 458 690 510 603 510 522 c 0
 510 466 465 456 447 456 c 0
 421 456 385 474 385 519 c 0
 385 543 399 579 448 581 c 1
 416 643 334 650 311 652 c 1
 311 428 l 1
 342 422 397 412 444 366 c 0
 478 332 510 280 510 210 c 0
264 439 m 1
 264 652 l 1
 185 646 144 599 144 546 c 0
 144 507 173 454 264 439 c 1
430 162 m 0
 430 220 383 271 311 283 c 1
 311 42 l 1
 389 50 430 101 430 162 c 0
EndSplineSet
Substitution2: "'onum' Oldstyle Figures lookup 4 subtable" dollar.oldstyle
Substitution2: "'aalt' Access All Alternates lookup 0 subtable" dollar.oldstyle
EndChar

StartChar: percent
Encoding: 37 37 6
Width: 958
GlyphClass: 2
Flags: MW
HStem: -56 36<712.5 767 712.5 783> 311 36<712.5 769.5> 347 36<202.5 257 202.5 273> 608 36<516.5 551.5> 695 36 714 36<202.5 252.5 194 259.5>
VStem: 64 103<517 579.5 517 619> 191 47 336 47<483.5 557 477 611> 574 103<114 176.5 114 216> 846 47<80.5 208>
LayerCount: 2
Fore
SplineSet
797 719 m 0x04
 797 709 793 704 786 695 c 2xab60
 217 -40 l 2
 210 -50 205 -56 191 -56 c 0
 174 -56 160 -42 160 -25 c 0
 160 -14 171 0 171 0 c 1
 658 630 l 1
 608 610 562 608 541 608 c 0
 492 608 434 619 368 649 c 1
 383 602 383 566 383 548 c 0
 383 406 310 347 236 347 c 0
 155 347 64 404 64 549 c 0
 64 689 152 750 236 750 c 0xb780
 269 750 293 739 314 724 c 0
 344 702 424 644 540 644 c 0
 628 644 693 679 737 731 c 0x18
 745 741 752 750 767 750 c 0
 781 750 797 739 797 719 c 0x04
893 145 m 0
 893 3 820 -56 746 -56 c 0
 665 -56 574 1 574 146 c 0
 574 286 662 347 746 347 c 0
 816 347 893 292 893 145 c 0
336 549 m 0
 336 673 281 714 238 714 c 0xc5e0
 167 714 167 611 167 548 c 0
 167 486 167 383 238 383 c 0
 276 383 336 418 336 549 c 0
846 146 m 0
 846 270 791 311 748 311 c 0
 677 311 677 208 677 145 c 0
 677 83 677 -20 748 -20 c 0
 786 -20 846 15 846 146 c 0
EndSplineSet
EndChar

StartChar: ampersand
Encoding: 38 38 7
Width: 894
GlyphClass: 2
Flags: MW
HStem: -11 47<226.5 271.5 226.5 291.5 647.5 680.5> 138 36 379 36 397 47<615 626> 669 36<340.5 377.5>
VStem: 48 128<91.5 197.5> 172 104<534 585.5> 305 47 415 47<554.5 589> 654 128 782 47<118 118>
LayerCount: 2
Fore
SplineSet
836 397 m 1x10
 783 397 750 397 736 377 c 2
 654 258 l 2x1040
 608 191 575 157 529 110 c 1
 575 66 624 36 671 36 c 0
 690 36 778 43 782 118 c 1
 829 118 l 1
 826 34 748 -11 666 -11 c 0
 563 -11 483 36 455 52 c 1
 394 12 327 -11 256 -11 c 0
 146 -11 48 45 48 138 c 0xc420
 48 166 58 193 79 218 c 0
 86 226 120 255 141 273 c 2
 215 336 l 1
 185 405 172 469 172 528 c 0
 172 643 269 705 352 705 c 0
 430 705 462 627 462 574 c 0
 462 535 433 494 407 464 c 0
 379 433 334 391 320 379 c 1x2b80
 359 295 434 207 497 141 c 1
 572 213 632 299 688 387 c 1
 664 397 637 397 615 397 c 1
 615 444 l 1
 642 442 726 441 737 441 c 0
 764 441 804 442 836 444 c 1
 836 397 l 1x10
415 574 m 0
 415 604 402 669 353 669 c 0
 328 669 276 648 276 565 c 0
 276 503 293 444 305 415 c 1xab80
 372 475 415 529 415 574 c 0
415 80 m 1
 325 148 266 236 231 302 c 1
 190 273 176 221 176 174 c 0x4480
 176 145 185 36 268 36 c 0
 275 36 347 36 415 80 c 1
EndSplineSet
Substitution2: "'lnum' Lining Figures lookup 5 subtable" ampersand
Substitution2: "'onum' Oldstyle Figures lookup 4 subtable" ampersand
Substitution2: "'aalt' Access All Alternates lookup 0 subtable" ampersand
EndChar

StartChar: quotesingle
Encoding: 39 39 8
Width: 319
GlyphClass: 2
Flags: MW
HStem: 418 21G<136 184 136 136> 677 20G<143 176.5>
VStem: 136 48<418 418>
LayerCount: 2
Fore
SplineSet
217 640 m 2
 184 418 l 1
 136 418 l 1
 103 640 l 2
 98 671 126 697 160 697 c 0
 193 697 221 671 217 640 c 2
EndSplineSet
EndChar

StartChar: parenleft
Encoding: 40 40 9
Width: 447
GlyphClass: 2
Flags: MW
HStem: -249 21G<354.5 368> 730 20G<355.5 368>
VStem: 108 97<206 304>
LayerCount: 2
Fore
SplineSet
382 -235 m 0
 382 -246 372 -249 364 -249 c 0
 345 -249 254 -182 188 -67 c 0
 141 16 108 126 108 251 c 0
 108 357 131 541 287 696 c 0
 305 713 347 750 364 750 c 0
 372 750 382 747 382 736 c 0
 382 731 381 730 366 715 c 0
 256 604 205 447 205 250 c 0
 205 162 217 70 243 -9 c 0
 285 -137 350 -198 379 -225 c 1
 379 -225 382 -230 382 -235 c 0
EndSplineSet
EndChar

StartChar: parenright
Encoding: 41 41 10
Width: 447
GlyphClass: 2
Flags: MW
HStem: -249 21G<78 90.5> 730 20G<78 91.5>
VStem: 241 97<197 312.5 197 329.5>
LayerCount: 2
Fore
SplineSet
338 250 m 0
 338 144 315 -40 159 -195 c 0
 141 -212 99 -249 82 -249 c 0
 74 -249 64 -246 64 -235 c 0
 64 -230 65 -229 80 -214 c 0
 190 -103 241 54 241 251 c 0
 241 408 207 585 81 713 c 0
 64 729 64 731 64 736 c 0
 64 747 74 750 82 750 c 0
 101 750 192 683 258 568 c 0
 305 485 338 375 338 250 c 0
EndSplineSet
EndChar

StartChar: asterisk
Encoding: 42 42 11
Width: 575
GlyphClass: 2
Flags: MW
HStem: 306 21G<278.5 295.5> 730 20G<278.5 295.5>
VStem: 242 89
LayerCount: 2
Fore
SplineSet
500 440 m 0
 500 411 476 392 456 392 c 0
 451 392 442 393 429 403 c 2
 307 495 l 1
 320 418 l 2
 324 393 331 350 331 345 c 0
 331 317 304 306 287 306 c 0
 270 306 243 316 243 345 c 0
 243 350 243 352 246 368 c 2
 268 496 l 1
 145 403 l 2
 133 394 124 392 118 392 c 0
 98 392 74 411 74 440 c 0
 74 469 95 476 104 479 c 2
 245 528 l 1
 104 577 l 2
 95 580 74 587 74 616 c 0
 74 645 98 664 118 664 c 0
 124 664 133 662 145 653 c 2
 268 560 l 1
 246 688 l 2
 243 704 243 706 243 711 c 0
 243 739 270 750 287 750 c 0
 304 750 331 740 331 711 c 0
 331 706 331 704 328 688 c 2
 306 560 l 1
 429 653 l 2
 441 662 450 664 456 664 c 0
 476 664 500 645 500 616 c 0
 500 587 479 580 470 577 c 2
 329 528 l 1
 470 479 l 2
 479 476 500 469 500 440 c 0
EndSplineSet
EndChar

StartChar: plus
Encoding: 43 43 12
Width: 894
GlyphClass: 2
Flags: MW
HStem: -132 21G<431 461.5> 220 61<100.5 416 107 416 477 786> 613 20G<431.5 462>
VStem: 416 61<-90 220 281 591>
LayerCount: 2
Fore
SplineSet
829 250 m 0
 829 220 799 220 786 220 c 2
 477 220 l 1
 477 -90 l 2
 477 -103 477 -132 446 -132 c 0
 416 -132 416 -102 416 -90 c 2
 416 220 l 1
 107 220 l 2
 94 220 64 220 64 250 c 0
 64 281 93 281 107 281 c 2
 416 281 l 1
 416 591 l 2
 416 604 416 633 447 633 c 0
 477 633 477 603 477 591 c 2
 477 281 l 1
 786 281 l 2
 800 281 829 281 829 250 c 0
EndSplineSet
EndChar

StartChar: comma
Encoding: 44 44 13
Width: 319
GlyphClass: 2
Flags: MW
HStem: -194 21G<126 137.5> 0 156<135 175>
VStem: 81 169<58 65 -38.5 99.5>
LayerCount: 2
Fore
SplineSet
250 31 m 0
 250 -108 145 -194 130 -194 c 0
 122 -194 111 -184 111 -174 c 0
 111 -168 114 -165 120 -160 c 0
 141 -142 206 -89 214 20 c 1
 211 17 191 0 159 0 c 0
 108 0 81 38 81 78 c 0
 81 121 112 156 158 156 c 0
 216 156 250 99 250 31 c 0
EndSplineSet
EndChar

StartChar: hyphen
Encoding: 45 45 14
Width: 383
GlyphClass: 2
Flags: MW
HStem: 174 97<13 318 13 318>
VStem: 13 305<174 271 174 271>
LayerCount: 2
Fore
SplineSet
318 174 m 1
 13 174 l 1
 13 271 l 1
 318 271 l 1
 318 174 l 1
EndSplineSet
EndChar

StartChar: period
Encoding: 46 46 15
Width: 319
GlyphClass: 2
Flags: MW
HStem: 0 156<137.5 180.5>
VStem: 81 156<56.5 99.5>
LayerCount: 2
Fore
SplineSet
237 78 m 0
 237 35 202 0 159 0 c 0
 116 0 81 35 81 78 c 0
 81 121 116 156 159 156 c 0
 202 156 237 121 237 78 c 0
EndSplineSet
EndChar

StartChar: slash
Encoding: 47 47 16
Width: 575
GlyphClass: 2
Flags: MW
HStem: -250 21G<87 104.5> 730 20G<469.5 487>
VStem: 64 446
LayerCount: 2
Fore
SplineSet
510 719 m 1
 510 719 510 712 505 700 c 2
 126 -222 l 2
 120 -237 115 -250 94 -250 c 0
 80 -250 64 -239 64 -219 c 1
 64 -219 64 -212 69 -200 c 2
 448 722 l 2
 454 736 459 750 480 750 c 0
 494 750 510 739 510 719 c 1
EndSplineSet
EndChar

StartChar: zero
Encoding: 48 48 17
Width: 575
GlyphClass: 2
Flags: MW
HStem: -11 36<269 302 269 407> 520 36 619 36<275 305.5>
VStem: 45 128<303.5 367 303.5 368> 401 128<303 367.5 269 372>
LayerCount: 2
Fore
SplineSet
529 319 m 0
 529 219 527 -11 287 -11 c 0
 46 -11 45 220 45 319 c 0
 45 417 46 655 287 655 c 0
 528 655 529 416 529 319 c 0
401 331 m 0
 401 413 401 519 384 556 c 0
 365 600 324 619 287 619 c 0
 263 619 193 609 181 520 c 0
 173 468 173 403 173 331 c 0
 173 276 173 172 182 120 c 0
 195 47 251 25 287 25 c 0
 317 25 380 39 394 132 c 0
 401 184 401 275 401 331 c 0
EndSplineSet
Substitution2: "'zero' Slashed Zero lookup 9 subtable" zero.slash
Substitution2: "'pnum' Proportional Numbers lookup 6 subtable" zero.prop
Substitution2: "'onum' Oldstyle Figures lookup 4 subtable" zero.oldstyle
AlternateSubs2: "'aalt' Access All Alternates lookup 1 subtable" zero.oldstyle zero.prop zero.slash
EndChar

StartChar: one
Encoding: 49 49 18
Width: 575
GlyphClass: 2
Flags: MW
HStem: 0 47<96 235> 544 47<85 105 85 105> 635 20G<322.5 341>
VStem: 235 119<47 564 564 564>
LayerCount: 2
Fore
SplineSet
494 0 m 1
 450 3 344 3 295 3 c 0
 246 3 140 3 96 0 c 1
 96 47 l 1
 235 47 l 1
 235 564 l 1
 176 545 121 544 105 544 c 2
 85 544 l 1
 85 591 l 1
 105 591 l 2
 126 591 229 591 306 648 c 0
 315 655 317 655 328 655 c 0
 354 655 354 645 354 623 c 2
 354 47 l 1
 494 47 l 1
 494 0 l 1
EndSplineSet
Substitution2: "'pnum' Proportional Numbers lookup 6 subtable" one.prop
Substitution2: "'onum' Oldstyle Figures lookup 4 subtable" one.oldstyle
AlternateSubs2: "'aalt' Access All Alternates lookup 1 subtable" one.oldstyle one.prop
EndChar

StartChar: two
Encoding: 50 50 19
Width: 575
GlyphClass: 2
Flags: MW
HStem: 0 125<195 342 342 350 195 486> 429 141 608 47<229 290>
VStem: 57 138<0 125 18 125> 201 138 342 144<0 125> 379 138<430.5 502.5>
LayerCount: 2
Fore
SplineSet
517 222 m 1x9c
 486 0 l 1x84
 57 0 l 1
 57 18 l 2
 57 38 57 40 70 52 c 2
 271 257 l 2
 341 328 379 396 379 465 c 0
 379 540 333 608 247 608 c 0
 211 608 173 597 144 573 c 1
 159 569 201 553 201 501 c 0
 201 451 161 429 129 429 c 0
 105 429 57 444 57 503 c 0
 57 593 151 655 272 655 c 0
 413 655 517 581 517 466 c 0xfa
 517 371 453 324 339 240 c 0
 294 207 242 164 195 125 c 1
 342 125 l 2
 358 125 433 125 444 131 c 0
 458 138 467 202 470 222 c 1
 517 222 l 1x9c
EndSplineSet
Substitution2: "'pnum' Proportional Numbers lookup 6 subtable" two.prop
Substitution2: "'onum' Oldstyle Figures lookup 4 subtable" two.oldstyle
AlternateSubs2: "'aalt' Access All Alternates lookup 1 subtable" two.oldstyle two.prop
EndChar

StartChar: three
Encoding: 51 51 20
Width: 575
GlyphClass: 2
Flags: MW
HStem: -11 43<256 321 256 363.5> 64 153 141 39 330 39 441 137 616 39<255.5 312.5>
VStem: 80 139<491.5 539 491.5 551> 125 139 220 137 357 137<512.5 535.5>
LayerCount: 2
Fore
SplineSet
526 180 m 0x1e40
 526 89 453 -11 274 -11 c 0
 145 -11 48 49 48 139 c 0
 48 190 83 217 125 217 c 0xc1
 169 217 201 186 201 141 c 0
 201 100 176 75 143 66 c 1
 191 36 243 32 269 32 c 0
 373 32 373 134 373 181 c 0
 373 232 373 330 264 330 c 2xb1
 220 330 l 2x1080
 202 330 192 330 192 348 c 0
 192 354 194 364 204 365 c 0
 209 366 211 367 252 369 c 0
 356 375 357 506 357 519 c 0
 357 552 354 616 271 616 c 0
 240 616 196 608 161 580 c 1
 165 579 219 568 219 510 c 0
 219 473 194 441 149 441 c 0
 111 441 80 468 80 511 c 0
 80 591 158 655 277 655 c 0
 418 655 494 593 494 516 c 0
 494 430 421 373 352 352 c 1
 497 321 526 235 526 180 c 0x1e40
EndSplineSet
Substitution2: "'pnum' Proportional Numbers lookup 6 subtable" three.prop
Substitution2: "'onum' Oldstyle Figures lookup 4 subtable" three.oldstyle
AlternateSubs2: "'aalt' Access All Alternates lookup 1 subtable" three.oldstyle three.prop
EndChar

StartChar: four
Encoding: 52 52 21
Width: 575
GlyphClass: 2
Flags: MW
HStem: 0 47<208 320> 156 47<84 320 32 32 445 542> 636 20G<404.5 429>
VStem: 331 114<203 513 513 513>
LayerCount: 2
Fore
SplineSet
542 0 m 1
 507 3 420 3 380 3 c 0
 337 3 246 3 208 0 c 1
 208 47 l 1
 320 47 l 1
 320 156 l 1
 32 156 l 1
 32 203 l 1
 381 640 l 2
 393 655 394 656 415 656 c 0
 443 656 445 651 445 624 c 2
 445 203 l 1
 542 203 l 1
 542 156 l 1
 445 156 l 1
 445 47 l 1
 542 47 l 1
 542 0 l 1
331 203 m 1
 331 513 l 1
 84 203 l 1
 331 203 l 1
EndSplineSet
Substitution2: "'pnum' Proportional Numbers lookup 6 subtable" four.prop
Substitution2: "'onum' Oldstyle Figures lookup 4 subtable" four.oldstyle
AlternateSubs2: "'aalt' Access All Alternates lookup 1 subtable" four.oldstyle four.prop
EndChar

StartChar: five
Encoding: 53 53 22
Width: 575
GlyphClass: 2
Flags: MW
HStem: -11 43<243 315 243 339> 93 136 373 36<275.5 330.5> 499 124<252 307> 635 20G<115 123.5 456.5 464>
VStem: 57 134<140.5 187.5 140.5 189.5> 152 134 375 142<168.5 245>
LayerCount: 2
Fore
SplineSet
517 201 m 0xbb
 517 79 419 -11 259 -11 c 0
 135 -11 57 74 57 159 c 0
 57 220 109 229 124 229 c 0
 148 229 191 214 191 161 c 0xc5
 191 120 162 96 126 94 c 1
 168 37 231 32 255 32 c 0
 375 32 375 132 375 205 c 0
 375 285 375 373 286 373 c 0
 245 373 191 363 152 317 c 0
 145 309 143 305 130 305 c 0
 108 305 108 318 108 336 c 2
 108 628 l 2
 108 644 108 655 122 655 c 0
 125 655 126 654 135 651 c 0
 161 642 214 623 290 623 c 0
 333 623 386 629 443 651 c 0
 454 655 455 655 458 655 c 0
 470 655 472 644 472 637 c 0
 472 612 380 499 234 499 c 0
 200 499 189 501 161 506 c 1
 161 374 l 1
 208 406 261 409 290 409 c 0
 438 409 517 316 517 201 c 0xbb
EndSplineSet
Substitution2: "'pnum' Proportional Numbers lookup 6 subtable" five.prop
Substitution2: "'onum' Oldstyle Figures lookup 4 subtable" five.oldstyle
AlternateSubs2: "'aalt' Access All Alternates lookup 1 subtable" five.oldstyle five.prop
EndChar

StartChar: six
Encoding: 54 54 23
Width: 575
GlyphClass: 2
Flags: MW
HStem: -11 43<263 339.5 263 360.5> 342 124 382 36<293 342.5> 466 124 616 39<320.5 360>
VStem: 48 138<201 443> 372 125<511 543>
LayerCount: 2
Fore
SplineSet
526 205 m 0x20
 526 71 430 -11 291 -11 c 0
 221 -11 145 13 98 89 c 0
 57 158 48 238 48 317 c 0
 48 569 213 655 349 655 c 0
 455 655 497 592 497 530 c 0
 497 492 473 466 434 466 c 0
 395 466 372 494 372 528 c 0
 372 558 390 585 426 590 c 1xbe
 403 613 369 616 351 616 c 0
 290 616 236 580 212 533 c 0
 205 518 184 475 184 361 c 2
 184 342 l 1x48
 226 418 282 418 304 418 c 0
 425 418 526 345 526 205 c 0x20
390 207 m 0
 390 307 390 382 295 382 c 0
 240 382 186 335 186 210 c 0
 186 192 186 119 202 87 c 0
 210 71 237 32 289 32 c 0
 390 32 390 106 390 207 c 0
EndSplineSet
Substitution2: "'pnum' Proportional Numbers lookup 6 subtable" six.prop
Substitution2: "'onum' Oldstyle Figures lookup 4 subtable" six.oldstyle
AlternateSubs2: "'aalt' Access All Alternates lookup 1 subtable" six.oldstyle six.prop
EndChar

StartChar: seven
Encoding: 55 55 24
Width: 575
GlyphClass: 2
Flags: MW
HStem: -11 21G<252 263> 519 125<238.5 558 354 416> 656 20G<99 146 146 146>
VStem: 193 125<27 60 60 106 27 133>
LayerCount: 2
Fore
SplineSet
558 644 m 1
 558 609 558 607 548 596 c 2
 393 416 l 2
 358 375 337 316 328 249 c 0
 321 202 318 154 318 106 c 2
 318 60 l 2
 318 -6 271 -11 255 -11 c 0
 249 -11 193 -11 193 59 c 0
 193 207 265 342 361 454 c 0
 379 476 398 497 416 519 c 1
 247 519 l 2
 230 519 149 519 138 513 c 0
 134 511 121 498 111 422 c 1
 64 422 l 1
 99 676 l 1
 146 676 l 1
 148 666 149 657 170 653 c 0
 184 649 331 644 354 644 c 2
 558 644 l 1
EndSplineSet
Substitution2: "'pnum' Proportional Numbers lookup 6 subtable" seven.prop
Substitution2: "'onum' Oldstyle Figures lookup 4 subtable" seven.oldstyle
AlternateSubs2: "'aalt' Access All Alternates lookup 1 subtable" seven.oldstyle seven.prop
EndChar

StartChar: eight
Encoding: 56 56 25
Width: 575
GlyphClass: 2
Flags: MW
HStem: -11 43<240 317.5 240 365> 187 39 616 39<265 327>
VStem: 48 86<122 198> 199 86 440 86<132 156>
LayerCount: 2
Fore
SplineSet
526 187 m 0
 526 77 445 -11 285 -11 c 0
 156 -11 48 40 48 161 c 0
 48 235 92 292 176 329 c 1
 98 373 80 436 80 480 c 0
 80 576 150 655 289 655 c 0
 403 655 494 610 494 508 c 0
 494 450 463 406 393 370 c 1
 442 342 526 295 526 187 c 0
419 507 m 0
 419 575 369 616 285 616 c 0
 245 616 155 609 155 539 c 0
 155 505 183 488 199 479 c 2
 349 395 l 1
 393 424 419 458 419 507 c 0
440 132 m 0
 440 180 403 201 359 226 c 2
 222 302 l 1
 187 282 134 239 134 161 c 0
 134 83 191 32 289 32 c 0
 346 32 440 48 440 132 c 0
EndSplineSet
Substitution2: "'pnum' Proportional Numbers lookup 6 subtable" eight.prop
Substitution2: "'onum' Oldstyle Figures lookup 4 subtable" eight.oldstyle
AlternateSubs2: "'aalt' Access All Alternates lookup 1 subtable" eight.oldstyle eight.prop
EndChar

StartChar: nine
Encoding: 57 57 26
Width: 575
GlyphClass: 2
Flags: MW
HStem: -11 43<228 271.5 228 304> 53 125 227 36<231.5 287.5> 616 39<237.5 320.5>
VStem: 77 125<93.5 133 93.5 133> 389 137<201 445>
LayerCount: 2
Fore
SplineSet
526 329 m 0
 526 73 369 -11 239 -11 c 0
 128 -11 77 46 77 114 c 0
 77 152 101 178 140 178 c 0
 179 178 202 150 202 116 c 0
 202 71 165 57 153 54 c 1
 183 34 219 32 237 32 c 0
 306 32 349 77 366 116 c 0
 381 150 390 209 390 282 c 2
 390 304 l 1
 352 234 305 227 270 227 c 0
 147 227 48 302 48 440 c 0
 48 574 147 655 289 655 c 0
 526 655 526 396 526 329 c 0
389 428 m 0
 389 462 389 520 377 553 c 0
 373 563 350 616 291 616 c 0
 184 616 184 536 184 438 c 0
 184 338 184 263 279 263 c 0
 363 263 389 365 389 428 c 0
EndSplineSet
Substitution2: "'pnum' Proportional Numbers lookup 6 subtable" nine.prop
Substitution2: "'onum' Oldstyle Figures lookup 4 subtable" nine.oldstyle
AlternateSubs2: "'aalt' Access All Alternates lookup 1 subtable" nine.oldstyle nine.prop
EndChar

StartChar: colon
Encoding: 58 58 27
Width: 319
GlyphClass: 2
Flags: MW
HStem: 0 156<137.5 180.5> 288 156<137.5 180.5>
VStem: 81 156<56.5 99.5 344.5 387.5>
LayerCount: 2
Fore
SplineSet
237 366 m 0
 237 323 202 288 159 288 c 0
 116 288 81 323 81 366 c 0
 81 409 116 444 159 444 c 0
 202 444 237 409 237 366 c 0
237 78 m 0
 237 35 202 0 159 0 c 0
 116 0 81 35 81 78 c 0
 81 121 116 156 159 156 c 0
 202 156 237 121 237 78 c 0
EndSplineSet
EndChar

StartChar: semicolon
Encoding: 59 59 28
Width: 319
GlyphClass: 2
Flags: MW
HStem: -194 21G<126 137> 0 156<135 170.5> 288 156<137.5 180.5>
VStem: 81 156<344.5 387.5>
LayerCount: 2
Fore
SplineSet
237 366 m 0
 237 323 202 288 159 288 c 0
 116 288 81 323 81 366 c 0
 81 409 116 444 159 444 c 0
 202 444 237 409 237 366 c 0
240 32 m 0
 240 -104 144 -194 130 -194 c 0
 122 -194 111 -184 111 -174 c 0
 111 -168 113 -166 121 -159 c 0
 152 -129 195 -75 203 12 c 1
 198 9 182 0 159 0 c 0
 108 0 81 38 81 78 c 0
 81 121 112 156 158 156 c 0
 215 156 240 97 240 32 c 0
EndSplineSet
EndChar

StartChar: less
Encoding: 60 60 29
Width: 894
GlyphClass: 2
Flags: MW
HStem: -86 21G<766 775.5> 567 20G<762.5 775.5>
LayerCount: 2
Fore
SplineSet
797 -56 m 0
 797 -70 785 -86 766 -86 c 1
 766 -86 758 -86 744 -79 c 2
 121 219 l 2
 108 225 96 233 96 251 c 0
 96 269 110 277 121 282 c 2
 747 581 l 2
 754 585 759 587 766 587 c 0
 785 587 797 571 797 557 c 0
 797 540 786 532 772 525 c 2
 197 250 l 1
 772 -24 l 2
 786 -31 797 -39 797 -56 c 0
EndSplineSet
EndChar

StartChar: equal
Encoding: 61 61 30
Width: 894
GlyphClass: 2
Flags: MW
HStem: 108 61<105 110 110 783> 332 61<99 783 110 783 783 788>
VStem: 64 765<123.5 154 347 377.5>
LayerCount: 2
Fore
SplineSet
829 362 m 0
 829 332 800 332 788 332 c 2
 105 332 l 2
 93 332 64 332 64 362 c 0
 64 393 95 393 110 393 c 2
 783 393 l 2
 798 393 829 393 829 362 c 0
829 139 m 0
 829 108 798 108 783 108 c 2
 110 108 l 2
 95 108 64 108 64 139 c 0
 64 169 93 169 105 169 c 2
 788 169 l 2
 800 169 829 169 829 139 c 0
EndSplineSet
EndChar

StartChar: greater
Encoding: 62 62 31
Width: 894
GlyphClass: 2
Flags: MW
HStem: -86 21G<117.5 130.5> 567 20G<118 127.5>
LayerCount: 2
Fore
SplineSet
797 251 m 0
 797 233 786 225 772 219 c 2
 146 -80 l 2
 139 -84 134 -86 127 -86 c 0
 108 -86 96 -70 96 -56 c 0
 96 -41 104 -32 121 -24 c 2
 696 251 l 1
 121 525 l 2
 105 533 96 541 96 557 c 0
 96 573 110 587 126 587 c 0
 129 587 135 587 149 580 c 2
 772 282 l 2
 783 277 797 269 797 251 c 0
EndSplineSet
EndChar

StartChar: question
Encoding: 63 63 32
Width: 543
GlyphClass: 2
Flags: MW
HStem: 0 156<233.5 276.5> 226 21G<243.5 267> 509 124 664 36<234 281.5 193.5 303>
VStem: 64 125<551.5 595.5 551.5 605> 232 47<253 256 256 283 244 291 244 323.5> 350 128<556 601.5>
LayerCount: 2
Fore
SplineSet
478 571 m 0
 478 508 430 481 410 469 c 0
 372 447 279 386 279 283 c 2
 279 256 l 2
 279 232 279 226 255 226 c 0
 232 226 232 231 232 253 c 2
 232 291 l 2
 232 356 260 433 322 498 c 0
 342 518 350 534 350 578 c 0
 350 625 349 664 257 664 c 0
 211 664 170 652 144 633 c 1
 146 632 189 619 189 572 c 0
 189 531 158 509 126 509 c 0
 101 509 64 525 64 573 c 0
 64 637 124 700 263 700 c 0
 300 700 478 700 478 571 c 0
333 78 m 0
 333 35 298 0 255 0 c 0
 212 0 177 35 177 78 c 0
 177 121 212 156 255 156 c 0
 298 156 333 121 333 78 c 0
EndSplineSet
EndChar

StartChar: at
Encoding: 64 64 33
Width: 894
GlyphClass: 2
Flags: MW
HStem: -6 36<334.5 500 334.5 549> 128 36<418 465 418 468 692.5 739> 530 36<418 465.5> 664 36<341 537.5>
VStem: 64 47<262 440 262 446.5> 217 114<283 411.5 283 413> 331 114 448 114 562 114<222 223 223 453> 782 47<315 450.5>
LayerCount: 2
Fore
SplineSet
829 79 m 0xfac0
 829 74 826 69 826 69 c 1
 802 57 647 -6 451 -6 c 0
 184 -6 64 163 64 347 c 0
 64 546 201 700 447 700 c 0
 681 700 829 558 829 345 c 0
 829 285 820 128 699 128 c 0
 673 128 605 132 574 173 c 1
 536 141 491 128 445 128 c 0xfb40
 308 128 217 216 217 347 c 0x04
 217 479 309 566 445 566 c 0
 522 566 578 529 607 482 c 1
 646 482 l 2
 675 482 676 480 676 453 c 2
 676 223 l 2
 676 209 676 164 709 164 c 0
 769 164 782 250 782 340 c 0
 782 561 629 664 446 664 c 0
 236 664 111 533 111 347 c 0
 111 177 219 30 450 30 c 0
 550 30 649 50 743 86 c 0
 759 93 761 93 777 93 c 2
 801 93 l 2
 816 93 829 93 829 79 c 0xfac0
562 222 m 1
 562 472 l 1
 531 515 483 530 448 530 c 0
 388 530 331 476 331 347 c 0
 331 219 388 164 448 164 c 0
 482 164 531 178 562 222 c 1
EndSplineSet
EndChar

StartChar: A
Encoding: 65 65 34
Width: 869
GlyphClass: 2
Flags: MW
HStem: 0 47<41 62> 193 47<275 503 275 523 255 503> 678 20G<420 442.5>
LayerCount: 2
Fore
SplineSet
827 0 m 1
 792 3 704 3 664 3 c 0
 621 3 526 3 488 0 c 1
 488 47 l 1
 583 47 l 1
 523 193 l 1
 255 193 l 1
 205 72 l 1
 201 60 l 1
 201 47 290 47 290 47 c 1
 290 0 l 1
 253 3 197 3 158 3 c 2
 41 0 l 1
 41 47 l 1
 62 47 l 2
 138 47 141 55 147 70 c 2
 395 672 l 2
 402 690 406 698 434 698 c 0
 451 698 463 698 474 672 c 2
 730 47 l 1
 827 47 l 1
 827 0 l 1
503 240 m 1
 389 518 l 1
 275 240 l 1
 503 240 l 1
EndSplineSet
Position2: "'cpsp' Capital Spacing lookup 0 subtable" dx=7 dy=0 dh=14 dv=0
EndChar

StartChar: B
Encoding: 66 66 35
Width: 818
GlyphClass: 2
Flags: MW
HStem: 0 47<39 147 278 462 462 503 39 147> 339 36<278 434 434 472 278 434> 639 47<39 147 39 473 278 278 278 460>
VStem: 147 131<47 339 375 639> 579 142<475.5 537>
LayerCount: 2
Fore
SplineSet
753 186 m 0
 753 88 669 0 503 0 c 2
 39 0 l 1
 39 47 l 1
 147 47 l 1
 147 639 l 1
 39 639 l 1
 39 686 l 1
 473 686 l 2
 634 686 721 606 721 514 c 0
 721 437 656 377 548 358 c 1
 667 349 753 282 753 186 c 0
579 514 m 0
 579 560 561 639 460 639 c 2
 278 639 l 1
 278 375 l 1
 434 375 l 2
 531 375 579 437 579 514 c 0
606 187 m 0
 606 198 606 254 573 296 c 0
 539 339 492 339 472 339 c 2
 278 339 l 1
 278 47 l 1
 462 47 l 2
 606 47 606 175 606 187 c 0
EndSplineSet
Position2: "'cpsp' Capital Spacing lookup 0 subtable" dx=7 dy=0 dh=14 dv=0
EndChar

StartChar: C
Encoding: 67 67 36
Width: 831
GlyphClass: 2
Flags: MW
HStem: -11 47<451 540.5 451 559.5> 650 47<461 500 341.5 541>
VStem: 64 153<298 371 298 445.5> 717 49
LayerCount: 2
Fore
SplineSet
766 227 m 0
 766 112 653 -11 466 -11 c 0
 217 -11 64 138 64 343 c 0
 64 548 217 697 466 697 c 0
 534 697 601 679 663 629 c 1
 729 688 l 2
 737 695 739 697 748 697 c 0
 766 697 766 688 766 669 c 2
 766 454 l 2
 766 428 765 426 739 426 c 0
 716 426 715 428 712 447 c 0
 690 574 595 650 487 650 c 0
 435 650 348 639 283 573 c 0
 220 507 217 399 217 343 c 0
 217 253 229 178 276 121 c 0
 328 60 412 36 490 36 c 0
 591 36 712 97 719 231 c 0
 720 248 729 248 742 248 c 0
 759 248 766 247 766 227 c 0
EndSplineSet
Position2: "'cpsp' Capital Spacing lookup 0 subtable" dx=7 dy=0 dh=14 dv=0
EndChar

StartChar: D
Encoding: 68 68 37
Width: 882
GlyphClass: 2
Flags: MW
HStem: 0 47<39 147 283 429 429 459.5 39 147> 639 47<39 147 39 469 283 283 283 429>
VStem: 147 136<47 639 47 639> 670 147<283.5 384.5>
LayerCount: 2
Fore
SplineSet
817 337 m 0
 817 123 667 0 470 0 c 2
 39 0 l 1
 39 47 l 1
 147 47 l 1
 147 639 l 1
 39 639 l 1
 39 686 l 1
 469 686 l 2
 667 686 817 557 817 337 c 0
670 338 m 0
 670 431 662 499 627 550 c 0
 578 620 495 639 429 639 c 2
 283 639 l 1
 283 47 l 1
 429 47 l 2
 490 47 578 63 626 131 c 0
 658 176 670 229 670 338 c 0
EndSplineSet
Position2: "'cpsp' Capital Spacing lookup 0 subtable" dx=7 dy=0 dh=14 dv=0
EndChar

StartChar: E
Encoding: 69 69 38
Width: 756
GlyphClass: 2
Flags: MW
HStem: 0 47<39 147 289 441 441 533.5 39 147> 329 47<289 344 289 344> 633 47<39 147 39 660 289 289 289 441>
VStem: 147 142<47 329 376 633> 450 47<212 249 456 493> 644 47<439 439> 676 47<274 274>
LayerCount: 2
Fore
SplineSet
723 274 m 1xfa
 677 0 l 1
 39 0 l 1
 39 47 l 1
 147 47 l 1
 147 633 l 1
 39 633 l 1
 39 680 l 1
 660 680 l 1
 691 439 l 1
 644 439 l 1xb4
 628 560 602 633 441 633 c 2
 289 633 l 1
 289 376 l 1
 344 376 l 2
 441 376 450 419 450 493 c 1
 497 493 l 1
 497 212 l 1
 450 212 l 1
 450 286 440 329 344 329 c 2
 289 329 l 1
 289 47 l 1
 441 47 l 2
 626 47 654 136 676 274 c 1
 723 274 l 1xfa
EndSplineSet
Position2: "'cpsp' Capital Spacing lookup 0 subtable" dx=7 dy=0 dh=14 dv=0
EndChar

StartChar: F
Encoding: 70 70 39
Width: 724
GlyphClass: 2
Flags: MW
HStem: 0 47<39 147> 317 47<289 339 289 339> 633 47<39 147 39 644 289 429 289 289>
VStem: 147 142<47 317 364 633> 444 47<200 237 444 481> 628 47<439 439>
LayerCount: 2
Fore
SplineSet
675 439 m 1
 628 439 l 1
 613 556 590 633 429 633 c 2
 289 633 l 1
 289 364 l 1
 339 364 l 2
 436 364 444 407 444 481 c 1
 491 481 l 1
 491 200 l 1
 444 200 l 1
 444 274 435 317 339 317 c 2
 289 317 l 1
 289 47 l 1
 424 47 l 1
 424 0 l 1
 380 3 271 3 222 3 c 0
 178 3 77 3 39 0 c 1
 39 47 l 1
 147 47 l 1
 147 633 l 1
 39 633 l 1
 39 680 l 1
 644 680 l 1
 675 439 l 1
EndSplineSet
Position2: "'cpsp' Capital Spacing lookup 0 subtable" dx=7 dy=0 dh=14 dv=0
EndChar

StartChar: G
Encoding: 71 71 40
Width: 904
GlyphClass: 2
Flags: MW
HStem: -11 47<451 483.5> 229 47<479 623 479 479> 650 47<439 491 342 540.5>
VStem: 64 153<298.5 400 298.5 446.5> 623 142<128 229>
LayerCount: 2
Fore
SplineSet
845 229 m 1
 765 229 l 1
 765 28 l 2
 765 13 765 0 751 0 c 0
 744 0 684 26 653 53 c 1
 603 -9 500 -11 467 -11 c 0
 209 -11 64 144 64 343 c 0
 64 550 219 697 465 697 c 0
 517 697 589 687 662 629 c 1
 728 688 l 2
 736 695 738 697 747 697 c 0
 765 697 765 688 765 669 c 2
 765 454 l 2
 765 428 764 426 738 426 c 0
 715 426 714 428 711 447 c 0
 689 574 594 650 487 650 c 0
 391 650 314 613 274 563 c 0
 237 514 217 456 217 344 c 0
 217 253 230 182 273 127 c 0
 322 65 408 36 494 36 c 0
 526 36 558 42 584 57 c 0
 623 80 623 109 623 128 c 2
 623 229 l 1
 479 229 l 1
 479 276 l 1
 533 273 626 273 684 273 c 0
 723 273 810 273 845 276 c 1
 845 229 l 1
EndSplineSet
Position2: "'cpsp' Capital Spacing lookup 0 subtable" dx=7 dy=0 dh=14 dv=0
EndChar

StartChar: H
Encoding: 72 72 41
Width: 900
GlyphClass: 2
Flags: MW
HStem: 0 47<39 147> 333 47<289 610 289 610> 639 47<39 147 39 39>
VStem: 147 142<47 333 47 380 380 639> 610 142<47 333 333 333 380 639 47 639>
LayerCount: 2
Fore
SplineSet
860 0 m 1
 822 3 724 3 681 3 c 0
 638 3 540 3 502 0 c 1
 502 47 l 1
 610 47 l 1
 610 333 l 1
 289 333 l 1
 289 47 l 1
 397 47 l 1
 397 0 l 1
 359 3 261 3 218 3 c 0
 175 3 77 3 39 0 c 1
 39 47 l 1
 147 47 l 1
 147 639 l 1
 39 639 l 1
 39 686 l 1
 77 683 175 683 218 683 c 0
 261 683 359 683 397 686 c 1
 397 639 l 1
 289 639 l 1
 289 380 l 1
 610 380 l 1
 610 639 l 1
 502 639 l 1
 502 686 l 1
 540 683 638 683 681 683 c 0
 724 683 822 683 860 686 c 1
 860 639 l 1
 752 639 l 1
 752 47 l 1
 860 47 l 1
 860 0 l 1
EndSplineSet
Position2: "'cpsp' Capital Spacing lookup 0 subtable" dx=7 dy=0 dh=14 dv=0
EndChar

StartChar: I
Encoding: 73 73 42
Width: 436
GlyphClass: 2
Flags: MW
HStem: 0 47<33 147> 639 47<33 147 33 33>
VStem: 147 142<47 639 47 639>
LayerCount: 2
Fore
SplineSet
403 0 m 1
 362 3 264 3 218 3 c 0
 172 3 74 3 33 0 c 1
 33 47 l 1
 147 47 l 1
 147 639 l 1
 33 639 l 1
 33 686 l 1
 74 683 172 683 218 683 c 0
 264 683 362 683 403 686 c 1
 403 639 l 1
 289 639 l 1
 289 47 l 1
 403 47 l 1
 403 0 l 1
EndSplineSet
Position2: "'cpsp' Capital Spacing lookup 0 subtable" dx=7 dy=0 dh=14 dv=0
EndChar

StartChar: J
Encoding: 74 74 43
Width: 594
GlyphClass: 2
Flags: MW
HStem: -11 36<202.5 260.5 202.5 283> 42 149<81.5 130> 114 36 639 47<169 310 169 169>
VStem: 23 153<87.5 140> 310 136<149 150 150 639>
LayerCount: 2
Fore
SplineSet
527 639 m 1xd4
 446 639 l 1
 446 150 l 2
 446 46 350 -11 216 -11 c 0
 102 -11 23 37 23 114 c 0xbc
 23 166 63 191 100 191 c 0x40
 133 191 176 168 176 114 c 0x28
 176 61 130 42 130 42 c 1
 161 28 194 25 211 25 c 0
 310 25 310 130 310 149 c 2
 310 639 l 1
 169 639 l 1
 169 686 l 1
 217 683 315 683 368 683 c 0
 407 683 492 683 527 686 c 1
 527 639 l 1xd4
EndSplineSet
Position2: "'cpsp' Capital Spacing lookup 0 subtable" dx=7 dy=0 dh=14 dv=0
EndChar

StartChar: K
Encoding: 75 75 44
Width: 901
GlyphClass: 2
Flags: MW
HStem: 0 47<39 147> 639 47<39 147 39 39>
VStem: 147 142<47 257 47 319 319 639>
LayerCount: 2
Fore
SplineSet
852 0 m 1
 815 3 746 3 706 3 c 0
 661 3 571 3 530 0 c 1
 530 47 l 1
 565 47 585 47 603 55 c 1
 600 61 600 63 595 69 c 2
 389 340 l 1
 289 257 l 1
 289 47 l 1
 397 47 l 1
 397 0 l 1
 359 3 261 3 218 3 c 0
 175 3 77 3 39 0 c 1
 39 47 l 1
 147 47 l 1
 147 639 l 1
 39 639 l 1
 39 686 l 1
 77 683 175 683 218 683 c 0
 261 683 359 683 397 686 c 1
 397 639 l 1
 289 639 l 1
 289 319 l 1
 659 628 l 1
 650 631 662 630 646 634 c 0
 621 639 601 639 588 639 c 1
 588 686 l 1
 624 683 696 683 734 683 c 0
 739 683 796 683 836 686 c 1
 836 639 l 1
 819 639 l 2
 789 639 747 639 725 621 c 2
 485 421 l 1
 755 67 l 2
 767 51 770 47 823 47 c 2
 852 47 l 1
 852 0 l 1
EndSplineSet
Position2: "'cpsp' Capital Spacing lookup 0 subtable" dx=7 dy=0 dh=14 dv=0
EndChar

StartChar: L
Encoding: 76 76 45
Width: 692
GlyphClass: 2
Flags: MW
HStem: 0 47<39 147 289 392 392 481.5 39 147> 639 47<39 147 39 39>
VStem: 147 142<47 639 47 639> 596 47<274 274>
LayerCount: 2
Fore
SplineSet
643 274 m 1
 612 0 l 1
 39 0 l 1
 39 47 l 1
 147 47 l 1
 147 639 l 1
 39 639 l 1
 39 686 l 1
 77 683 178 683 222 683 c 0
 271 683 380 683 424 686 c 1
 424 639 l 1
 289 639 l 1
 289 47 l 1
 392 47 l 2
 571 47 588 205 596 274 c 1
 643 274 l 1
EndSplineSet
Position2: "'cpsp' Capital Spacing lookup 0 subtable" dx=7 dy=0 dh=14 dv=0
EndChar

StartChar: M
Encoding: 77 77 46
Width: 1092
GlyphClass: 2
Flags: MW
HStem: 0 47<40 65> 3 47 639 47<40 148 40 262 943 943 943 1051>
VStem: 148 53<76 626> 231 53 818 125<47 639 47 639>
LayerCount: 2
Fore
SplineSet
1051 0 m 1xb4
 1015 3 921 3 880 3 c 0xb4
 839 3 746 3 710 0 c 1
 710 47 l 1
 818 47 l 1
 818 639 l 1
 817 639 l 1
 538 24 l 2
 534 15 526 0 506 0 c 0xa4
 495 0 483 5 474 25 c 2
 202 626 l 1
 201 626 l 1
 201 76 l 2
 201 54 202 53 231 50 c 0x58
 249 48 266 47 284 47 c 2
 309 47 l 1
 309 0 l 1
 268 3 216 3 174 3 c 0x88
 135 3 78 3 40 0 c 1
 40 47 l 1
 65 47 l 2x80
 93 47 95 47 119 50 c 0x40
 147 53 148 54 148 76 c 2
 148 639 l 1
 40 639 l 1
 40 686 l 1
 262 686 l 2
 284 686 295 686 306 661 c 2
 546 132 l 1
 786 661 l 2
 797 686 808 686 830 686 c 2
 1051 686 l 1
 1051 639 l 1
 943 639 l 1
 943 47 l 1
 1051 47 l 1
 1051 0 l 1xb4
EndSplineSet
Position2: "'cpsp' Capital Spacing lookup 0 subtable" dx=7 dy=0 dh=14 dv=0
EndChar

StartChar: N
Encoding: 78 78 47
Width: 900
GlyphClass: 2
Flags: MW
HStem: 0 47<39 64> 3 47 636 47 639 47<39 147 39 268>
VStem: 147 53<76 599> 230 53 616 53 699 53<205 610>
LayerCount: 2
Fore
SplineSet
860 639 m 1x10
 835 639 l 2x10
 807 639 805 639 781 636 c 0
 753 633 752 632 752 610 c 2
 752 32 l 2
 752 9 752 0 725 0 c 0xa1
 709 0 708 1 698 13 c 2
 200 599 l 1
 200 76 l 2
 200 54 201 53 230 50 c 0x4c
 248 48 265 47 283 47 c 2
 308 47 l 1
 308 0 l 1
 267 3 215 3 173 3 c 0x84
 134 3 77 3 39 0 c 1
 39 47 l 1
 64 47 l 2x80
 92 47 94 47 118 50 c 0
 146 53 147 54 147 76 c 2
 147 639 l 1
 39 639 l 1
 39 686 l 1
 268 686 l 2x58
 289 686 290 685 301 673 c 2
 699 205 l 1
 699 610 l 2
 699 632 698 633 669 636 c 0x23
 651 638 634 639 616 639 c 2
 591 639 l 1
 591 686 l 1
 632 683 684 683 726 683 c 0x12
 765 683 822 683 860 686 c 1
 860 639 l 1x10
EndSplineSet
Position2: "'cpsp' Capital Spacing lookup 0 subtable" dx=7 dy=0 dh=14 dv=0
EndChar

StartChar: O
Encoding: 79 79 48
Width: 864
GlyphClass: 2
Flags: MW
HStem: -11 42<401.5 458 401.5 546> 657 40<401.5 463>
VStem: 64 153<311 386 311 444> 646 153<319 388>
LayerCount: 2
Fore
SplineSet
799 339 m 0
 799 134 661 -11 431 -11 c 0
 204 -11 64 132 64 339 c 0
 64 549 203 697 432 697 c 0
 654 697 799 555 799 339 c 0
646 354 m 0
 646 422 642 499 604 563 c 0
 564 629 495 657 431 657 c 0
 372 657 305 632 264 571 c 0
 220 503 217 418 217 354 c 0
 217 268 225 197 258 135 c 0
 299 59 372 31 431 31 c 0
 485 31 555 53 600 126 c 0
 642 195 646 284 646 354 c 0
EndSplineSet
Position2: "'cpsp' Capital Spacing lookup 0 subtable" dx=7 dy=0 dh=14 dv=0
EndChar

StartChar: P
Encoding: 80 80 49
Width: 786
GlyphClass: 2
Flags: MW
HStem: 0 47<39 147> 302 41<289 417 417 466 289 289> 639 47<39 147 39 456 283 283 283 418>
VStem: 147 136<343 639 343 639 343 639> 568 153<455.5 527>
LayerCount: 2
Fore
SplineSet
721 491 m 0
 721 374 605 302 466 302 c 2
 289 302 l 1
 289 47 l 1
 397 47 l 1
 397 0 l 1
 359 3 261 3 218 3 c 0
 175 3 77 3 39 0 c 1
 39 47 l 1
 147 47 l 1
 147 639 l 1
 39 639 l 1
 39 686 l 1
 456 686 l 2
 622 686 721 601 721 491 c 0
568 491 m 0
 568 563 568 639 418 639 c 2
 283 639 l 1
 283 343 l 1
 417 343 l 2
 568 343 568 420 568 491 c 0
EndSplineSet
Position2: "'cpsp' Capital Spacing lookup 0 subtable" dx=7 dy=0 dh=14 dv=0
EndChar

StartChar: Q
Encoding: 81 81 50
Width: 864
GlyphClass: 2
Flags: MW
HStem: -194 153<672.5 692.5 672.5 719> -11 40<404.5 443> 29 40 119 36<415.5 446> 657 40<408.5 458>
VStem: 64 147<301 360 301 444> 334 36<70 86.5 67 97> 556 36 652 147<312 369.5> 769 36
LayerCount: 2
Fore
SplineSet
805 -8 m 0x8140
 805 -76 770 -194 668 -194 c 0
 575 -194 555 -115 527 -2 c 1
 487 -10 454 -11 432 -11 c 0
 200 -11 64 135 64 339 c 0
 64 549 203 697 432 697 c 0
 654 697 799 555 799 339 c 0xcc80
 799 230 756 82 592 18 c 1
 631 -41 661 -41 684 -41 c 0
 701 -41 763 -40 769 -2 c 0
 770 5 772 18 787 18 c 0
 805 18 805 0 805 -8 c 0x8140
652 340 m 0
 652 399 649 485 611 552 c 0
 563 637 485 657 431 657 c 0
 386 657 300 642 248 546 c 0
 211 475 211 380 211 340 c 0
 211 262 214 110 337 51 c 1
 335 56 334 67 334 73 c 0
 334 121 380 155 431 155 c 0
 498 155 534 102 556 69 c 1
 652 135 652 284 652 340 c 0
514 45 m 1
 494 108 460 119 432 119 c 0
 399 119 370 100 370 73 c 0
 370 61 377 29 432 29 c 0
 459 29 489 34 514 45 c 1
EndSplineSet
Position2: "'cpsp' Capital Spacing lookup 0 subtable" dx=7 dy=0 dh=14 dv=0
EndChar

StartChar: R
Encoding: 82 82 51
Width: 863
GlyphClass: 2
Flags: MW
HStem: 0 47<39 147> 325 36<283 399 399 400 283 399> 639 47<39 147 39 419 283 283 283 401>
VStem: 147 136<47 325 47 361 361 639> 283 136<361 686> 521 150 808 50
CounterMasks: 1 e0
LayerCount: 2
Fore
SplineSet
858 95 m 0xe8
 858 79 845 -11 738 -11 c 0
 697 -11 635 -7 591 15 c 0
 521 49 521 98 521 164 c 0
 521 237 521 256 489 291 c 0
 458 325 414 325 400 325 c 2
 283 325 l 1
 283 47 l 1
 391 47 l 1
 391 0 l 1
 355 3 257 3 215 3 c 0
 173 3 75 3 39 0 c 1
 39 47 l 1
 147 47 l 1
 147 639 l 1xf6
 39 639 l 1
 39 686 l 1
 419 686 l 2
 607 686 717 602 717 501 c 0
 717 435 666 370 550 340 c 1
 593 324 648 293 662 223 c 0
 663 218 671 149 673 138 c 0
 678 96 687 25 747 25 c 0
 777 25 806 47 811 94 c 0
 812 107 813 117 834 117 c 0
 844 117 858 117 858 95 c 0xe8
564 500 m 0
 564 561 562 639 401 639 c 2
 283 639 l 1
 283 361 l 1
 399 361 l 2
 564 361 564 444 564 500 c 0
EndSplineSet
Position2: "'cpsp' Capital Spacing lookup 0 subtable" dx=7 dy=0 dh=14 dv=0
EndChar

StartChar: S
Encoding: 83 83 52
Width: 639
GlyphClass: 2
Flags: MW
HStem: -11 47<326.5 399 309 429.5> 240 43 654 43<239 312 212 329>
VStem: 64 97<518.5 548.5> 477 97<152.5 176>
LayerCount: 2
Fore
SplineSet
574 203 m 0
 574 102 512 -11 347 -11 c 0
 306 -11 213 -5 147 44 c 1
 101 -2 l 2
 93 -9 91 -11 82 -11 c 0
 64 -11 64 -2 64 17 c 2
 64 199 l 2
 64 222 64 228 88 228 c 0
 110 228 110 223 111 205 c 0
 119 56 271 36 347 36 c 0
 451 36 477 105 477 153 c 0
 477 199 452 225 437 240 c 0
 415 261 398 264 310 283 c 0
 201 307 167 314 118 363 c 0
 97 385 64 431 64 496 c 0
 64 601 136 697 288 697 c 0
 336 697 401 688 459 642 c 1
 504 686 l 2
 515 696 516 697 524 697 c 0
 542 697 542 688 542 669 c 2
 542 486 l 2
 542 463 542 458 518 458 c 0
 497 458 497 460 493 484 c 0
 470 620 369 654 289 654 c 0
 189 654 161 592 161 549 c 0
 161 488 217 454 257 445 c 2
 402 414 l 2
 493 395 574 314 574 203 c 0
EndSplineSet
Position2: "'cpsp' Capital Spacing lookup 0 subtable" dx=7 dy=0 dh=14 dv=0
EndChar

StartChar: T
Encoding: 84 84 53
Width: 800
GlyphClass: 2
Flags: MW
HStem: 0 47<176 329> 628 47<180 252 252 329 471 547 471 471>
VStem: 42 47<434 434> 329 142<47 628 47 628> 710 47<434 434>
LayerCount: 2
Fore
SplineSet
757 434 m 1
 710 434 l 1
 700 548 690 628 547 628 c 2
 471 628 l 1
 471 47 l 1
 624 47 l 1
 624 0 l 1
 570 3 459 3 400 3 c 0
 341 3 230 3 176 0 c 1
 176 47 l 1
 329 47 l 1
 329 628 l 1
 252 628 l 2
 108 628 98 547 89 434 c 1
 42 434 l 1
 63 675 l 1
 736 675 l 1
 757 434 l 1
EndSplineSet
Position2: "'cpsp' Capital Spacing lookup 0 subtable" dx=7 dy=0 dh=14 dv=0
EndChar

StartChar: U
Encoding: 85 85 54
Width: 885
GlyphClass: 2
Flags: MW
HStem: -11 47<378.5 520.5 378.5 557> 636 47 639 47<39 147 39 39>
VStem: 147 142<231 639> 601 53 684 53<233 610>
LayerCount: 2
Fore
SplineSet
845 639 m 1x20
 820 639 l 2x20
 792 639 790 639 766 636 c 0x40
 738 633 737 632 737 610 c 2
 737 229 l 2
 737 106 652 -11 462 -11 c 0
 255 -11 147 98 147 231 c 2
 147 639 l 1
 39 639 l 1
 39 686 l 1
 77 683 175 683 218 683 c 0xb4
 261 683 359 683 397 686 c 1
 397 639 l 1
 289 639 l 1x30
 289 223 l 2
 289 167 291 36 466 36 c 0
 575 36 684 85 684 233 c 2
 684 610 l 2
 684 632 683 633 654 636 c 0xdc
 636 638 619 639 601 639 c 2
 576 639 l 1
 576 686 l 1
 617 683 669 683 711 683 c 0x28
 750 683 807 683 845 686 c 1
 845 639 l 1x20
EndSplineSet
Position2: "'cpsp' Capital Spacing lookup 0 subtable" dx=7 dy=0 dh=14 dv=0
EndChar

StartChar: V
Encoding: 86 86 55
Width: 869
GlyphClass: 2
Flags: MW
HStem: -8 21G<420 442> 639 47<26 118 26 26>
VStem: 26 816<639 686 639 686>
LayerCount: 2
Fore
SplineSet
842 639 m 1
 823 639 l 2
 750 639 746 630 740 617 c 2
 474 16 l 2
 463 -8 450 -8 434 -8 c 0
 406 -8 402 0 394 18 c 2
 118 639 l 1
 26 639 l 1
 26 686 l 1
 61 683 145 683 184 683 c 0
 227 683 323 683 361 686 c 1
 361 639 l 1
 267 639 l 1
 480 160 l 1
 682 615 l 2
 683 618 686 623 686 627 c 0
 686 639 607 639 598 639 c 1
 598 686 l 1
 637 683 689 683 729 683 c 2
 842 686 l 1
 842 639 l 1
EndSplineSet
Position2: "'cpsp' Capital Spacing lookup 0 subtable" dx=7 dy=0 dh=14 dv=0
EndChar

StartChar: W
Encoding: 87 87 56
Width: 1189
GlyphClass: 2
Flags: MW
HStem: -8 21G<372.5 397.5 790.5 815.5> 639 47<24 110 24 24>
VStem: 24 1140<639 686 639 686>
LayerCount: 2
Fore
SplineSet
1164 639 m 1
 1148 639 1127 639 1107 637 c 0
 1076 634 1075 632 1069 615 c 2
 838 18 l 2
 832 2 828 -8 803 -8 c 0
 778 -8 774 2 768 18 c 2
 594 468 l 1
 420 18 l 2
 414 2 410 -8 385 -8 c 0
 360 -8 356 2 350 18 c 2
 110 639 l 1
 24 639 l 1
 24 686 l 1
 59 683 138 683 177 683 c 0
 220 683 314 683 352 686 c 1
 352 639 l 1
 256 639 l 1
 433 181 l 1
 569 533 l 1
 528 639 l 1
 442 639 l 1
 442 686 l 1
 477 683 556 683 595 683 c 0
 638 683 732 683 770 686 c 1
 770 639 l 1
 674 639 l 1
 851 181 l 1
 1023 628 l 1
 994 639 946 639 921 639 c 1
 921 686 l 1
 957 683 1019 683 1057 683 c 0
 1102 683 1137 685 1164 686 c 1
 1164 639 l 1
EndSplineSet
Position2: "'cpsp' Capital Spacing lookup 0 subtable" dx=7 dy=0 dh=14 dv=0
EndChar

StartChar: X
Encoding: 88 88 57
Width: 869
GlyphClass: 2
Flags: MW
HStem: 0 47<34 63> 3 47 636 47 639 47<49 147 49 49>
VStem: 34 801<0 47 0 47>
LayerCount: 2
Fore
SplineSet
835 0 m 1xa8
 800 3 713 3 673 3 c 0xa8
 628 3 533 3 492 0 c 1
 492 47 l 1
 575 47 l 1
 401 288 l 1
 236 69 l 2
 234 66 229 60 228 58 c 1
 263 47 302 47 320 47 c 1
 320 0 l 1
 284 3 207 3 168 3 c 0x80
 125 3 76 3 34 0 c 1
 34 47 l 1
 63 47 l 2x88
 83 47 104 48 124 50 c 0
 156 53 158 55 167 67 c 2
 369 332 l 1
 147 639 l 1
 49 639 l 1
 49 686 l 1
 84 683 171 683 211 683 c 0x50
 256 683 351 683 392 686 c 1
 392 639 l 1
 309 639 l 1
 452 442 l 1
 584 617 l 2
 586 620 591 626 592 628 c 1
 557 639 518 639 500 639 c 1
 500 686 l 1
 536 683 613 683 652 683 c 0
 695 683 744 683 786 686 c 1
 786 639 l 1
 757 639 l 2x10
 729 639 723 639 699 636 c 0
 664 633 663 632 652 618 c 2
 484 397 l 1
 737 47 l 1
 835 47 l 1
 835 0 l 1xa8
EndSplineSet
Position2: "'cpsp' Capital Spacing lookup 0 subtable" dx=7 dy=0 dh=14 dv=0
EndChar

StartChar: Y
Encoding: 89 89 58
Width: 869
GlyphClass: 2
Flags: MW
HStem: 0 47<258 366> 636 47 639 47<19 117 19 19>
VStem: 366 136<47 274 47 274>
LayerCount: 2
Fore
SplineSet
849 639 m 1x20
 828 639 l 2x20
 811 639 793 638 776 636 c 0x40
 754 633 746 633 737 619 c 2
 502 274 l 1
 502 47 l 1
 611 47 l 1
 611 0 l 1
 573 3 477 3 434 3 c 0
 392 3 294 3 258 0 c 1
 258 47 l 1
 366 47 l 1
 366 274 l 1
 117 639 l 1
 19 639 l 1
 19 686 l 1
 54 683 144 683 184 683 c 0xb0
 229 683 326 683 367 686 c 1
 367 639 l 1
 282 639 l 1
 485 342 l 1
 672 617 l 2
 677 623 677 625 679 629 c 1
 653 639 626 639 603 639 c 1
 603 686 l 1
 640 683 696 683 735 683 c 2
 849 686 l 1
 849 639 l 1x20
EndSplineSet
Position2: "'cpsp' Capital Spacing lookup 0 subtable" dx=7 dy=0 dh=14 dv=0
EndChar

StartChar: Z
Encoding: 90 90 59
Width: 703
GlyphClass: 2
Flags: MW
HStem: 0 51<231 371 371 473.5> 639 47<272 342 342 472>
VStem: 80 47<445 445> 598 47<284 284>
LayerCount: 2
Fore
SplineSet
645 284 m 1
 627 0 l 1
 96 0 l 2
 74 0 64 0 64 26 c 0
 64 37 64 40 72 52 c 2
 472 639 l 1
 342 639 l 2
 202 639 135 578 127 445 c 1
 80 445 l 1
 92 686 l 1
 606 686 l 2
 627 686 638 686 638 661 c 0
 638 650 638 649 630 637 c 2
 231 51 l 1
 371 51 l 2
 576 51 590 173 598 284 c 1
 645 284 l 1
EndSplineSet
Position2: "'cpsp' Capital Spacing lookup 0 subtable" dx=7 dy=0 dh=14 dv=0
EndChar

StartChar: bracketleft
Encoding: 91 91 60
Width: 319
GlyphClass: 2
Flags: MW
HStem: -250 61<189 293 189 293> 689 61<189 293 189 189>
VStem: 128 61<-189 689 -189 750>
LayerCount: 2
Fore
SplineSet
293 -250 m 1
 128 -250 l 1
 128 750 l 1
 293 750 l 1
 293 689 l 1
 189 689 l 1
 189 -189 l 1
 293 -189 l 1
 293 -250 l 1
EndSplineSet
EndChar

StartChar: backslash
Encoding: 92 92 61
Width: 575
GlyphClass: 2
Flags: MW
HStem: 730 20G<87 104.5>
LayerCount: 2
Fore
SplineSet
510 -219 m 0
 510 -239 494 -250 480 -250 c 0
 459 -250 453 -235 447 -220 c 2
 70 699 l 2
 65 712 64 713 64 719 c 0
 64 739 80 750 94 750 c 0
 115 750 120 737 127 720 c 2
 504 -199 l 2
 509 -212 510 -213 510 -219 c 0
EndSplineSet
EndChar

StartChar: bracketright
Encoding: 93 93 62
Width: 319
GlyphClass: 2
Flags: MW
HStem: -250 61<25 129 25 190 25 129> 689 61<25 129 25 190>
VStem: 129 61<-189 689 689 689>
LayerCount: 2
Fore
SplineSet
190 -250 m 1
 25 -250 l 1
 25 -189 l 1
 129 -189 l 1
 129 689 l 1
 25 689 l 1
 25 750 l 1
 190 750 l 1
 190 -250 l 1
EndSplineSet
EndChar

StartChar: asciicircum
Encoding: 94 94 63
Width: 556
GlyphClass: 2
Flags: MW
HStem: 562 21G<6 6 549 549> 685 59<277 278>
VStem: -5 566<584 584>
LayerCount: 2
Fore
SplineSet
561 584 m 1
 549 562 l 1
 277 685 l 1
 6 562 l 1
 -5 584 l 1
 278 744 l 1
 561 584 l 1
EndSplineSet
EndChar

StartChar: underscore
Encoding: 95 95 64
Width: 869
GlyphClass: 2
Flags: MW
HStem: -149 48
LayerCount: 2
Fore
SplineSet
869 -189 m 1
 0 -189 l 1
 0 -101 l 1
 869 -101 l 1
 869 -189 l 1
EndSplineSet
EndChar

StartChar: grave
Encoding: 96 96 65
Width: 575
GlyphClass: 2
Flags: MW
HStem: 509 21G<330 330> 684 20G<185 212.5>
LayerCount: 2
Fore
SplineSet
360 546 m 1
 330 509 l 1
 179 590 l 2
 163 599 141 610 141 642 c 0
 141 673 169 704 201 704 c 0
 224 704 236 691 248 678 c 2
 360 546 l 1
EndSplineSet
EndChar

StartChar: a
Encoding: 97 97 66
Width: 559
GlyphClass: 2
Flags: MW
HStem: -6 36<209.5 247.5 209.5 260> 0 47<473 533.5> 234 30 417 36<236 279.5>
VStem: 27 117<87 163 87 180.5> 352 114<139 234 234 234 265 299>
LayerCount: 2
Fore
SplineSet
553 24 m 0x5c
 553 0 541 0 521 0 c 2
 473 0 l 2x40
 369 0 369 46 369 77 c 1
 347 35 300 -6 220 -6 c 0x80
 151 -6 27 12 27 108 c 0
 27 253 281 262 352 265 c 1
 352 299 l 2
 352 375 317 417 242 417 c 0
 230 417 198 416 170 410 c 1
 173 408 192 391 192 361 c 0
 192 319 160 298 129 298 c 0
 102 298 67 317 67 361 c 0
 67 449 189 453 246 453 c 0
 395 453 466 388 466 299 c 2
 466 84 l 2
 466 61 466 48 527 47 c 0
 540 47 553 47 553 24 c 0x5c
352 139 m 2
 352 234 l 1
 302 231 144 217 144 109 c 0
 144 65 184 30 235 30 c 0xac
 260 30 352 43 352 139 c 2
EndSplineSet
Substitution2: "'cv02' Character Variants 02 lookup 19 subtable" a.end
Substitution2: "'smcp' Lowercase to Small Capitals lookup 17 subtable" A.sc
EndChar

StartChar: b
Encoding: 98 98 67
Width: 639
GlyphClass: 2
Flags: MW
HStem: -6 36<304 355 304 422.5> 414 36<324.5 411> 639 55
VStem: 106 114<99 350 99 600> 220 128 472 128<199.5 258>
LayerCount: 2
Fore
SplineSet
600 223 m 0x70
 600 84 497 -6 348 -6 c 0xcc
 259 -6 210 48 202 56 c 1
 186 37 169 19 153 0 c 1
 106 0 l 1
 106 600 l 2
 106 639 99 639 37 639 c 1
 37 686 l 1
 214 694 l 1
 214 401 l 1
 238 421 288 450 361 450 c 0
 506 450 600 356 600 223 c 0x70
472 223 m 0
 472 293 472 414 350 414 c 0
 295 414 247 385 220 350 c 1
 220 99 l 1
 230 84 269 30 339 30 c 0
 371 30 417 41 446 82 c 0
 472 121 472 176 472 223 c 0
EndSplineSet
Substitution2: "'smcp' Lowercase to Small Capitals lookup 17 subtable" B.sc
EndChar

StartChar: c
Encoding: 99 99 68
Width: 511
GlyphClass: 2
Flags: MW
HStem: -6 40<235.5 330.5 235.5 367> 413 40<230.5 312.5>
VStem: 38 128<204 255 204 280> 166 125 305 125 340 125<340 365.5>
LayerCount: 2
Fore
SplineSet
478 117 m 0xe8
 478 110 448 -6 286 -6 c 0
 132 -6 38 89 38 222 c 0xa0
 38 338 112 453 291 453 c 0
 349 453 465 447 465 361 c 0
 465 319 433 298 402 298 c 0
 375 298 340 317 340 361 c 0x54
 340 370 342 391 360 407 c 1
 347 410 330 413 295 413 c 0
 166 413 166 283 166 227 c 0
 166 181 166 34 305 34 c 0
 356 34 404 53 430 116 c 0
 435 129 436 131 454 131 c 0
 464 131 478 131 478 117 c 0xe8
EndSplineSet
Substitution2: "'smcp' Lowercase to Small Capitals lookup 17 subtable" C.sc
EndChar

StartChar: d
Encoding: 100 100 69
Width: 639
GlyphClass: 2
Flags: MW
HStem: -6 36<227 308.5> 0 47<570 601> 414 36<283.5 305.5 216 327.5> 639 47<355 386> 639 55
VStem: 38 128<186 245 186 291.5> 418 114<-6 86 43 86 103 353 353 353>
LayerCount: 2
Fore
SplineSet
601 0 m 1x4a
 418 -6 l 1
 418 43 l 1
 387 18 339 -6 278 -6 c 0
 130 -6 38 89 38 221 c 0
 38 362 143 450 289 450 c 0
 322 450 374 444 424 405 c 1
 424 600 l 2
 424 639 417 639 355 639 c 1
 355 686 l 1xb6
 532 694 l 1
 532 86 l 2
 532 47 539 47 601 47 c 1
 601 0 l 1x4a
418 103 m 1x40
 418 353 l 1
 396 382 356 414 299 414 c 0
 268 414 221 404 192 362 c 0
 166 323 166 269 166 221 c 0
 166 151 166 30 288 30 c 0xa6
 364 30 405 85 418 103 c 1x40
EndSplineSet
Substitution2: "'smcp' Lowercase to Small Capitals lookup 17 subtable" D.sc
EndChar

StartChar: e
Encoding: 101 101 70
Width: 527
GlyphClass: 2
Flags: MW
HStem: -6 40<231.5 334.5 231.5 372> 218 33<160 399 160 462 160 399> 417 36<264.5 313.5 199 337.5>
VStem: 32 128<192.5 218 192.5 251 192.5 287.5> 184 95 399 95<251 251>
LayerCount: 2
Fore
SplineSet
494 117 m 0
 494 100 451 -6 293 -6 c 0
 132 -6 32 91 32 225 c 0
 32 350 119 453 279 453 c 0
 348 453 401 435 438 399 c 0
 488 349 494 276 494 245 c 0
 494 218 484 218 462 218 c 2
 160 218 l 1
 160 167 161 34 302 34 c 0
 367 34 424 66 445 114 c 0
 451 130 453 135 470 135 c 0
 475 135 494 135 494 117 c 0
399 251 m 1
 398 286 396 417 279 417 c 0
 250 417 210 405 184 365 c 0
 163 332 162 290 160 251 c 1
 399 251 l 1
EndSplineSet
Substitution2: "'cv02' Character Variants 02 lookup 19 subtable" e.end
Substitution2: "'smcp' Lowercase to Small Capitals lookup 17 subtable" E.sc
EndChar

StartChar: f
Encoding: 102 102 71
Width: 351
GlyphClass: 2
Flags: MW
HStem: 0 47<48 117> 397 47<42 117 42 117 225 340 225 225> 664 36<307.5 322.5>
VStem: 117 108<47 397 47 397 47 545> 314 123<592.5 622.5>
LayerCount: 2
Fore
SplineSet
437 613 m 0
 437 572 405 551 375 551 c 0
 349 551 314 570 314 613 c 0
 314 632 322 651 337 662 c 1
 330 664 325 664 320 664 c 0
 295 664 219 655 219 545 c 2
 219 444 l 1
 340 444 l 1
 340 397 l 1
 225 397 l 1
 225 47 l 1
 312 47 l 1
 312 0 l 1
 276 3 212 3 174 3 c 2
 48 0 l 1
 48 47 l 1
 117 47 l 1
 117 397 l 1
 42 397 l 1
 42 444 l 1
 117 444 l 1
 117 545 l 2
 117 658 225 700 323 700 c 0
 401 700 437 655 437 613 c 0
EndSplineSet
Substitution2: "'smcp' Lowercase to Small Capitals lookup 17 subtable" F.sc
EndChar

StartChar: g
Encoding: 103 103 72
Width: 575
GlyphClass: 2
Flags: MW
HStem: -201 36<227 352 227 375.5> -13 96<188 303 242 303 242 312> 12 96 84 96 154 36<242.5 299 211 327> 302 96 354 96 414 36<211 292 183 299> 414 41
VStem: 255 88 343 111<279.5 324.5> 454 88
CounterMasks: 1 0070
LayerCount: 2
Fore
SplineSet
558 397 m 0x00f0
 558 373 541 354 515 354 c 0x0a70
 489 354 472 372 472 397 c 0
 472 403 474 412 476 417 c 1
 465 416 444 414 414 398 c 1
 429 382 454 349 454 302 c 0
 454 232 399 154 255 154 c 0x0c70
 230 154 179 156 133 180 c 1
 127 172 123 157 123 147 c 0
 123 129 134 91 178 84 c 0
 183 83 229 83 255 83 c 0x5070
 351 83 411 83 467 55 c 0
 534 21 542 -42 542 -72 c 0
 542 -142 464 -201 287 -201 c 0
 87 -201 32 -126 32 -75 c 0
 32 -12 105 9 118 12 c 1
 78 44 74 93 74 108 c 0
 74 129 80 162 108 197 c 1
 76 220 56 261 56 302 c 0
 56 372 111 450 255 450 c 0xa570
 329 450 371 429 389 417 c 1
 433 452 480 455 495 455 c 0
 541 455 558 420 558 397 c 0x00f0
343 302 m 0
 343 347 343 414 255 414 c 0
 167 414 167 347 167 302 c 0xc570
 167 257 167 190 255 190 c 0
 343 190 343 257 343 302 c 0
456 -75 m 0
 456 -13 343 -13 312 -13 c 2
 195 -13 l 2
 181 -13 118 -13 118 -73 c 0
 118 -119 167 -165 287 -165 c 0
 417 -165 456 -111 456 -75 c 0
EndSplineSet
Substitution2: "'smcp' Lowercase to Small Capitals lookup 17 subtable" G.sc
EndChar

StartChar: h
Encoding: 104 104 73
Width: 639
GlyphClass: 2
Flags: MW
HStem: 0 47<45 114> 414 36<345.5 394> 639 47<45 76> 639 55
VStem: 114 114<47 256 47 600> 432 114<47 306 47 317 47 355>
LayerCount: 2
Fore
SplineSet
615 0 m 1xd4
 489 3 l 1xd4
 363 0 l 1
 363 47 l 1
 432 47 l 1
 432 317 l 2
 432 393 411 414 377 414 c 0
 314 414 228 365 228 256 c 2
 228 47 l 1
 297 47 l 1
 297 0 l 1
 171 3 l 1
 45 0 l 1
 45 47 l 1
 114 47 l 1
 114 600 l 2
 114 639 107 639 45 639 c 1
 45 686 l 1xec
 222 694 l 1
 222 354 l 1
 223 354 l 1
 245 392 296 450 392 450 c 0
 492 450 546 411 546 306 c 2
 546 47 l 1
 615 47 l 1
 615 0 l 1xd4
EndSplineSet
Substitution2: "'smcp' Lowercase to Small Capitals lookup 17 subtable" H.sc
EndChar

StartChar: i
Encoding: 105 105 74
Width: 319
GlyphClass: 2
Flags: MW
HStem: 0 47<47 116> 395 47<50 79.5> 395 55 529 156<138.5 181.5>
VStem: 82 156<585.5 628.5> 116 108<47 356 356 375.5>
LayerCount: 2
Fore
SplineSet
286 0 m 1xa4
 169 3 l 1xa4
 47 0 l 1
 47 47 l 1
 116 47 l 1
 116 356 l 2
 116 395 109 395 50 395 c 1
 50 442 l 1xc4
 224 450 l 1
 224 47 l 1
 286 47 l 1
 286 0 l 1xa4
238 607 m 0x18
 238 564 203 529 160 529 c 0
 117 529 82 564 82 607 c 0
 82 650 117 685 160 685 c 0
 203 685 238 650 238 607 c 0x18
EndSplineSet
Substitution2: "'smcp' Lowercase to Small Capitals lookup 17 subtable" I.sc
EndChar

StartChar: j
Encoding: 106 106 75
Width: 351
GlyphClass: 2
Flags: MW
HStem: -200 36<76 114 76 129> -164 55 395 55 529 156<167.5 210.5>
VStem: -56 125<-115.5 -91> 111 156<585.5 628.5> 159 108<-42 355 355 365.5>
LayerCount: 2
Fore
SplineSet
267 -42 m 2xaa
 267 -148 172 -200 86 -200 c 0x82
 4 -200 -56 -166 -56 -109 c 0x48
 -56 -73 -31 -46 7 -46 c 0
 43 -46 69 -73 69 -108 c 0
 69 -123 64 -144 45 -158 c 1
 60 -162 68 -164 84 -164 c 0
 144 -164 159 -92 159 -42 c 2
 159 355 l 2
 159 376 159 389 137 393 c 0
 122 395 100 395 83 395 c 1
 83 442 l 1
 267 450 l 1
 267 -42 l 2xaa
267 607 m 0x14
 267 564 232 529 189 529 c 0
 146 529 111 564 111 607 c 0
 111 650 146 685 189 685 c 0
 232 685 267 650 267 607 c 0x14
EndSplineSet
Substitution2: "'smcp' Lowercase to Small Capitals lookup 17 subtable" J.sc
EndChar

StartChar: k
Encoding: 107 107 76
Width: 607
GlyphClass: 2
Flags: MW
HStem: 0 47<37 106> 386 55 397 47<369 380.5> 639 47<37 68> 639 55
VStem: 106 108<237 600 600 619.5> 403 108
LayerCount: 2
Fore
SplineSet
587 0 m 1xa2
 553 2 519 3 483 3 c 0xa2
 478 3 391 2 361 0 c 1
 361 47 l 1
 374 47 392 47 392 56 c 0
 392 59 376 79 367 91 c 2
 266 217 l 1
 246 203 238 197 209 174 c 1
 209 47 l 1
 278 47 l 1
 278 0 l 1
 157 3 l 1
 37 0 l 1
 37 47 l 1
 106 47 l 1
 106 600 l 2
 106 639 99 639 37 639 c 1
 37 686 l 1x94
 214 694 l 1
 214 237 l 1
 403 386 l 1x4e
 395 394 392 397 369 397 c 1
 369 444 l 1
 484 441 l 2x20
 510 441 535 441 562 444 c 1
 562 397 l 1
 495 397 486 390 472 379 c 2
 342 278 l 1
 511 67 l 2
 524 51 527 47 570 47 c 2
 587 47 l 1
 587 0 l 1xa2
EndSplineSet
Substitution2: "'cv01' Character Variants 01 lookup 22 subtable" k.alt
Substitution2: "'smcp' Lowercase to Small Capitals lookup 17 subtable" K.sc
EndChar

StartChar: l
Encoding: 108 108 77
Width: 319
GlyphClass: 2
Flags: MW
HStem: 0 47<47 116> 639 47<47 78> 639 55
VStem: 116 108<47 600 600 619.5>
LayerCount: 2
Fore
SplineSet
293 0 m 1xb0
 170 3 l 1xb0
 47 0 l 1
 47 47 l 1
 116 47 l 1
 116 600 l 2
 116 639 109 639 47 639 c 1
 47 686 l 1xd0
 224 694 l 1
 224 47 l 1
 293 47 l 1
 293 0 l 1xb0
EndSplineSet
Substitution2: "'smcp' Lowercase to Small Capitals lookup 17 subtable" L.sc
EndChar

StartChar: m
Encoding: 109 109 78
Width: 958
GlyphClass: 2
Flags: MW
HStem: 0 47<45 114> 395 47<45 76> 395 55
VStem: 114 114<47 256 47 356 47 375.5> 433 114<47 256 47 317 47 355.5> 752 114<47 306 47 317 47 355.5>
CounterMasks: 1 1c
LayerCount: 2
Fore
SplineSet
935 0 m 1xbc
 809 3 l 1xbc
 683 0 l 1
 683 47 l 1
 752 47 l 1
 752 317 l 2
 752 394 730 414 696 414 c 0
 634 414 547 365 547 256 c 2
 547 47 l 1
 616 47 l 1
 616 0 l 1
 490 3 l 1
 364 0 l 1
 364 47 l 1
 433 47 l 1
 433 317 l 2
 433 394 411 414 377 414 c 0
 315 414 228 365 228 256 c 2
 228 47 l 1
 297 47 l 1
 297 0 l 1
 171 3 l 1
 45 0 l 1
 45 47 l 1
 114 47 l 1
 114 356 l 2
 114 395 107 395 45 395 c 1
 45 442 l 1xdc
 217 450 l 1
 217 342 l 1
 249 405 306 450 393 450 c 0
 431 450 523 447 543 354 c 1
 569 400 621 450 712 450 c 0
 815 450 866 409 866 306 c 2
 866 47 l 1
 935 47 l 1
 935 0 l 1xbc
EndSplineSet
Substitution2: "'cv02' Character Variants 02 lookup 19 subtable" m.end
Substitution2: "'smcp' Lowercase to Small Capitals lookup 17 subtable" M.sc
EndChar

StartChar: n
Encoding: 110 110 79
Width: 639
GlyphClass: 2
Flags: MW
HStem: 0 47<45 114> 395 47<45 76> 395 55
VStem: 114 114<47 256 47 356 47 375.5> 432 114<47 306 47 317 47 355>
LayerCount: 2
Fore
SplineSet
615 0 m 1xa8
 489 3 l 1xa8
 363 0 l 1
 363 47 l 1
 432 47 l 1
 432 317 l 2
 432 393 411 414 377 414 c 0
 314 414 228 365 228 256 c 2
 228 47 l 1
 297 47 l 1
 297 0 l 1
 171 3 l 1
 45 0 l 1
 45 47 l 1
 114 47 l 1
 114 356 l 2
 114 395 107 395 45 395 c 1
 45 442 l 1xd8
 217 450 l 1
 217 342 l 1
 243 393 296 450 392 450 c 0
 492 450 546 411 546 306 c 2
 546 47 l 1
 615 47 l 1
 615 0 l 1xa8
EndSplineSet
Substitution2: "'cv02' Character Variants 02 lookup 19 subtable" n.end
Substitution2: "'smcp' Lowercase to Small Capitals lookup 17 subtable" N.sc
EndChar

StartChar: o
Encoding: 111 111 80
Width: 575
GlyphClass: 2
Flags: MW
HStem: -6 40<223.5 350.5 223.5 371> 417 36<262.5 308>
VStem: 32 128<185.5 251.5 185.5 284.5> 414 128<185.5 253>
LayerCount: 2
Fore
SplineSet
542 218 m 0
 542 95 455 -6 287 -6 c 0
 120 -6 32 94 32 218 c 0
 32 351 123 453 287 453 c 0
 450 453 542 352 542 218 c 0
414 229 m 0
 414 277 414 332 393 366 c 0
 371 401 329 417 287 417 c 0
 238 417 196 396 177 359 c 0
 160 325 160 274 160 229 c 0
 160 142 160 34 287 34 c 0
 414 34 414 142 414 229 c 0
EndSplineSet
Substitution2: "'smcp' Lowercase to Small Capitals lookup 17 subtable" O.sc
EndChar

StartChar: p
Encoding: 112 112 81
Width: 639
GlyphClass: 2
Flags: MW
HStem: -194 47<37 106> -6 36<330 369.5 330 423> 363 47 395 47<37 68> 410 40<338 382.5>
VStem: 106 114<-147 39 107.5 117 117 329> 220 128 235 114 472 128<153.5 286>
LayerCount: 2
Fore
SplineSet
600 223 m 0x08
 600 84 498 -6 348 -6 c 0x4280
 307 -6 263 4 220 39 c 1
 220 -147 l 1
 289 -147 l 1
 289 -194 l 1
 163 -191 l 1
 37 -194 l 1
 37 -147 l 1
 106 -147 l 1
 106 357 l 2
 106 395 99 395 37 395 c 1
 37 442 l 1x94
 214 450 l 1
 214 401 l 1
 237 419 290 450 365 450 c 0
 509 450 600 356 600 223 c 0x08
472 223 m 0
 472 349 416 410 349 410 c 0
 327 410 275 404 235 363 c 0x2180
 221 349 220 348 220 329 c 2
 220 117 l 2
 220 98 220 97 231 84 c 0
 276 30 323 30 337 30 c 0
 402 30 472 82 472 223 c 0
EndSplineSet
Substitution2: "'smcp' Lowercase to Small Capitals lookup 17 subtable" P.sc
EndChar

StartChar: q
Encoding: 113 113 82
Width: 607
GlyphClass: 2
Flags: MW
HStem: -194 47<349 418> -6 36<257 302.5> 410 40<270 317 214 338>
VStem: 38 128<154.5 291.5> 418 114<-147 48 48 48>
LayerCount: 2
Fore
SplineSet
601 -194 m 1
 475 -191 l 1
 349 -194 l 1
 349 -147 l 1
 418 -147 l 1
 418 48 l 1
 372 8 327 -6 278 -6 c 0
 139 -6 38 81 38 222 c 0
 38 361 141 450 287 450 c 0
 347 450 403 420 438 371 c 1
 491 450 l 1
 532 450 l 1
 532 -147 l 1
 601 -147 l 1
 601 -194 l 1
424 142 m 2
 424 281 l 2
 424 331 376 410 300 410 c 0
 240 410 166 363 166 221 c 0
 166 88 226 30 288 30 c 0
 318 30 369 41 409 100 c 0
 424 121 424 124 424 142 c 2
EndSplineSet
Substitution2: "'smcp' Lowercase to Small Capitals lookup 17 subtable" Q.sc
EndChar

StartChar: r
Encoding: 114 114 83
Width: 474
GlyphClass: 2
Flags: MW
HStem: 0 47<37 106> 395 47<37 68> 395 55
VStem: 106 108<47 222 47 356> 214 122 320 122<348 382.5>
LayerCount: 2
Fore
SplineSet
442 368 m 0x28
 442 328 410 307 381 307 c 0
 352 307 320 327 320 368 c 0
 320 397 339 414 339 414 c 1
 239 414 214 292 214 222 c 2
 214 47 l 1
 301 47 l 1
 301 0 l 1
 265 3 201 3 163 3 c 2
 37 0 l 1
 37 47 l 1
 106 47 l 1
 106 356 l 2
 106 395 99 395 37 395 c 1
 37 442 l 1xd4
 203 450 l 1
 203 337 l 1
 226 400 266 450 336 450 c 0
 388 450 442 421 442 368 c 0x28
EndSplineSet
Substitution2: "'cv02' Character Variants 02 lookup 19 subtable" r.end
Substitution2: "'smcp' Lowercase to Small Capitals lookup 17 subtable" R.sc
EndChar

StartChar: s
Encoding: 115 115 84
Width: 454
GlyphClass: 2
Flags: MW
HStem: -6 32 -6 36<220 241 177 245.5> 421 32<211.5 242 207 258.5>
VStem: 38 71<335.5 387.5> 344 71<67.5 134.5>
LayerCount: 2
Fore
SplineSet
415 140 m 0x78
 415 -6 261 -6 230 -6 c 0
 210 -6 158 -6 112 26 c 1x88
 86 9 l 2
 65 -6 63 -6 56 -6 c 0
 38 -6 38 3 38 22 c 2
 38 131 l 2
 38 154 38 160 62 160 c 0
 76 160 81 160 86 146 c 0
 98 103 124 30 230 30 c 0
 252 30 344 30 344 105 c 0
 344 164 269 177 233 183 c 0
 156 197 118 203 78 238 c 0
 58 255 38 282 38 322 c 0
 38 453 192 453 222 453 c 0
 262 453 297 447 323 434 c 1
 362 453 364 453 368 453 c 0
 386 453 386 444 386 425 c 2
 386 345 l 2
 386 322 386 317 362 317 c 0
 341 317 340 322 339 337 c 0
 334 392 296 421 221 421 c 0
 202 421 109 421 109 359 c 0
 109 312 174 301 211 294 c 0
 289 281 321 275 360 246 c 0
 395 218 415 183 415 140 c 0x78
EndSplineSet
Substitution2: "'hist' Historical Forms lookup 21 subtable" longs
Substitution2: "'smcp' Lowercase to Small Capitals lookup 17 subtable" S.sc
EndChar

StartChar: t
Encoding: 116 116 85
Width: 447
GlyphClass: 2
Flags: MW
HStem: -6 40<246 289 246 299> 397 47<217 363 217 363> 615 20G<170 217 217 217>
VStem: 103 114<123 397> 170 47<635 635> 335 47<126 177>
LayerCount: 2
Fore
SplineSet
382 124 m 2xec
 382 51 337 -6 261 -6 c 0
 190 -6 103 16 103 123 c 2
 103 397 l 1xd4
 21 397 l 1
 21 433 l 1
 120 436 169 535 170 635 c 1
 217 635 l 1
 217 444 l 1
 363 444 l 1
 363 397 l 1
 217 397 l 1
 217 121 l 2
 217 98 217 34 275 34 c 0
 303 34 335 58 335 126 c 2
 335 177 l 1
 382 177 l 1
 382 124 l 2xec
EndSplineSet
Substitution2: "'smcp' Lowercase to Small Capitals lookup 17 subtable" T.sc
EndChar

StartChar: u
Encoding: 117 117 86
Width: 639
GlyphClass: 2
Flags: MW
HStem: -6 53 395 55
VStem: 114 114<123 356 356 375.5> 432 114<165 356 356 375.5>
LayerCount: 2
Fore
SplineSet
615 0 m 1
 438 -6 l 1
 438 72 l 1
 392 -6 320 -6 294 -6 c 0
 195 -6 114 16 114 123 c 2
 114 356 l 2
 114 395 107 395 45 395 c 1
 45 442 l 1
 228 450 l 1
 228 109 l 2
 228 55 231 30 308 30 c 0
 381 30 432 83 432 165 c 2
 432 356 l 2
 432 395 425 395 363 395 c 1
 363 442 l 1
 546 450 l 1
 546 86 l 2
 546 47 553 47 615 47 c 1
 615 0 l 1
EndSplineSet
Substitution2: "'smcp' Lowercase to Small Capitals lookup 17 subtable" U.sc
EndChar

StartChar: v
Encoding: 118 118 87
Width: 607
GlyphClass: 2
Flags: MW
HStem: -4 21G<296.5 311.5> 397 47<26 90 26 26>
VStem: 26 554<397 444 397 444>
LayerCount: 2
Fore
SplineSet
580 397 m 1
 516 397 512 390 506 376 c 2
 340 20 l 2
 330 -1 320 -4 303 -4 c 0
 290 -4 277 -4 265 21 c 2
 90 397 l 1
 26 397 l 1
 26 444 l 1
 140 441 l 1
 264 444 l 1
 264 397 l 1
 210 397 l 1
 337 124 l 1
 453 374 l 2
 458 384 458 386 458 386 c 2
 458 394 429 397 410 397 c 1
 410 444 l 1
 501 441 l 2
 526 441 555 442 580 444 c 1
 580 397 l 1
EndSplineSet
Substitution2: "'smcp' Lowercase to Small Capitals lookup 17 subtable" V.sc
EndChar

StartChar: w
Encoding: 119 119 88
Width: 831
GlyphClass: 2
Flags: MW
HStem: -4 21G<260.5 285.5 544.5 569.5> 397 47<25 84 25 25>
VStem: 25 232<397 444 397 444> 84 173<397 444> 201 214<282 397> 309 214<397 444 397 444> 523 214<376 444 376 397> 632 173<397 444 397 444>
LayerCount: 2
Fore
SplineSet
805 397 m 1x45
 746 397 742 389 737 376 c 2
 593 23 l 2
 586 6 582 -4 557 -4 c 0
 532 -4 528 6 521 23 c 2
 415 282 l 1x8a
 309 23 l 2
 302 6 298 -4 273 -4 c 0
 248 -4 244 6 237 23 c 2
 84 397 l 1xd4
 25 397 l 1
 25 444 l 1
 134 441 l 1
 257 444 l 1
 257 397 l 1x60
 201 397 l 1x48
 306 139 l 1
 385 331 l 2
 386 334 389 340 389 344 c 2
 389 344 389 347 368 397 c 1
 309 397 l 1
 309 444 l 1
 325 443 367 441 409 441 c 2
 523 444 l 1
 523 397 l 1
 467 397 l 1
 581 117 l 1
 686 373 l 2
 687 376 690 382 690 385 c 0
 690 396 641 397 632 397 c 1
 632 444 l 1
 728 441 l 2
 752 441 782 442 805 444 c 1
 805 397 l 1x45
EndSplineSet
Substitution2: "'smcp' Lowercase to Small Capitals lookup 17 subtable" W.sc
EndChar

StartChar: x
Encoding: 120 120 89
Width: 607
GlyphClass: 2
Flags: MW
HStem: 0 47<22 46> 397 47<27 98 27 27>
VStem: 22 563<0 47 0 47>
LayerCount: 2
Fore
SplineSet
585 0 m 1
 475 3 l 1
 355 0 l 1
 355 47 l 1
 394 47 l 1
 284 177 l 1
 187 68 l 2
 180 60 180 58 180 58 c 2
 180 52 199 47 217 47 c 1
 217 0 l 1
 114 3 l 1
 22 0 l 1
 22 47 l 1
 70 47 106 47 123 66 c 2
 254 213 l 1
 98 397 l 1
 27 397 l 1
 27 444 l 1
 137 441 l 1
 258 444 l 1
 258 397 l 1
 218 397 l 1
 316 282 l 1
 400 376 l 2
 404 380 404 382 408 388 c 1
 396 395 384 397 370 397 c 1
 370 444 l 1
 473 441 l 1
 565 444 l 1
 565 397 l 1
 482 397 476 390 463 376 c 2
 346 246 l 1
 514 47 l 1
 585 47 l 1
 585 0 l 1
EndSplineSet
Substitution2: "'smcp' Lowercase to Small Capitals lookup 17 subtable" X.sc
EndChar

StartChar: y
Encoding: 121 121 90
Width: 607
GlyphClass: 2
Flags: MW
HStem: -200 36<122 164.5 122 167.5> 397 47<26 90 26 26>
VStem: 22 115<-124.5 -90.5 -124.5 -88.5> 337 115
LayerCount: 2
Fore
SplineSet
580 397 m 1
 516 397 513 390 506 376 c 2
 291 -81 l 2
 264 -138 206 -200 129 -200 c 0
 69 -200 22 -159 22 -108 c 0
 22 -69 51 -50 79 -50 c 0
 113 -50 137 -74 137 -107 c 0
 137 -142 114 -156 105 -160 c 1
 113 -163 115 -164 129 -164 c 0
 200 -164 232 -96 254 -48 c 2
 277 0 l 1
 90 397 l 1
 26 397 l 1
 26 444 l 1
 140 441 l 1
 264 444 l 1
 264 397 l 1
 210 397 l 1
 337 127 l 1
 452 373 l 1
 457 385 l 1
 457 397 410 397 410 397 c 1
 410 444 l 1
 501 441 l 2
 526 441 556 442 580 444 c 1
 580 397 l 1
EndSplineSet
Substitution2: "'smcp' Lowercase to Small Capitals lookup 17 subtable" Y.sc
EndChar

StartChar: z
Encoding: 122 122 91
Width: 511
GlyphClass: 2
Flags: MW
HStem: 0 40<172 258 258 324> 408 36<183.5 235 235 320>
VStem: 32 430<11 202>
LayerCount: 2
Fore
SplineSet
462 202 m 1
 444 0 l 1
 64 0 l 2
 45 0 32 0 32 22 c 0
 32 31 32 33 41 44 c 2
 320 408 l 1
 235 408 l 2
 132 408 101 372 95 269 c 1
 48 269 l 1
 60 444 l 1
 427 444 l 2
 445 444 459 444 459 423 c 0
 459 414 457 412 449 401 c 2
 172 40 l 1
 258 40 l 2
 390 40 406 101 415 202 c 1
 462 202 l 1
EndSplineSet
Substitution2: "'smcp' Lowercase to Small Capitals lookup 17 subtable" Z.sc
EndChar

StartChar: braceleft
Encoding: 123 123 92
Width: 575
GlyphClass: 2
Flags: MW
HStem: -250 36 232 36 714 36
VStem: 232 111<-111 -103 -103 99 99 117.5 417 606>
CounterMasks: 1 e0
LayerCount: 2
Fore
SplineSet
496 -232 m 0
 496 -250 487 -250 465 -250 c 0
 398 -250 232 -239 232 -111 c 2
 232 99 l 2
 232 136 232 138 230 146 c 0
 221 182 185 227 95 232 c 0
 83 233 78 237 78 250 c 0
 78 267 86 267 100 268 c 0
 141 270 176 284 199 305 c 0
 232 334 232 355 232 417 c 2
 232 623 l 2
 233 700 323 750 465 750 c 0
 487 750 496 750 496 732 c 0
 496 715 488 715 474 714 c 0
 422 711 393 693 382 686 c 0
 343 657 343 628 343 606 c 2
 343 396 l 2
 343 351 343 282 224 250 c 1
 310 227 342 176 343 134 c 2
 343 -103 l 2
 343 -120 343 -128 346 -138 c 0
 358 -174 395 -209 479 -214 c 0
 491 -215 496 -219 496 -232 c 0
EndSplineSet
EndChar

StartChar: bar
Encoding: 124 124 93
Width: 319
GlyphClass: 2
Flags: MW
HStem: 730 20G
VStem: 129 61
LayerCount: 2
Fore
SplineSet
200 -206 m 2
 200 -231 190 -260 159 -260 c 0
 129 -260 119 -230 119 -206 c 2
 119 706 l 2
 119 731 129 760 160 760 c 0
 190 760 200 730 200 706 c 2
 200 -206 l 2
EndSplineSet
EndChar

StartChar: braceright
Encoding: 125 125 94
Width: 575
GlyphClass: 2
Flags: MW
HStem: -250 36 232 36 714 36
VStem: 232 111<-106 83 -123 104 -123 127 381.5 401 401 603 603 611>
CounterMasks: 1 e0
LayerCount: 2
Fore
SplineSet
496 250 m 0
 496 233 488 233 474 232 c 0
 421 229 388 207 377 196 c 0
 343 165 343 148 343 83 c 2
 343 -123 l 2
 342 -196 259 -250 109 -250 c 0
 88 -250 78 -250 78 -232 c 0
 78 -215 86 -215 100 -214 c 0
 154 -211 185 -191 195 -184 c 0
 232 -155 232 -129 232 -106 c 2
 232 104 l 2
 232 150 232 218 351 250 c 1
 264 274 233 324 232 366 c 2
 232 603 l 2
 232 620 232 628 229 638 c 0
 217 677 176 710 95 714 c 0
 83 715 78 719 78 732 c 0
 78 750 88 750 109 750 c 0
 191 750 343 734 343 611 c 2
 343 401 l 2
 343 362 343 360 346 352 c 0
 363 297 415 271 479 268 c 0
 491 267 496 263 496 250 c 0
EndSplineSet
EndChar

StartChar: asciitilde
Encoding: 126 126 95
Width: 556
GlyphClass: 2
Flags: MW
HStem: 193 43 211 43 246 43 264 43
LayerCount: 2
Fore
SplineSet
556.950195312 278 m 1x00
 541 267 501.849609375 237 485.900390625 226 c 0
 446.75 199 407.599609375 195 381.5 195 c 0
 361.200195312 195 333.650390625 197 266.950195312 212 c 0
 204.599609375 226 179.950195312 229 150.950195312 229 c 0
 135 229 74.5 223 31 189 c 1
 3.0498046875 220 l 1
 19 231 58.150390625 261 74.099609375 272 c 0
 113.25 299 152.400390625 303 178.5 303 c 0
 198.799804688 303 226.349609375 301 293.049804688 286 c 0
 355.400390625 272 380.049804688 269 409.049804688 269 c 0
 425 269 486.5 277 530 311 c 1
 556.950195312 278 l 1x00
EndSplineSet
EndChar

StartChar: exclamdown
Encoding: 161 161 97
Width: 350
GlyphClass: 3
Flags: MW
HStem: -205 21G<153.5 196.5> 254 20G<164.5 184.5> 344 156<153.5 196.5>
VStem: 96 156<-153.5 -116> 97 156<400.5 443.5> 98 156<-153.5 -121>
CounterMasks: 1 1c
LayerCount: 2
Fore
SplineSet
253 422 m 0xe8
 253 379 218 344 175 344 c 0
 132 344 97 379 97 422 c 0
 97 465 132 500 175 500 c 0
 218 500 253 465 253 422 c 0xe8
254 -134 m 0xe4
 254 -173 218 -205 175 -205 c 0
 132 -205 96 -173 96 -134 c 1xf0
 98 -121 l 1xe4
 150 249 l 2
 153 271 154 274 175 274 c 0
 194 274 197 271 200 252 c 2
 252 -116 l 2xf0
 254 -126 254 -128 254 -134 c 0xe4
EndSplineSet
Ligature2: "'liga' Standard Ligatures lookup 20 subtable" exclam quoteleft
Ligature2: "'liga' Standard Ligatures lookup 20 subtable" exclam grave
Ligature2: "'dlig' Discretionary Ligatures lookup 8 subtable" exclam quoteleft
Ligature2: "'dlig' Discretionary Ligatures lookup 8 subtable" exclam grave
EndChar

StartChar: cent
Encoding: 162 162 98
Width: 511
GlyphClass: 2
Flags: MW
HStem: -6 40 413 40<305 305> 452 40<257 257>
VStem: 257 48<-48 -5 -54.5 -5 41 409 409 409 453 492> 305 125 430 48<116 116>
CounterMasks: 1 1c
LayerCount: 2
Fore
SplineSet
478 117 m 0xdc
 478 110 450 3 305 -5 c 1
 305 -48 l 2
 305 -61 294 -72 281 -72 c 0
 268 -72 257 -61 257 -48 c 2
 257 -5 l 1
 120 6 38 98 38 222 c 0
 38 330 103 438 257 452 c 1
 257 492 l 2
 257 506 268 516 281 516 c 0
 294 516 305 506 305 492 c 2x3c
 305 453 l 1
 366 452 465 440 465 361 c 0
 465 319 433 298 402 298 c 0
 375 298 340 317 340 361 c 0
 340 370 342 391 360 407 c 1
 348 410 333 412 305 413 c 1
 305 34 l 1
 356 34 404 53 430 116 c 0
 435 129 436 131 454 131 c 0
 464 131 478 131 478 117 c 0xdc
257 41 m 1
 257 409 l 1
 166 385 166 277 166 227 c 0
 166 187 166 71 257 41 c 1
EndSplineSet
Substitution2: "'onum' Oldstyle Figures lookup 4 subtable" cent.oldstyle
Substitution2: "'aalt' Access All Alternates lookup 0 subtable" cent.oldstyle
EndChar

StartChar: sterling
Encoding: 163 163 99
Width: 869
GlyphClass: 2
Flags: MW
HStem: -11 48<169.5 220.5 169.5 239.5> 57 48 104 48<333 333> 120 48<210 255.5> 319 48<138 273 138 287 138 273 397 397 397 572> 638 48<464 536>
VStem: 63 48<62.5 99.5 62.5 115> 239 48 262 114<431 493 431 511.5> 333 114<104 104> 507 114 758 48<117.5 148>
LayerCount: 2
Fore
SplineSet
806 148 m 1x4870
 806 58 763 -31 683 -31 c 0
 594 -31 516 16 437 57 c 1
 404 -7 291 -11 188 -11 c 0
 125 -11 63 21 63 79 c 0
 63 151 155 168 239 168 c 0xd310
 272 168 304 162 334 152 c 1
 328 209 305 264 287 319 c 1x29
 138 319 l 1
 138 367 l 1
 273 367 l 1
 266 392 262 418 262 444 c 0
 262 579 373 686 507 686 c 0
 617 686 720 619 720 517 c 0
 720 482 691 454 657 454 c 0
 622 454 594 482 594 517 c 0
 594 550 618 576 650 580 c 1
 620 617 565 638 507 638 c 0
 421 638 376 542 376 444 c 0x0ca0
 376 418 380 392 385 367 c 1
 572 367 l 1
 572 319 l 1
 397 319 l 1
 417 248 445 179 447 105 c 1
 503 80 560 57 621 57 c 0
 690 57 758 87 758 148 c 1
 806 148 l 1x4870
333 104 m 1
 303 114 272 120 239 120 c 0
 181 120 111 120 111 79 c 0
 111 46 151 37 188 37 c 0
 253 37 319 56 333 104 c 1
EndSplineSet
EndChar

StartChar: currency
Encoding: 164 164 100
Width: 894
GlyphClass: 2
Flags: MW
HStem: 11 60<419.5 474.5> 429 60<419.5 474.5 419.5 496.5>
VStem: 208 60<222.5 277.5> 626 60<222.5 277.5 222.5 299.5>
LayerCount: 2
Fore
SplineSet
717 -20 m 0
 695 -42 674 -20 666 -12 c 2
 593 61 l 1
 553 30 502 11 447 11 c 0
 392 11 341 30 301 61 c 1
 228 -11 l 2
 219 -20 198 -42 176 -20 c 0
 154 2 175 22 185 32 c 2
 258 105 l 1
 227 145 208 195 208 250 c 0
 208 305 227 356 258 396 c 1
 184 470 l 2
 175 479 154 499 176 521 c 0
 198 543 219 521 227 513 c 2
 301 439 l 1
 342 470 392 489 447 489 c 0
 502 489 552 471 593 440 c 1
 665 512 l 2
 675 522 695 543 717 521 c 0
 739 499 717 478 708 469 c 2
 636 397 l 1
 667 356 686 305 686 250 c 0
 686 195 667 144 636 104 c 1
 709 31 l 2
 718 22 739 2 717 -20 c 0
626 250 m 0
 626 349 546 429 447 429 c 0
 348 429 268 349 268 250 c 0
 268 151 348 71 447 71 c 0
 546 71 626 151 626 250 c 0
EndSplineSet
EndChar

StartChar: yen
Encoding: 165 165 101
Width: 869
GlyphClass: 2
Flags: MW
HStem: 0 47<258 366> 141 48<174 366 174 366 502 696> 311 48<174 308 174 341 174 308 560 696> 636 47 639 47<19 117 19 19>
VStem: 366 136<47 141 47 141 189 274 47 274> 560 136<359 359>
LayerCount: 2
Fore
SplineSet
849 639 m 1x08
 828 639 l 2x08
 811 639 793 638 776 636 c 0x10
 754 633 746 633 737 619 c 2
 560 359 l 1
 696 359 l 1
 696 311 l 1
 527 311 l 1
 502 274 l 1
 502 189 l 1
 696 189 l 1
 696 141 l 1
 502 141 l 1
 502 47 l 1
 611 47 l 1
 611 0 l 1
 573 3 477 3 434 3 c 0
 392 3 294 3 258 0 c 1
 258 47 l 1
 366 47 l 1
 366 141 l 1
 174 141 l 1
 174 189 l 1
 366 189 l 1
 366 274 l 1
 341 311 l 1
 174 311 l 1
 174 359 l 1
 308 359 l 1
 117 639 l 1
 19 639 l 1
 19 686 l 1
 54 683 144 683 184 683 c 0xee
 229 683 326 683 367 686 c 1
 367 639 l 1
 282 639 l 1
 473 359 l 1
 497 359 l 1
 672 617 l 2
 677 623 677 625 679 629 c 1
 653 639 626 639 603 639 c 1
 603 686 l 1
 640 683 696 683 735 683 c 2x28
 849 686 l 1
 849 639 l 1x08
EndSplineSet
EndChar

StartChar: brokenbar
Encoding: 166 166 102
Width: 319
GlyphClass: 2
Flags: MW
HStem: 730 20G<144.5 175>
VStem: 129 61<-206 159 341 706>
LayerCount: 2
Fore
SplineSet
190 341 m 2
 190 327 175 317 160 317 c 0
 144 317 129 327 129 341 c 2
 129 706 l 2
 129 721 129 750 160 750 c 0
 190 750 190 720 190 706 c 2
 190 341 l 2
190 -206 m 2
 190 -221 190 -250 159 -250 c 0
 129 -250 129 -220 129 -206 c 2
 129 159 l 2
 129 173 144 183 160 183 c 0
 175 183 190 173 190 159 c 2
 190 -206 l 2
EndSplineSet
EndChar

StartChar: section
Encoding: 167 167 103
Width: 695
GlyphClass: 2
Flags: MW
HStem: -212 78<325.5 380.5 325.5 406> 634 78<315.5 370.5>
VStem: 63 110<274.5 316 274.5 329.5> 126 98<511 561 504.5 584.5> 151 126<-52 -19.5 -52 -19.5> 419 126<519.5 552> 472 98<-61 -11.5 -84.5 -4.5> 523 110<183.5 225.5>
LayerCount: 2
Fore
SplineSet
633 200 m 0x54
 633 140 592 94 536 71 c 1
 557 41 570 7 570 -30 c 0
 570 -139 464 -212 348 -212 c 0
 243 -212 151 -138 151 -37 c 0
 151 -2 179 26 214 26 c 0
 249 26 277 -2 277 -37 c 0x8a
 277 -67 256 -92 229 -98 c 1
 257 -122 303 -134 348 -134 c 0
 413 -134 472 -92 472 -30 c 0
 472 21 414 41 362 58 c 2
 242 96 l 2
 145 128 63 201 63 300 c 0xa2
 63 359 104 405 160 429 c 1
 139 458 126 492 126 530 c 0
 126 639 232 712 348 712 c 0
 453 712 545 638 545 537 c 0
 545 502 517 474 482 474 c 0
 447 474 419 502 419 537 c 0
 419 567 440 592 467 598 c 1
 439 622 393 634 348 634 c 0
 283 634 224 592 224 530 c 0
 224 479 282 459 334 442 c 2
 454 404 l 2
 551 372 633 299 633 200 c 0x54
523 200 m 0
 523 251 470 279 419 295 c 2
 299 333 l 2
 263 345 229 362 201 385 c 1
 182 366 173 332 173 300 c 0x24
 173 249 226 221 277 205 c 2
 397 167 l 2
 433 155 467 137 495 114 c 1
 514 134 523 167 523 200 c 0
EndSplineSet
EndChar

StartChar: dieresis
Encoding: 168 168 104
Width: 575
GlyphClass: 2
Flags: MW
HStem: 537 140<139.5 178.5 396.5 435.5>
VStem: 89 140<588 626.5> 346 140<588 626.5>
LayerCount: 2
Fore
SplineSet
229 607 m 0
 229 569 198 537 159 537 c 0
 120 537 89 569 89 607 c 0
 89 646 120 677 159 677 c 0
 198 677 229 646 229 607 c 0
486 607 m 0
 486 569 455 537 416 537 c 0
 377 537 346 569 346 607 c 0
 346 646 377 677 416 677 c 0
 455 677 486 646 486 607 c 0
EndSplineSet
EndChar

StartChar: copyright
Encoding: 169 169 105
Width: 686
GlyphClass: 2
Flags: MW
HStem: 0 60<265 421 265 438> 626 60<265 421>
VStem: 0 60<265 421 265 438> 626 60<265 421>
LayerCount: 2
Fore
SplineSet
686 343 m 0
 686 154 533 0 343 0 c 0
 154 0 0 154 0 343 c 0
 0 533 154 686 343 686 c 0
 533 686 686 533 686 343 c 0
626 343 m 0
 626 499 499 626 343 626 c 0
 187 626 60 499 60 343 c 0
 60 187 187 60 343 60 c 0
 499 60 626 187 626 343 c 0
477 292 m 0
 477 241 428 187 345 187 c 0
 236 187 169 253 169 343 c 0
 169 433 236 499 345 499 c 0
 375 499 405 491 432 469 c 1
 461 495 l 2
 465 498 466 499 470 499 c 0
 477 499 477 495 477 486 c 2
 477 392 l 2
 477 380 477 380 466 380 c 0
 455 380 455 380 454 389 c 0
 444 445 402 478 355 478 c 0
 332 478 294 473 265 444 c 0
 237 415 236 368 236 343 c 0
 236 303 241 270 262 245 c 0
 285 219 322 208 356 208 c 0
 400 208 454 235 457 294 c 0
 457 301 461 301 467 301 c 0
 474 301 477 301 477 292 c 0
EndSplineSet
EndChar

StartChar: ordfeminine
Encoding: 170 170 106
Width: 496
GlyphClass: 2
Flags: MW
HStem: 292 54<63.5 421 75 421> 376 25<180.5 212.5 180.5 222.5> 380 33<402 452.5> 544 22<300 300> 672 25<202 238.5>
VStem: 27 98<441 494 441 506.5> 60 105<618 643.5 618 663.5> 300 96<477 544 544 544 566 589>
LayerCount: 2
Fore
SplineSet
469 397 m 0xbb
 469 380 459 380 442 380 c 2
 402 380 l 2xbb
 314 380 314 412 314 434 c 1
 296 405 256 376 189 376 c 0
 131 376 27 388 27 456 c 0xdd
 27 557 240 563 300 566 c 1
 300 589 l 2
 300 643 270 672 207 672 c 0
 197 672 171 671 147 667 c 1
 150 666 165 654 165 633 c 0
 165 603 139 589 113 589 c 0
 90 589 60 602 60 633 c 0
 60 694 163 697 211 697 c 0
 336 697 396 652 396 589 c 2
 396 439 l 2
 396 423 396 414 447 413 c 0
 458 413 469 413 469 397 c 0xbb
455 319 m 0
 455 310 444 292 421 292 c 2
 75 292 l 2
 52 292 41 310 41 319 c 0
 41 328 52 346 75 346 c 2
 421 346 l 2
 444 346 455 328 455 319 c 0
300 477 m 2
 300 544 l 1
 258 542 125 532 125 456 c 0
 125 426 159 401 202 401 c 0xdd
 223 401 300 410 300 477 c 2
EndSplineSet
EndChar

StartChar: guillemotleft
Encoding: 171 171 107
Width: 639
GlyphClass: 2
Flags: MW
HStem: 0 21G<292 295 295 303 486 489 489 497> 452 20G<295 303 303 307 489 497 497 501>
LayerCount: 2
Fore
SplineSet
317 17 m 0
 317 6 311 0 303 0 c 2
 295 0 l 2
 289 0 284 4 282 9 c 0
 249 92 197 167 130 226 c 0
 127 228 125 232 125 236 c 0
 125 240 127 244 130 247 c 0
 197 306 249 380 282 463 c 0
 284 469 289 472 295 472 c 2
 303 472 l 2
 311 472 317 466 317 456 c 0
 302 379 276 305 241 236 c 1
 276 167 302 93 317 17 c 0
511 17 m 0
 511 6 505 0 497 0 c 2
 489 0 l 2
 483 0 478 4 476 9 c 0
 443 92 391 167 324 226 c 0
 321 228 319 232 319 236 c 0
 319 240 321 244 324 247 c 0
 391 306 443 380 476 463 c 0
 478 469 483 472 489 472 c 2
 497 472 l 2
 505 472 511 466 511 456 c 0
 496 379 470 305 435 236 c 1
 470 167 496 93 511 17 c 0
EndSplineSet
Substitution2: "'cv04' Character Variants 04 in Greek lookup 24-1" guillemotleft.gr
Substitution2: "'cv03' Character Variants 03 in Cyrillic lookup 23-1" guillemotleft.cyr
EndChar

StartChar: logicalnot
Encoding: 172 172 108
Width: 894
GlyphClass: 2
Flags: MW
HStem: 333 60
VStem: 769 60
LayerCount: 2
Fore
SplineSet
839 138 m 2
 839 111 816 98 799 98 c 0
 782 98 759 111 759 138 c 2
 759 323 l 1
 94 323 l 2
 67 323 54 346 54 363 c 0
 54 380 67 403 94 403 c 2
 809 403 l 2
 826 403 839 390 839 373 c 2
 839 138 l 2
EndSplineSet
EndChar

StartChar: uni00AD
Encoding: 173 173 109
Width: 383
GlyphClass: 2
Flags: MW
HStem: 174 97<13 318 13 318>
VStem: 13 305<174 271 174 271>
LayerCount: 2
Fore
SplineSet
318 174 m 1
 13 174 l 1
 13 271 l 1
 318 271 l 1
 318 174 l 1
EndSplineSet
EndChar

StartChar: registered
Encoding: 174 174 110
Width: 686
GlyphClass: 2
Flags: MW
HStem: 0 60<265 421 265 438> 195 60 293 60 626 60<265 421>
VStem: 0 60<265 421 265 438> 225 60<215 338 215 353 353 476> 285 60<353 496> 343 60 390 62<252.5 293> 476 62 626 60<265 421>
LayerCount: 2
Fore
SplineSet
686 343 m 0xd920
 686 154 533 0 343 0 c 0
 154 0 0 154 0 343 c 0
 0 533 154 686 343 686 c 0
 533 686 686 533 686 343 c 0xd920
626 343 m 0
 626 499 499 626 343 626 c 0
 187 626 60 499 60 343 c 0
 60 187 187 60 343 60 c 0
 499 60 626 187 626 343 c 0
538 236 m 0
 538 229 532 190 485 190 c 0
 467 190 440 192 421 201 c 0
 390 216 390 238 390 267 c 0
 390 299 390 307 376 323 c 0
 362 338 343 338 337 338 c 2
 285 338 l 1
 285 215 l 1
 333 215 l 1
 333 195 l 1
 317 196 274 196 255 196 c 0
 237 196 194 196 178 195 c 1
 178 215 l 1
 225 215 l 1
 225 476 l 1x64c0
 178 476 l 1
 178 496 l 1
 345 496 l 2x02
 428 496 476 459 476 415 c 0
 476 386 454 357 403 344 c 1x0140
 422 337 446 323 452 293 c 0x2080
 452 290 456 260 457 255 c 0
 459 237 463 206 489 206 c 0
 503 206 515 215 518 236 c 0
 518 242 518 246 528 246 c 0
 532 246 538 246 538 236 c 0
409 415 m 0
 409 441 408 476 337 476 c 2
 285 476 l 1
 285 353 l 1
 336 353 l 2
 409 353 409 390 409 415 c 0
EndSplineSet
EndChar

StartChar: macron
Encoding: 175 175 111
Width: 575
GlyphClass: 2
Flags: MW
HStem: 581 52<81 495 81 495>
LayerCount: 2
Fore
SplineSet
495 581 m 1
 81 581 l 1
 81 633 l 1
 495 633 l 1
 495 581 l 1
EndSplineSet
EndChar

StartChar: degree
Encoding: 176 176 112
Width: 431
GlyphClass: 2
Flags: MW
HStem: 367 60<188.5 243.5 188.5 260> 626 60<188.5 243.5>
VStem: 56 60<498.5 553.5 498.5 570.5> 315 60<498.5 553.5>
LayerCount: 2
Fore
SplineSet
375 526 m 0
 375 438 304 367 216 367 c 0
 127 367 56 438 56 526 c 0
 56 615 127 686 216 686 c 0
 304 686 375 615 375 526 c 0
315 526 m 0
 315 581 271 626 216 626 c 0
 161 626 116 581 116 526 c 0
 116 471 161 427 216 427 c 0
 271 427 315 471 315 526 c 0
EndSplineSet
EndChar

StartChar: plusminus
Encoding: 177 177 113
Width: 894
GlyphClass: 2
Flags: MW
HStem: 0 61<100.5 416 107 416 477 786> 316 61<100.5 416 107 416 477 786> 673 20G<431.5 462>
VStem: 416 61<61 316 61 316 377 651>
LayerCount: 2
Fore
SplineSet
829 30 m 0
 829 0 799 0 786 0 c 2
 107 0 l 2
 94 0 64 0 64 30 c 0
 64 61 93 61 107 61 c 2
 416 61 l 1
 416 316 l 1
 107 316 l 2
 94 316 64 316 64 346 c 0
 64 377 93 377 107 377 c 2
 416 377 l 1
 416 651 l 2
 416 664 416 693 447 693 c 0
 477 693 477 663 477 651 c 2
 477 377 l 1
 786 377 l 2
 800 377 829 377 829 346 c 0
 829 316 799 316 786 316 c 2
 477 316 l 1
 477 61 l 1
 786 61 l 2
 800 61 829 61 829 30 c 0
EndSplineSet
EndChar

StartChar: two.superior
Encoding: 178 178 114
Width: 413
GlyphClass: 2
Flags: W
LayerCount: 2
Fore
SplineSet
372 437 m 1
 350 304 l 1
 41 304 l 1
 41 315 l 2
 41 327 41 328 50 335 c 2
 195 458 l 2
 246 501 273 542 273 583 c 0
 273 628 240 669 178 669 c 0
 152 669 125 662 104 648 c 1
 114 646 145 636 145 605 c 0
 145 575 116 562 93 562 c 0
 76 562 41 571 41 606 c 0
 41 660 109 697 196 697 c 0
 297 697 372 653 372 584 c 0
 372 527 326 499 244 448 c 0
 212 428 174 403 140 379 c 1
 246 379 l 2
 258 379 312 379 320 383 c 0
 330 387 336 425 338 437 c 1
 372 437 l 1
EndSplineSet
EndChar

StartChar: three.superior
Encoding: 179 179 115
Width: 413
GlyphClass: 2
Flags: W
LayerCount: 2
Fore
SplineSet
379 412 m 0
 379 358 326 298 197 298 c 0
 104 298 35 334 35 388 c 0
 35 418 60 434 90 434 c 0
 122 434 145 416 145 389 c 0
 145 364 127 349 103 344 c 1
 138 326 175 323 194 323 c 0
 269 323 269 385 269 413 c 0
 269 443 269 502 190 502 c 2
 158 502 l 2
 145 502 138 502 138 513 c 0
 138 517 140 523 147 523 c 0
 150 524 152 524 181 526 c 0
 256 529 257 608 257 616 c 0
 257 635 255 674 195 674 c 0
 173 674 141 669 116 652 c 1
 119 652 158 645 158 610 c 0
 158 588 140 569 107 569 c 0
 80 569 58 585 58 611 c 0
 58 659 114 697 199 697 c 0
 301 697 356 660 356 614 c 0
 356 562 303 528 253 515 c 1
 358 497 379 445 379 412 c 0
EndSplineSet
EndChar

StartChar: acute
Encoding: 180 180 116
Width: 575
GlyphClass: 2
Flags: MW
HStem: 509 21G<245 245> 684 20G<362.5 390>
LayerCount: 2
Fore
SplineSet
434 642 m 0
 434 610 412 599 396 590 c 2
 245 509 l 1
 215 546 l 1
 327 678 l 2
 339 691 351 704 374 704 c 0
 406 704 434 673 434 642 c 0
EndSplineSet
EndChar

StartChar: uni00B5
Encoding: 181 181 117
Width: 639
GlyphClass: 2
Flags: MW
HStem: -194 47<45 114> -6 36<282 307> 395 55
VStem: 114 114<-147 -2 82.5 110 110 354 354 374.5> 432 114<166 354 354 374.5>
LayerCount: 2
Fore
SplineSet
615 0 m 1
 598 -1 575 -2 558 -2 c 0
 526 -2 470 -4 438 -6 c 1
 438 72 l 1
 391 -6 320 -6 294 -6 c 0
 270 -6 253 -6 228 -2 c 1
 228 -147 l 1
 297 -147 l 1
 297 -194 l 1
 263 -192 201 -191 171 -191 c 0
 140 -191 78 -192 45 -194 c 1
 45 -147 l 1
 114 -147 l 1
 114 354 l 2
 114 395 108 395 45 395 c 1
 45 442 l 1
 228 450 l 1
 228 110 l 2
 228 55 230 30 307 30 c 0
 382 30 432 82 432 166 c 2
 432 354 l 2
 432 395 426 395 363 395 c 1
 363 442 l 1
 546 450 l 1
 546 88 l 2
 546 47 552 47 615 47 c 1
 615 0 l 1
EndSplineSet
EndChar

StartChar: paragraph
Encoding: 182 182 118
Width: 703
GlyphClass: 2
Flags: MW
HStem: 633 61<433 513 433 433 574 625 574 574>
VStem: 372 61<-150 220 220 220> 513 61<-150 633>
LayerCount: 2
Fore
SplineSet
670 663 m 0
 670 633 640 633 625 633 c 2
 574 633 l 1
 574 -150 l 2
 574 -165 574 -194 543 -194 c 0
 513 -194 513 -164 513 -150 c 2
 513 633 l 1
 433 633 l 1
 433 -150 l 2
 433 -165 433 -194 402 -194 c 0
 372 -194 372 -164 372 -150 c 2
 372 220 l 1
 189 231 64 323 64 457 c 0
 64 596 199 694 351 694 c 2
 625 694 l 2
 641 694 670 694 670 663 c 0
EndSplineSet
EndChar

StartChar: periodcentered
Encoding: 183 183 119
Width: 894
GlyphClass: 2
Flags: MW
HStem: 265 156<425.5 468.5>
VStem: 369 156<321.5 364.5>
LayerCount: 2
Fore
SplineSet
525 343 m 0
 525 300 490 265 447 265 c 0
 404 265 369 300 369 343 c 0
 369 386 404 421 447 421 c 0
 490 421 525 386 525 343 c 0
EndSplineSet
EndChar

StartChar: cedilla
Encoding: 184 184 120
Width: 511
GlyphClass: 2
Flags: MW
HStem: -200 48<102 126 126 150 102 126> -81 48
VStem: 208 96<-33 5 -33 5 -33 5> 281 128<-134 -101>
LayerCount: 2
Fore
SplineSet
409 -116 m 0x60
 409 -200 268 -200 150 -200 c 2
 102 -200 l 1
 102 -152 l 1
 126 -152 l 2
 194 -152 281 -152 281 -116 c 0x90
 281 -86 243 -81 208 -81 c 1
 208 5 l 1
 304 5 l 1
 304 -33 l 1
 358 -33 409 -66 409 -116 c 0x60
EndSplineSet
EndChar

StartChar: one.superior
Encoding: 185 185 121
Width: 417
GlyphClass: 2
Flags: MW
HStem: 304 28<69 169> 631 28<61 76 61 76>
LayerCount: 2
Fore
SplineSet
356 304 m 1
 324 306 248 306 212 306 c 0
 177 306 101 306 69 304 c 1
 69 332 l 1
 169 332 l 1
 169 643 l 1
 127 631 87 631 76 631 c 2
 61 631 l 1
 61 659 l 1
 76 659 l 2
 91 659 165 659 220 693 c 0
 227 697 228 697 236 697 c 0
 255 697 255 691 255 678 c 2
 255 332 l 1
 356 332 l 1
 356 304 l 1
EndSplineSet
EndChar

StartChar: ordmasculine
Encoding: 186 186 122
Width: 482
GlyphClass: 2
Flags: MW
HStem: 292 54<63.5 421 75 421> 376 28<187.5 294.5 187.5 311.5> 672 25<220.5 258.5>
VStem: 27 107<509.5 556 509.5 579.5> 348 107<509.5 557>
LayerCount: 2
Fore
SplineSet
455 319 m 0
 455 310 444 292 421 292 c 2
 75 292 l 2
 52 292 41 310 41 319 c 0
 41 328 52 346 75 346 c 2
 421 346 l 2
 444 346 455 328 455 319 c 0
455 533 m 0
 455 447 382 376 241 376 c 0
 101 376 27 446 27 533 c 0
 27 626 103 697 241 697 c 0
 378 697 455 626 455 533 c 0
348 540 m 0
 348 574 348 612 330 636 c 0
 312 661 276 672 241 672 c 0
 200 672 165 657 149 631 c 0
 134 608 134 572 134 540 c 0
 134 479 134 404 241 404 c 0
 348 404 348 479 348 540 c 0
EndSplineSet
EndChar

StartChar: guillemotright
Encoding: 187 187 123
Width: 639
GlyphClass: 2
Flags: MW
HStem: 0 21G<138 142 142 150 332 336 336 344> 452 20G<142 150 150 153 336 344 344 347>
LayerCount: 2
Fore
SplineSet
509 247 m 0
 512 244 514 240 514 236 c 0
 514 232 512 228 509 226 c 0
 442 167 389 92 357 9 c 0
 355 4 350 0 344 0 c 2
 336 0 l 2
 328 0 322 6 322 17 c 0
 337 93 363 167 398 236 c 1
 363 305 337 379 322 456 c 0
 322 466 328 472 336 472 c 2
 344 472 l 2
 350 472 355 469 357 463 c 0
 389 380 442 306 509 247 c 0
315 247 m 0
 318 244 320 240 320 236 c 0
 320 232 318 228 315 226 c 0
 248 167 195 92 163 9 c 0
 161 4 156 0 150 0 c 2
 142 0 l 2
 134 0 128 6 128 17 c 0
 143 93 169 167 204 236 c 1
 169 305 143 379 128 456 c 0
 128 466 134 472 142 472 c 2
 150 472 l 2
 156 472 161 469 163 463 c 0
 195 380 248 306 315 247 c 0
EndSplineSet
Substitution2: "'cv04' Character Variants 04 in Greek lookup 24-1" guillemotright.gr
Substitution2: "'cv03' Character Variants 03 in Cyrillic lookup 23-1" guillemotright.cyr
EndChar

StartChar: onequarter
Encoding: 188 188 124
Width: 983
GlyphClass: 3
Flags: MW
HStem: 0 28<681 762> 94 28<592 762 554 554 852 921> 304 28<69 169> 631 28<61 76 61 76>
VStem: 681 81<0 94 28 94> 770 82<122 308 308 308>
LayerCount: 2
Fore
SplineSet
356 304 m 1
 324 306 248 306 212 306 c 0
 177 306 101 306 69 304 c 1
 69 332 l 1
 169 332 l 1
 169 643 l 1
 127 631 87 631 76 631 c 2
 61 631 l 1
 61 659 l 1
 76 659 l 2
 91 659 165 659 220 693 c 0
 227 697 228 697 236 697 c 0
 255 697 255 691 255 678 c 2
 255 332 l 1
 356 332 l 1
 356 304 l 1
921 0 m 1
 896 2 834 2 805 2 c 0
 774 2 708 2 681 0 c 1
 681 28 l 1
 762 28 l 1
 762 94 l 1
 554 94 l 1
 554 122 l 1
 806 384 l 2
 814 393 815 394 830 394 c 0
 850 394 852 391 852 374 c 2
 852 122 l 1
 921 122 l 1
 921 94 l 1
 852 94 l 1
 852 28 l 1
 921 28 l 1
 921 0 l 1
800 666 m 0
 800 660 798 654 795 649 c 2
 335 3 l 2
 329 -5 320 -10 310 -10 c 0
 294 -10 280 3 280 20 c 0
 280 26 282 32 286 37 c 2
 746 683 l 2
 751 691 760 696 770 696 c 0
 787 696 800 683 800 666 c 0
770 122 m 1
 770 308 l 1
 592 122 l 1
 770 122 l 1
EndSplineSet
Ligature2: "'frac' Diagonal Fractions lookup 3 subtable" one fraction four
Ligature2: "'frac' Diagonal Fractions lookup 3 subtable" one slash four
EndChar

StartChar: onehalf
Encoding: 189 189 125
Width: 983
GlyphClass: 3
Flags: MW
HStem: -10 30 3 28 302 30 304 28<69 169> 365 28<714 758> 631 28<61 76 61 76> 649 29 666 30
VStem: 642 109
LayerCount: 2
Fore
SplineSet
356 304 m 1x12
 324 306 248 306 212 306 c 0x12
 177 306 101 306 69 304 c 1
 69 332 l 1
 169 332 l 1
 169 643 l 1
 127 631 87 631 76 631 c 2
 61 631 l 1
 61 659 l 1
 76 659 l 2x1c
 91 659 165 659 220 693 c 0
 227 697 228 697 236 697 c 0
 255 697 255 691 255 678 c 2
 255 332 l 1
 356 332 l 1
 356 304 l 1x12
921 133 m 1
 899 0 l 1
 590 0 l 1
 590 11 l 2
 590 23 590 24 600 31 c 2
 744 154 l 2
 795 197 822 238 822 279 c 0
 822 324 789 365 727 365 c 0
 701 365 674 358 653 344 c 1
 664 341 694 332 694 301 c 0
 694 271 665 257 642 257 c 0
 625 257 590 266 590 302 c 0x6980
 590 356 658 393 745 393 c 0
 847 393 921 349 921 280 c 0
 921 223 875 194 793 144 c 1
 690 75 l 1
 795 75 l 2
 807 75 861 75 869 79 c 0
 879 83 885 121 888 133 c 1
 921 133 l 1
751 666 m 0
 751 660 749 654 746 649 c 2
 286 3 l 2x42
 280 -5 271 -10 261 -10 c 0
 245 -10 231 3 231 20 c 0x80
 231 26 233 32 237 37 c 2
 697 683 l 2
 702 691 711 696 721 696 c 0
 738 696 751 683 751 666 c 0
EndSplineSet
Ligature2: "'frac' Diagonal Fractions lookup 3 subtable" one fraction two
Ligature2: "'frac' Diagonal Fractions lookup 3 subtable" one slash two
EndChar

StartChar: threequarters
Encoding: 190 190 126
Width: 983
GlyphClass: 3
Flags: MW
HStem: -10 30 0 28<681 762> 94 28<592 762 554 554 852 921> 344 30 384 28 384 29 666 30
VStem: 69 81 69 110<376.5 402.5 376.5 403> 92 81 125 109 150 82 179 109 193 110<399 502> 225 110 228 82 280 110 303 110<399 428> 681 81<0 94 28 94> 770 82<122 308 308 308>
LayerCount: 2
Fore
SplineSet
413 412 m 0x0008
 413 358 361 298 232 298 c 0x7a1070
 139 298 69 334 69 388 c 0x01
 69 418 94 434 125 434 c 0x0020
 156 434 179 416 179 389 c 0
 179 364 161 349 138 344 c 1
 172 326 210 323 228 323 c 0x1081
 303 323 303 385 303 413 c 0x040040
 303 443 303 502 225 502 c 2x0002
 193 502 l 2
 180 502 173 502 173 513 c 0x0044
 173 517 174 523 181 523 c 0
 185 524 186 524 216 526 c 0
 291 529 292 608 292 616 c 0
 292 635 289 674 230 674 c 0
 207 674 176 669 150 652 c 1x01
 153 652 192 645 192 610 c 0
 192 588 174 569 142 569 c 0
 114 569 92 585 92 611 c 0x0040
 92 659 148 697 234 697 c 0
 336 697 390 660 390 614 c 0x002080
 390 562 338 528 288 515 c 1
 392 497 413 445 413 412 c 0x0008
921 0 m 1
 896 2 834 2 805 2 c 0
 774 2 708 2 681 0 c 1
 681 28 l 1
 762 28 l 1
 762 94 l 1
 554 94 l 1
 554 122 l 1
 806 384 l 2
 814 393 815 394 830 394 c 0
 850 394 852 391 852 374 c 2
 852 122 l 1
 921 122 l 1
 921 94 l 1
 852 94 l 1
 852 28 l 1
 921 28 l 1
 921 0 l 1
800 666 m 0
 800 660 798 654 795 649 c 2
 335 3 l 2x220210
 329 -5 320 -10 310 -10 c 0x8001
 294 -10 280 3 280 20 c 0x800080
 280 26 282 32 286 37 c 2
 746 683 l 2
 751 691 760 696 770 696 c 0
 787 696 800 683 800 666 c 0
770 122 m 1
 770 308 l 1
 592 122 l 1
 770 122 l 1
EndSplineSet
Ligature2: "'frac' Diagonal Fractions lookup 3 subtable" three fraction four
Ligature2: "'frac' Diagonal Fractions lookup 3 subtable" three slash four
EndChar

StartChar: questiondown
Encoding: 191 191 127
Width: 543
GlyphClass: 3
Flags: MW
HStem: -200 36<235.5 264 226 329> -134 125 254 20G<243.5 267> 344 156<233.5 276.5>
VStem: 64 128<-108.5 -52.5 -108.5 -40> 213 47 232 47<235 247 247 253.5 203.5 258> 353 125<-90.5 -51.5>
LayerCount: 2
Fore
SplineSet
333 422 m 0xdd
 333 379 298 344 255 344 c 0
 212 344 177 379 177 422 c 0
 177 465 212 500 255 500 c 0
 298 500 333 465 333 422 c 0xdd
478 -73 m 0
 478 -148 404 -200 254 -200 c 0
 217 -200 64 -200 64 -71 c 0
 64 -9 103 18 120 29 c 0
 232 107 232 194 232 235 c 2
 232 247 l 2
 232 269 232 274 255 274 c 0
 279 274 279 270 279 237 c 0xab
 279 170 272 94 213 6 c 0
 199 -15 192 -26 192 -79 c 0
 192 -138 192 -164 260 -164 c 0
 268 -164 348 -164 397 -132 c 1
 380 -126 353 -109 353 -72 c 0
 353 -31 384 -9 416 -9 c 0
 441 -9 478 -25 478 -73 c 0
EndSplineSet
Ligature2: "'liga' Standard Ligatures lookup 20 subtable" question quoteleft
Ligature2: "'liga' Standard Ligatures lookup 20 subtable" question grave
Ligature2: "'dlig' Discretionary Ligatures lookup 8 subtable" question quoteleft
Ligature2: "'dlig' Discretionary Ligatures lookup 8 subtable" question grave
EndChar

StartChar: Agrave
Encoding: 192 192 128
Width: 869
GlyphClass: 2
Flags: MW
HStem: 0 47<41 62> 193 47<275 503 275 523 255 503> 678 20G<420 442.5> 738 21G<488 488> 889 20G<318 345.5>
LayerCount: 2
Fore
SplineSet
827 0 m 1
 792 3 704 3 664 3 c 0
 621 3 526 3 488 0 c 1
 488 47 l 1
 583 47 l 1
 523 193 l 1
 255 193 l 1
 205 72 l 1
 201 60 l 1
 201 47 290 47 290 47 c 1
 290 0 l 1
 253 3 197 3 158 3 c 2
 41 0 l 1
 41 47 l 1
 62 47 l 2
 138 47 141 55 147 70 c 2
 395 672 l 2
 402 690 406 698 434 698 c 0
 451 698 463 698 474 672 c 2
 730 47 l 1
 827 47 l 1
 827 0 l 1
503 240 m 1
 389 518 l 1
 275 240 l 1
 503 240 l 1
512 780 m 1
 488 738 l 1
 326 792 l 2
 308 798 285 805 279 837 c 0
 271 874 299 909 337 909 c 0
 354 909 366 900 378 891 c 0
 409 867 482 804 512 780 c 1
EndSplineSet
Position2: "'cpsp' Capital Spacing lookup 0 subtable" dx=7 dy=0 dh=14 dv=0
EndChar

StartChar: Aacute
Encoding: 193 193 129
Width: 869
GlyphClass: 2
Flags: MW
HStem: 0 47<41 62> 193 47<275 503 275 523 255 503> 678 20G<420 442.5> 738 21G<381 381> 889 20G<523.5 551>
LayerCount: 2
Fore
SplineSet
827 0 m 1
 792 3 704 3 664 3 c 0
 621 3 526 3 488 0 c 1
 488 47 l 1
 583 47 l 1
 523 193 l 1
 255 193 l 1
 205 72 l 1
 201 60 l 1
 201 47 290 47 290 47 c 1
 290 0 l 1
 253 3 197 3 158 3 c 2
 41 0 l 1
 41 47 l 1
 62 47 l 2
 138 47 141 55 147 70 c 2
 395 672 l 2
 402 690 406 698 434 698 c 0
 451 698 463 698 474 672 c 2
 730 47 l 1
 827 47 l 1
 827 0 l 1
503 240 m 1
 389 518 l 1
 275 240 l 1
 503 240 l 1
590 837 m 0
 584 805 561 798 543 792 c 2
 381 738 l 1
 357 780 l 1
 387 804 460 867 491 891 c 0
 503 900 515 909 532 909 c 0
 570 909 598 874 590 837 c 0
EndSplineSet
Position2: "'cpsp' Capital Spacing lookup 0 subtable" dx=7 dy=0 dh=14 dv=0
EndChar

StartChar: Acircumflex
Encoding: 194 194 130
Width: 869
GlyphClass: 2
Flags: MW
HStem: 0 47<41 62> 193 47<275 503 275 523 255 503> 678 20G<420 442.5> 728 21G<274 274 594 594> 873 20G<435 435>
LayerCount: 2
Fore
SplineSet
827 0 m 1
 792 3 704 3 664 3 c 0
 621 3 526 3 488 0 c 1
 488 47 l 1
 583 47 l 1
 523 193 l 1
 255 193 l 1
 205 72 l 1
 201 60 l 1
 201 47 290 47 290 47 c 1
 290 0 l 1
 253 3 197 3 158 3 c 2
 41 0 l 1
 41 47 l 1
 62 47 l 2
 138 47 141 55 147 70 c 2
 395 672 l 2
 402 690 406 698 434 698 c 0
 451 698 463 698 474 672 c 2
 730 47 l 1
 827 47 l 1
 827 0 l 1
503 240 m 1
 389 518 l 1
 275 240 l 1
 503 240 l 1
610 752 m 1
 594 728 l 1
 434 786 l 1
 274 728 l 1
 260 752 l 1
 435 893 l 1
 610 752 l 1
EndSplineSet
Position2: "'cpsp' Capital Spacing lookup 0 subtable" dx=7 dy=0 dh=14 dv=0
EndChar

StartChar: Atilde
Encoding: 195 195 131
Width: 869
GlyphClass: 2
Flags: MW
HStem: 728 74<498 529.5> 745 74 762 74<340.5 372>
CounterMasks: 1 e0
LayerCount: 2
Fore
SplineSet
827 0 m 1x00
 792 3 704 3 664 3 c 0
 621 3 526 3 488 0 c 1
 488 47 l 1
 583 47 l 1
 523 193 l 1
 255 193 l 1
 205 72 l 1
 201 60 l 1
 201 47 290 47 290 47 c 1
 290 0 l 1
 253 3 197 3 158 3 c 2
 41 0 l 1
 41 47 l 1
 62 47 l 2
 138 47 141 55 147 70 c 2
 395 672 l 2
 402 690 406 698 434 698 c 0
 451 698 463 698 474 672 c 2
 730 47 l 1
 827 47 l 1
 827 0 l 1x00
503 240 m 1
 389 518 l 1
 275 240 l 1
 503 240 l 1
626 811 m 1
 615 800 588 770 577 759 c 0
 550 732 523 728 505 728 c 0x80
 491 728 472 730 426 745 c 0x40
 383 759 366 762 346 762 c 0x20
 335 762 300 762 270 728 c 1x80
 244 753 l 1
 255 764 282 794 293 805 c 0
 320 832 347 836 365 836 c 0x20
 379 836 398 834 444 819 c 0x40
 487 805 504 802 524 802 c 0x80
 535 802 570 802 600 836 c 1x20
 626 811 l 1
EndSplineSet
Position2: "'cpsp' Capital Spacing lookup 0 subtable" dx=7 dy=0 dh=14 dv=0
EndChar

StartChar: Adieresis
Encoding: 196 196 132
Width: 869
GlyphClass: 2
Flags: MW
HStem: 0 47<41 62> 193 47<275 503 275 523 255 503> 678 20G<420 442.5> 728 140<263.5 302.5 566.5 605.5>
VStem: 213 140<779 817.5> 516 140<779 817.5>
LayerCount: 2
Fore
SplineSet
827 0 m 1
 792 3 704 3 664 3 c 0
 621 3 526 3 488 0 c 1
 488 47 l 1
 583 47 l 1
 523 193 l 1
 255 193 l 1
 205 72 l 1
 201 60 l 1
 201 47 290 47 290 47 c 1
 290 0 l 1
 253 3 197 3 158 3 c 2
 41 0 l 1
 41 47 l 1
 62 47 l 2
 138 47 141 55 147 70 c 2
 395 672 l 2
 402 690 406 698 434 698 c 0
 451 698 463 698 474 672 c 2
 730 47 l 1
 827 47 l 1
 827 0 l 1
503 240 m 1
 389 518 l 1
 275 240 l 1
 503 240 l 1
353 798 m 0
 353 760 322 728 283 728 c 0
 244 728 213 760 213 798 c 0
 213 837 244 868 283 868 c 0
 322 868 353 837 353 798 c 0
656 798 m 0
 656 760 625 728 586 728 c 0
 547 728 516 760 516 798 c 0
 516 837 547 868 586 868 c 0
 625 868 656 837 656 798 c 0
EndSplineSet
Position2: "'cpsp' Capital Spacing lookup 0 subtable" dx=7 dy=0 dh=14 dv=0
EndChar

StartChar: Aring
Encoding: 197 197 133
Width: 869
GlyphClass: 2
Flags: MW
HStem: 0 47<41 62> 193 47<275 503 275 523 255 503> 698 41<415.5 454.5 415.5 480 420 442.5> 825 41<417 453>
VStem: 316 54<762.5 801> 500 54<763 801.5 763 802>
LayerCount: 2
Fore
SplineSet
827 0 m 1
 792 3 704 3 664 3 c 0
 621 3 526 3 488 0 c 1
 488 47 l 1
 583 47 l 1
 523 193 l 1
 255 193 l 1
 205 72 l 1
 201 60 l 1
 201 47 290 47 290 47 c 1
 290 0 l 1
 253 3 197 3 158 3 c 2
 41 0 l 1
 41 47 l 1
 62 47 l 2
 138 47 141 55 147 70 c 2
 395 672 l 2
 402 690 406 698 434 698 c 0
 451 698 463 698 474 672 c 2
 730 47 l 1
 827 47 l 1
 827 0 l 1
503 240 m 1
 389 518 l 1
 275 240 l 1
 503 240 l 1
500 782 m 0
 500 822 471 825 435 825 c 0
 399 825 370 822 370 782 c 0
 370 742 396 739 435 739 c 0
 474 739 500 742 500 782 c 0
554 781 m 0
 554 745 525 698 435 698 c 0
 348 698 316 742 316 783 c 0
 316 819 345 866 435 866 c 0
 522 866 554 822 554 781 c 0
EndSplineSet
Position2: "'cpsp' Capital Spacing lookup 0 subtable" dx=7 dy=0 dh=14 dv=0
EndChar

StartChar: AE
Encoding: 198 198 134
Width: 1042
GlyphClass: 2
Flags: MW
HStem: 0 47<41 62 401 482 614 742 742 830> 3 47 306 47<325 482 325 482 305 482 614 677> 639 47<310 388 310 946 445 445 445 482 614 614 614 738>
VStem: 482 132<47 306 47 306 353 639> 784 47<189 226 433.5 470> 831 132 930 47<445 445> 962 47<274 274>
LayerCount: 2
Fore
SplineSet
1009 274 m 1xbc80
 963 0 l 1
 401 0 l 1
 401 47 l 1
 482 47 l 1
 482 306 l 1
 305 306 l 1
 201 58 l 1
 228 47 264 47 290 47 c 1
 290 0 l 1
 253 3 197 3 159 3 c 2xaa
 41 0 l 1
 41 47 l 1
 62 47 l 2x80
 84 47 88 47 113 50 c 0
 139 53 140 54 148 71 c 2
 388 639 l 1
 310 639 l 1
 310 686 l 1
 946 686 l 1
 977 445 l 1
 930 445 l 1x51
 915 562 896 639 738 639 c 2
 614 639 l 1
 614 353 l 1
 677 353 l 2
 775 353 784 397 784 470 c 1
 831 470 l 1
 831 189 l 1
 784 189 l 1
 784 263 774 306 677 306 c 2
 614 306 l 1
 614 47 l 1
 742 47 l 2
 918 47 940 141 962 274 c 1
 1009 274 l 1xbc80
482 353 m 1x3880
 482 639 l 1
 445 639 l 1
 325 353 l 1
 482 353 l 1x3880
EndSplineSet
Position2: "'cpsp' Capital Spacing lookup 0 subtable" dx=7 dy=0 dh=14 dv=0
EndChar

StartChar: Ccedilla
Encoding: 199 199 135
Width: 831
GlyphClass: 2
Flags: MW
HStem: -11 47 650 47<461 500 341.5 541>
VStem: 64 153<298 371 298 445.5> 717 49
LayerCount: 2
Fore
SplineSet
766 227 m 0
 766 120 669 6 505 -9 c 1
 505 -33 l 1
 559 -33 610 -66 610 -116 c 0
 610 -200 469 -200 351 -200 c 2
 303 -200 l 1
 303 -152 l 1
 327 -152 l 2
 395 -152 482 -152 482 -116 c 0
 482 -86 444 -81 409 -81 c 1
 409 -8 l 1
 194 13 64 154 64 343 c 0
 64 548 217 697 466 697 c 0
 534 697 601 679 663 629 c 1
 729 688 l 2
 737 695 739 697 748 697 c 0
 766 697 766 688 766 669 c 2
 766 454 l 2
 766 428 765 426 739 426 c 0
 716 426 715 428 712 447 c 0
 690 574 595 650 487 650 c 0
 435 650 348 639 283 573 c 0
 220 507 217 399 217 343 c 0
 217 253 229 178 276 121 c 0
 328 60 412 36 490 36 c 0
 591 36 712 97 719 231 c 0
 720 248 729 248 742 248 c 0
 759 248 766 247 766 227 c 0
EndSplineSet
Position2: "'cpsp' Capital Spacing lookup 0 subtable" dx=7 dy=0 dh=14 dv=0
EndChar

StartChar: Egrave
Encoding: 200 200 136
Width: 756
GlyphClass: 2
Flags: MW
HStem: 0 47<39 147 289 441 441 533.5 39 147> 329 47<289 344 289 344> 633 47<39 147 39 660 289 289 289 441> 738 21G<431 431> 889 20G<261 288.5>
VStem: 147 142<47 329 376 633> 450 47<212 249 456 493> 644 47<439 439> 676 47<274 274>
LayerCount: 2
Fore
SplineSet
723 274 m 1xe680
 677 0 l 1
 39 0 l 1
 39 47 l 1
 147 47 l 1
 147 633 l 1
 39 633 l 1
 39 680 l 1
 660 680 l 1
 691 439 l 1
 644 439 l 1xa5
 628 560 602 633 441 633 c 2
 289 633 l 1
 289 376 l 1
 344 376 l 2
 441 376 450 419 450 493 c 1
 497 493 l 1
 497 212 l 1
 450 212 l 1
 450 286 440 329 344 329 c 2
 289 329 l 1
 289 47 l 1
 441 47 l 2
 626 47 654 136 676 274 c 1
 723 274 l 1xe680
455 780 m 1x18
 431 738 l 1
 269 792 l 2
 251 798 228 805 222 837 c 0
 214 874 242 909 280 909 c 0
 297 909 309 900 321 891 c 0
 352 867 425 804 455 780 c 1x18
EndSplineSet
Position2: "'cpsp' Capital Spacing lookup 0 subtable" dx=7 dy=0 dh=14 dv=0
EndChar

StartChar: Eacute
Encoding: 201 201 137
Width: 756
GlyphClass: 2
Flags: MW
HStem: 0 47<39 147 289 441 441 533.5 39 147> 329 47<289 344 289 344> 633 47<39 147 39 660 289 289 289 441> 738 21G<324 324> 889 20G<466.5 494>
VStem: 147 142<47 329 376 633> 450 47<212 249 456 493> 644 47<439 439> 676 47<274 274>
LayerCount: 2
Fore
SplineSet
723 274 m 1xe680
 677 0 l 1
 39 0 l 1
 39 47 l 1
 147 47 l 1
 147 633 l 1
 39 633 l 1
 39 680 l 1
 660 680 l 1
 691 439 l 1
 644 439 l 1xa5
 628 560 602 633 441 633 c 2
 289 633 l 1
 289 376 l 1
 344 376 l 2
 441 376 450 419 450 493 c 1
 497 493 l 1
 497 212 l 1
 450 212 l 1
 450 286 440 329 344 329 c 2
 289 329 l 1
 289 47 l 1
 441 47 l 2
 626 47 654 136 676 274 c 1
 723 274 l 1xe680
533 837 m 0x18
 527 805 504 798 486 792 c 2
 324 738 l 1
 300 780 l 1
 330 804 403 867 434 891 c 0
 446 900 458 909 475 909 c 0
 513 909 541 874 533 837 c 0x18
EndSplineSet
Position2: "'cpsp' Capital Spacing lookup 0 subtable" dx=7 dy=0 dh=14 dv=0
EndChar

StartChar: Ecircumflex
Encoding: 202 202 138
Width: 756
GlyphClass: 2
Flags: MW
HStem: 0 47<39 147 289 441 441 533.5 39 147> 329 47<289 344 289 344> 633 47<39 147 39 660 289 289 289 441> 728 21G<217 217 537 537> 873 20G<378 378>
VStem: 147 142<47 329 376 633> 450 47<212 249 456 493> 644 47<439 439> 676 47<274 274>
LayerCount: 2
Fore
SplineSet
723 274 m 1xe680
 677 0 l 1
 39 0 l 1
 39 47 l 1
 147 47 l 1
 147 633 l 1
 39 633 l 1
 39 680 l 1
 660 680 l 1
 691 439 l 1
 644 439 l 1xa5
 628 560 602 633 441 633 c 2
 289 633 l 1
 289 376 l 1
 344 376 l 2
 441 376 450 419 450 493 c 1
 497 493 l 1
 497 212 l 1
 450 212 l 1
 450 286 440 329 344 329 c 2
 289 329 l 1
 289 47 l 1
 441 47 l 2
 626 47 654 136 676 274 c 1
 723 274 l 1xe680
553 752 m 1x18
 537 728 l 1
 377 786 l 1
 217 728 l 1
 203 752 l 1
 378 893 l 1
 553 752 l 1x18
EndSplineSet
Position2: "'cpsp' Capital Spacing lookup 0 subtable" dx=7 dy=0 dh=14 dv=0
EndChar

StartChar: Edieresis
Encoding: 203 203 139
Width: 756
GlyphClass: 2
Flags: MW
HStem: 0 47<39 147 289 441 441 533.5 39 147> 329 47<289 344 289 344> 633 47<39 147 39 660 289 289 289 441> 728 140<206.5 245.5 509.5 548.5>
VStem: 147 142<47 329 376 633> 156 140<779 817.5> 450 47<212 249 456 493> 459 140<779 817.5> 644 47<439 439> 676 47<274 274>
LayerCount: 2
Fore
SplineSet
723 274 m 1xea40
 677 0 l 1
 39 0 l 1
 39 47 l 1
 147 47 l 1
 147 633 l 1
 39 633 l 1
 39 680 l 1
 660 680 l 1
 691 439 l 1
 644 439 l 1xa880
 628 560 602 633 441 633 c 2
 289 633 l 1
 289 376 l 1
 344 376 l 2
 441 376 450 419 450 493 c 1
 497 493 l 1
 497 212 l 1
 450 212 l 1
 450 286 440 329 344 329 c 2
 289 329 l 1
 289 47 l 1
 441 47 l 2
 626 47 654 136 676 274 c 1
 723 274 l 1xea40
296 798 m 0x15
 296 760 265 728 226 728 c 0
 187 728 156 760 156 798 c 0
 156 837 187 868 226 868 c 0
 265 868 296 837 296 798 c 0x15
599 798 m 0
 599 760 568 728 529 728 c 0
 490 728 459 760 459 798 c 0
 459 837 490 868 529 868 c 0
 568 868 599 837 599 798 c 0
EndSplineSet
Position2: "'cpsp' Capital Spacing lookup 0 subtable" dx=7 dy=0 dh=14 dv=0
EndChar

StartChar: Igrave
Encoding: 204 204 140
Width: 436
GlyphClass: 2
Flags: MW
HStem: 0 47<33 147> 639 47<33 147 33 33> 738 21G<272 272> 889 20G<102 129.5>
VStem: 147 142<47 639 47 639>
LayerCount: 2
Fore
SplineSet
403 0 m 1
 362 3 264 3 218 3 c 0
 172 3 74 3 33 0 c 1
 33 47 l 1
 147 47 l 1
 147 639 l 1
 33 639 l 1
 33 686 l 1
 74 683 172 683 218 683 c 0
 264 683 362 683 403 686 c 1
 403 639 l 1
 289 639 l 1
 289 47 l 1
 403 47 l 1
 403 0 l 1
296 780 m 1
 272 738 l 1
 110 792 l 2
 92 798 69 805 63 837 c 0
 55 874 83 909 121 909 c 0
 138 909 150 900 162 891 c 0
 193 867 266 804 296 780 c 1
EndSplineSet
Position2: "'cpsp' Capital Spacing lookup 0 subtable" dx=7 dy=0 dh=14 dv=0
EndChar

StartChar: Iacute
Encoding: 205 205 141
Width: 436
GlyphClass: 2
Flags: MW
HStem: 0 47<33 147> 639 47<33 147 33 33> 738 21G<165 165> 889 20G<307.5 335>
VStem: 147 142<47 639 47 639>
LayerCount: 2
Fore
SplineSet
403 0 m 1
 362 3 264 3 218 3 c 0
 172 3 74 3 33 0 c 1
 33 47 l 1
 147 47 l 1
 147 639 l 1
 33 639 l 1
 33 686 l 1
 74 683 172 683 218 683 c 0
 264 683 362 683 403 686 c 1
 403 639 l 1
 289 639 l 1
 289 47 l 1
 403 47 l 1
 403 0 l 1
374 837 m 0
 368 805 345 798 327 792 c 2
 165 738 l 1
 141 780 l 1
 171 804 244 867 275 891 c 0
 287 900 299 909 316 909 c 0
 354 909 382 874 374 837 c 0
EndSplineSet
Position2: "'cpsp' Capital Spacing lookup 0 subtable" dx=7 dy=0 dh=14 dv=0
EndChar

StartChar: Icircumflex
Encoding: 206 206 142
Width: 436
GlyphClass: 2
Flags: MW
HStem: 0 47<33 147> 639 47<33 147 33 33> 728 21G<58 58 378 378> 873 20G<219 219>
VStem: 147 142<47 639 47 639>
LayerCount: 2
Fore
SplineSet
403 0 m 1
 362 3 264 3 218 3 c 0
 172 3 74 3 33 0 c 1
 33 47 l 1
 147 47 l 1
 147 639 l 1
 33 639 l 1
 33 686 l 1
 74 683 172 683 218 683 c 0
 264 683 362 683 403 686 c 1
 403 639 l 1
 289 639 l 1
 289 47 l 1
 403 47 l 1
 403 0 l 1
394 752 m 1
 378 728 l 1
 218 786 l 1
 58 728 l 1
 44 752 l 1
 219 893 l 1
 394 752 l 1
EndSplineSet
Position2: "'cpsp' Capital Spacing lookup 0 subtable" dx=7 dy=0 dh=14 dv=0
EndChar

StartChar: Idieresis
Encoding: 207 207 143
Width: 436
GlyphClass: 2
Flags: MW
HStem: 0 47<33 147> 639 47<33 147 33 33> 728 140<47.5 86.5 350.5 389.5>
VStem: -3 140<779 817.5> 147 142<47 639 47 639> 300 140<779 817.5>
LayerCount: 2
Fore
SplineSet
403 0 m 1
 362 3 264 3 218 3 c 0
 172 3 74 3 33 0 c 1
 33 47 l 1
 147 47 l 1
 147 639 l 1
 33 639 l 1
 33 686 l 1
 74 683 172 683 218 683 c 0
 264 683 362 683 403 686 c 1
 403 639 l 1
 289 639 l 1
 289 47 l 1
 403 47 l 1
 403 0 l 1
137 798 m 0
 137 760 106 728 67 728 c 0
 28 728 -3 760 -3 798 c 0
 -3 837 28 868 67 868 c 0
 106 868 137 837 137 798 c 0
440 798 m 0
 440 760 409 728 370 728 c 0
 331 728 300 760 300 798 c 0
 300 837 331 868 370 868 c 0
 409 868 440 837 440 798 c 0
EndSplineSet
Position2: "'cpsp' Capital Spacing lookup 0 subtable" dx=7 dy=0 dh=14 dv=0
EndChar

StartChar: Eth
Encoding: 208 208 144
Width: 882
GlyphClass: 2
Flags: MW
HStem: 0 47<39 147 283 429 429 459.5 39 147> 319 48<39 147 39 147 283 441> 639 47<39 147 39 469 283 283 283 429>
VStem: 147 136<47 319 47 319 367 639> 670 147<283.5 384.5>
CounterMasks: 1 e0
LayerCount: 2
Fore
SplineSet
817 337 m 0
 817 123 667 0 470 0 c 2
 39 0 l 1
 39 47 l 1
 147 47 l 1
 147 319 l 1
 39 319 l 1
 39 367 l 1
 147 367 l 1
 147 639 l 1
 39 639 l 1
 39 686 l 1
 469 686 l 2
 667 686 817 557 817 337 c 0
670 338 m 0
 670 431 662 499 627 550 c 0
 578 620 495 639 429 639 c 2
 283 639 l 1
 283 367 l 1
 441 367 l 1
 441 319 l 1
 283 319 l 1
 283 47 l 1
 429 47 l 2
 490 47 578 63 626 131 c 0
 658 176 670 229 670 338 c 0
EndSplineSet
Position2: "'cpsp' Capital Spacing lookup 0 subtable" dx=7 dy=0 dh=14 dv=0
EndChar

StartChar: Ntilde
Encoding: 209 209 145
Width: 900
GlyphClass: 2
Flags: MW
HStem: 728 74<514 545.5> 745 74 762 74<356.5 388>
VStem: 147 53<76 599> 230 53 616 53 699 53<205 610>
CounterMasks: 1 e0
LayerCount: 2
Fore
SplineSet
860 639 m 1x1e
 835 639 l 2
 807 639 805 639 781 636 c 0
 753 633 752 632 752 610 c 2
 752 32 l 2
 752 9 752 0 725 0 c 0
 709 0 708 1 698 13 c 2
 200 599 l 1
 200 76 l 2
 200 54 201 53 230 50 c 0
 248 48 265 47 283 47 c 2
 308 47 l 1
 308 0 l 1
 267 3 215 3 173 3 c 0
 134 3 77 3 39 0 c 1
 39 47 l 1
 64 47 l 2
 92 47 94 47 118 50 c 0
 146 53 147 54 147 76 c 2
 147 639 l 1
 39 639 l 1
 39 686 l 1
 268 686 l 2
 289 686 290 685 301 673 c 2
 699 205 l 1
 699 610 l 2
 699 632 698 633 669 636 c 0
 651 638 634 639 616 639 c 2
 591 639 l 1
 591 686 l 1
 632 683 684 683 726 683 c 0
 765 683 822 683 860 686 c 1
 860 639 l 1x1e
642 811 m 1
 631 800 604 770 593 759 c 0
 566 732 539 728 521 728 c 0x9e
 507 728 488 730 442 745 c 0x5e
 399 759 382 762 362 762 c 0x3e
 351 762 316 762 286 728 c 1x9e
 260 753 l 1
 271 764 298 794 309 805 c 0
 336 832 363 836 381 836 c 0x3e
 395 836 414 834 460 819 c 0x5e
 503 805 520 802 540 802 c 0x9e
 551 802 586 802 616 836 c 1x3e
 642 811 l 1
EndSplineSet
Position2: "'cpsp' Capital Spacing lookup 0 subtable" dx=7 dy=0 dh=14 dv=0
EndChar

StartChar: Ograve
Encoding: 210 210 146
Width: 864
GlyphClass: 2
Flags: MW
HStem: -11 42<401.5 458 401.5 546> 657 40<401.5 463> 738 21G<485 485> 889 20G<315 342.5>
VStem: 64 153<311 386 311 444> 646 153<319 388>
LayerCount: 2
Fore
SplineSet
799 339 m 0
 799 134 661 -11 431 -11 c 0
 204 -11 64 132 64 339 c 0
 64 549 203 697 432 697 c 0
 654 697 799 555 799 339 c 0
646 354 m 0
 646 422 642 499 604 563 c 0
 564 629 495 657 431 657 c 0
 372 657 305 632 264 571 c 0
 220 503 217 418 217 354 c 0
 217 268 225 197 258 135 c 0
 299 59 372 31 431 31 c 0
 485 31 555 53 600 126 c 0
 642 195 646 284 646 354 c 0
509 780 m 1
 485 738 l 1
 323 792 l 2
 305 798 282 805 276 837 c 0
 268 874 296 909 334 909 c 0
 351 909 363 900 375 891 c 0
 406 867 479 804 509 780 c 1
EndSplineSet
Position2: "'cpsp' Capital Spacing lookup 0 subtable" dx=7 dy=0 dh=14 dv=0
EndChar

StartChar: Oacute
Encoding: 211 211 147
Width: 864
GlyphClass: 2
Flags: MW
HStem: -11 42<401.5 458 401.5 546> 657 40<401.5 463> 738 21G<378 378> 889 20G<520.5 548>
VStem: 64 153<311 386 311 444> 646 153<319 388>
LayerCount: 2
Fore
SplineSet
799 339 m 0
 799 134 661 -11 431 -11 c 0
 204 -11 64 132 64 339 c 0
 64 549 203 697 432 697 c 0
 654 697 799 555 799 339 c 0
646 354 m 0
 646 422 642 499 604 563 c 0
 564 629 495 657 431 657 c 0
 372 657 305 632 264 571 c 0
 220 503 217 418 217 354 c 0
 217 268 225 197 258 135 c 0
 299 59 372 31 431 31 c 0
 485 31 555 53 600 126 c 0
 642 195 646 284 646 354 c 0
587 837 m 0
 581 805 558 798 540 792 c 2
 378 738 l 1
 354 780 l 1
 384 804 457 867 488 891 c 0
 500 900 512 909 529 909 c 0
 567 909 595 874 587 837 c 0
EndSplineSet
Position2: "'cpsp' Capital Spacing lookup 0 subtable" dx=7 dy=0 dh=14 dv=0
EndChar

StartChar: Ocircumflex
Encoding: 212 212 148
Width: 864
GlyphClass: 2
Flags: MW
HStem: -11 42<401.5 458 401.5 546> 657 40<401.5 463> 728 21G<271 271 591 591> 873 20G<432 432>
VStem: 64 153<311 386 311 444> 646 153<319 388>
LayerCount: 2
Fore
SplineSet
799 339 m 0
 799 134 661 -11 431 -11 c 0
 204 -11 64 132 64 339 c 0
 64 549 203 697 432 697 c 0
 654 697 799 555 799 339 c 0
646 354 m 0
 646 422 642 499 604 563 c 0
 564 629 495 657 431 657 c 0
 372 657 305 632 264 571 c 0
 220 503 217 418 217 354 c 0
 217 268 225 197 258 135 c 0
 299 59 372 31 431 31 c 0
 485 31 555 53 600 126 c 0
 642 195 646 284 646 354 c 0
607 752 m 1
 591 728 l 1
 431 786 l 1
 271 728 l 1
 257 752 l 1
 432 893 l 1
 607 752 l 1
EndSplineSet
Position2: "'cpsp' Capital Spacing lookup 0 subtable" dx=7 dy=0 dh=14 dv=0
EndChar

StartChar: Otilde
Encoding: 213 213 149
Width: 864
GlyphClass: 2
Flags: MW
HStem: 728 74<495 526.5> 745 74 762 74<337.5 369>
VStem: 64 153<311 386 311 444> 646 153<319 388>
CounterMasks: 1 e0
LayerCount: 2
Fore
SplineSet
799 339 m 0x18
 799 134 661 -11 431 -11 c 0
 204 -11 64 132 64 339 c 0
 64 549 203 697 432 697 c 0
 654 697 799 555 799 339 c 0x18
646 354 m 0
 646 422 642 499 604 563 c 0
 564 629 495 657 431 657 c 0
 372 657 305 632 264 571 c 0
 220 503 217 418 217 354 c 0
 217 268 225 197 258 135 c 0
 299 59 372 31 431 31 c 0
 485 31 555 53 600 126 c 0
 642 195 646 284 646 354 c 0
623 811 m 1
 612 800 585 770 574 759 c 0
 547 732 520 728 502 728 c 0x98
 488 728 469 730 423 745 c 0x58
 380 759 363 762 343 762 c 0x38
 332 762 297 762 267 728 c 1x98
 241 753 l 1
 252 764 279 794 290 805 c 0
 317 832 344 836 362 836 c 0x38
 376 836 395 834 441 819 c 0x58
 484 805 501 802 521 802 c 0x98
 532 802 567 802 597 836 c 1x38
 623 811 l 1
EndSplineSet
Position2: "'cpsp' Capital Spacing lookup 0 subtable" dx=7 dy=0 dh=14 dv=0
EndChar

StartChar: Odieresis
Encoding: 214 214 150
Width: 864
GlyphClass: 2
Flags: MW
HStem: -11 42<401.5 458 401.5 546> 657 40<401.5 463> 728 140<260.5 299.5 563.5 602.5>
VStem: 64 153<311 386 311 444> 210 140<779 817.5> 513 140<779 817.5> 646 153<319 388>
LayerCount: 2
Fore
SplineSet
799 339 m 0xd2
 799 134 661 -11 431 -11 c 0
 204 -11 64 132 64 339 c 0
 64 549 203 697 432 697 c 0
 654 697 799 555 799 339 c 0xd2
646 354 m 0
 646 422 642 499 604 563 c 0
 564 629 495 657 431 657 c 0
 372 657 305 632 264 571 c 0
 220 503 217 418 217 354 c 0
 217 268 225 197 258 135 c 0
 299 59 372 31 431 31 c 0
 485 31 555 53 600 126 c 0
 642 195 646 284 646 354 c 0
350 798 m 0x2c
 350 760 319 728 280 728 c 0
 241 728 210 760 210 798 c 0
 210 837 241 868 280 868 c 0
 319 868 350 837 350 798 c 0x2c
653 798 m 0
 653 760 622 728 583 728 c 0
 544 728 513 760 513 798 c 0
 513 837 544 868 583 868 c 0
 622 868 653 837 653 798 c 0
EndSplineSet
Position2: "'cpsp' Capital Spacing lookup 0 subtable" dx=7 dy=0 dh=14 dv=0
EndChar

StartChar: multiply
Encoding: 215 215 151
Width: 894
GlyphClass: 2
Flags: W
LayerCount: 2
Fore
SplineSet
717 -20 m 0
 695 -42 674 -20 666 -12 c 2
 447 207 l 1
 228 -11 l 2
 219 -20 198 -42 176 -20 c 0
 154 2 175 22 185 32 c 2
 403 251 l 1
 184 470 l 2
 175 479 154 499 176 521 c 0
 198 543 219 521 227 513 c 2
 447 294 l 1
 665 512 l 2
 675 522 695 543 717 521 c 0
 739 499 717 478 708 469 c 2
 490 251 l 1
 709 31 l 2
 718 22 739 2 717 -20 c 0
EndSplineSet
EndChar

StartChar: Oslash
Encoding: 216 216 152
Width: 894
GlyphClass: 2
Flags: MW
HStem: -60 21G<187 187> -11 36<433.5 465 433.5 568> 661 36<408.5 476> 726 20G<706 706>
VStem: 64 142<308 378.5 308 438.5> 687 142<307.5 382>
LayerCount: 2
Fore
SplineSet
829 340 m 0
 829 138 690 -11 446 -11 c 0
 415 -11 334 -9 250 29 c 1
 187 -60 l 2
 185 -59 161 -41 155 -37 c 1
 215 49 l 1
 96 124 64 246 64 340 c 0
 64 537 196 697 447 697 c 0
 516 697 584 684 642 656 c 1
 706 746 l 1
 738 723 l 1
 677 636 l 1
 790 566 829 443 829 340 c 0
607 606 m 1
 563 643 506 661 446 661 c 0
 371 661 295 632 252 568 c 0
 208 500 206 417 206 340 c 0
 206 276 206 176 257 109 c 1
 607 606 l 1
687 340 m 0
 687 424 684 509 635 576 c 1
 286 79 l 1
 345 28 420 25 447 25 c 0
 483 25 578 31 638 112 c 0
 687 179 687 275 687 340 c 0
EndSplineSet
Position2: "'cpsp' Capital Spacing lookup 0 subtable" dx=7 dy=0 dh=14 dv=0
EndChar

StartChar: Ugrave
Encoding: 217 217 153
Width: 885
GlyphClass: 2
Flags: MW
HStem: -11 47<378.5 520.5 378.5 557> 636 47 639 47<39 147 39 39> 738 21G<523 523> 889 20G<353 380.5>
VStem: 147 142<231 639> 601 53 684 53<233 610>
LayerCount: 2
Fore
SplineSet
845 639 m 1x20
 820 639 l 2x20
 792 639 790 639 766 636 c 0x40
 738 633 737 632 737 610 c 2
 737 229 l 2
 737 106 652 -11 462 -11 c 0
 255 -11 147 98 147 231 c 2
 147 639 l 1
 39 639 l 1
 39 686 l 1
 77 683 175 683 218 683 c 0xa5
 261 683 359 683 397 686 c 1
 397 639 l 1
 289 639 l 1x24
 289 223 l 2
 289 167 291 36 466 36 c 0
 575 36 684 85 684 233 c 2
 684 610 l 2
 684 632 683 633 654 636 c 0xc7
 636 638 619 639 601 639 c 2
 576 639 l 1
 576 686 l 1
 617 683 669 683 711 683 c 0x22
 750 683 807 683 845 686 c 1
 845 639 l 1x20
547 780 m 1x18
 523 738 l 1
 361 792 l 2
 343 798 320 805 314 837 c 0
 306 874 334 909 372 909 c 0
 389 909 401 900 413 891 c 0
 444 867 517 804 547 780 c 1x18
EndSplineSet
Position2: "'cpsp' Capital Spacing lookup 0 subtable" dx=7 dy=0 dh=14 dv=0
EndChar

StartChar: Uacute
Encoding: 218 218 154
Width: 885
GlyphClass: 2
Flags: MW
HStem: -11 47<378.5 520.5 378.5 557> 636 47 639 47<39 147 39 39> 738 21G<416 416> 889 20G<558.5 586>
VStem: 147 142<231 639> 601 53 684 53<233 610>
LayerCount: 2
Fore
SplineSet
845 639 m 1x20
 820 639 l 2x20
 792 639 790 639 766 636 c 0x40
 738 633 737 632 737 610 c 2
 737 229 l 2
 737 106 652 -11 462 -11 c 0
 255 -11 147 98 147 231 c 2
 147 639 l 1
 39 639 l 1
 39 686 l 1
 77 683 175 683 218 683 c 0xa5
 261 683 359 683 397 686 c 1
 397 639 l 1
 289 639 l 1x24
 289 223 l 2
 289 167 291 36 466 36 c 0
 575 36 684 85 684 233 c 2
 684 610 l 2
 684 632 683 633 654 636 c 0xc7
 636 638 619 639 601 639 c 2
 576 639 l 1
 576 686 l 1
 617 683 669 683 711 683 c 0x22
 750 683 807 683 845 686 c 1
 845 639 l 1x20
625 837 m 0x18
 619 805 596 798 578 792 c 2
 416 738 l 1
 392 780 l 1
 422 804 495 867 526 891 c 0
 538 900 550 909 567 909 c 0
 605 909 633 874 625 837 c 0x18
EndSplineSet
Position2: "'cpsp' Capital Spacing lookup 0 subtable" dx=7 dy=0 dh=14 dv=0
EndChar

StartChar: Ucircumflex
Encoding: 219 219 155
Width: 885
GlyphClass: 2
Flags: MW
HStem: -11 47<378.5 520.5 378.5 557> 636 47 639 47<39 147 39 39> 728 21G<309 309 629 629> 873 20G<470 470>
VStem: 147 142<231 639> 601 53 684 53<233 610>
LayerCount: 2
Fore
SplineSet
845 639 m 1x20
 820 639 l 2x20
 792 639 790 639 766 636 c 0x40
 738 633 737 632 737 610 c 2
 737 229 l 2
 737 106 652 -11 462 -11 c 0
 255 -11 147 98 147 231 c 2
 147 639 l 1
 39 639 l 1
 39 686 l 1
 77 683 175 683 218 683 c 0xa5
 261 683 359 683 397 686 c 1
 397 639 l 1
 289 639 l 1x24
 289 223 l 2
 289 167 291 36 466 36 c 0
 575 36 684 85 684 233 c 2
 684 610 l 2
 684 632 683 633 654 636 c 0xc7
 636 638 619 639 601 639 c 2
 576 639 l 1
 576 686 l 1
 617 683 669 683 711 683 c 0x22
 750 683 807 683 845 686 c 1
 845 639 l 1x20
645 752 m 1x18
 629 728 l 1
 469 786 l 1
 309 728 l 1
 295 752 l 1
 470 893 l 1
 645 752 l 1x18
EndSplineSet
Position2: "'cpsp' Capital Spacing lookup 0 subtable" dx=7 dy=0 dh=14 dv=0
EndChar

StartChar: Udieresis
Encoding: 220 220 156
Width: 885
GlyphClass: 2
Flags: MW
HStem: -11 47<378.5 520.5 378.5 557> 636 47 639 47<39 147 39 39> 728 140<298.5 337.5 601.5 640.5>
VStem: 147 142<231 639> 248 140<779 817.5> 551 140<779 817.5> 601 53 684 53<233 610>
LayerCount: 2
Fore
SplineSet
845 639 m 1x20
 820 639 l 2x20
 792 639 790 639 766 636 c 0x40
 738 633 737 632 737 610 c 2
 737 229 l 2
 737 106 652 -11 462 -11 c 0
 255 -11 147 98 147 231 c 2
 147 639 l 1
 39 639 l 1
 39 686 l 1
 77 683 175 683 218 683 c 0xa880
 261 683 359 683 397 686 c 1
 397 639 l 1
 289 639 l 1x28
 289 223 l 2
 289 167 291 36 466 36 c 0
 575 36 684 85 684 233 c 2
 684 610 l 2
 684 632 683 633 654 636 c 0xc980
 636 638 619 639 601 639 c 2
 576 639 l 1
 576 686 l 1
 617 683 669 683 711 683 c 0x21
 750 683 807 683 845 686 c 1
 845 639 l 1x20
388 798 m 0x16
 388 760 357 728 318 728 c 0
 279 728 248 760 248 798 c 0
 248 837 279 868 318 868 c 0
 357 868 388 837 388 798 c 0x16
691 798 m 0
 691 760 660 728 621 728 c 0
 582 728 551 760 551 798 c 0
 551 837 582 868 621 868 c 0
 660 868 691 837 691 798 c 0
EndSplineSet
Position2: "'cpsp' Capital Spacing lookup 0 subtable" dx=7 dy=0 dh=14 dv=0
EndChar

StartChar: Yacute
Encoding: 221 221 157
Width: 869
GlyphClass: 2
Flags: MW
HStem: 0 47<258 366> 636 47 639 47<19 117 19 19> 738 21G<381 381> 889 20G<523.5 551>
VStem: 366 136<47 274 47 274>
LayerCount: 2
Fore
SplineSet
849 639 m 1x20
 828 639 l 2x20
 811 639 793 638 776 636 c 0x40
 754 633 746 633 737 619 c 2
 502 274 l 1
 502 47 l 1
 611 47 l 1
 611 0 l 1
 573 3 477 3 434 3 c 0
 392 3 294 3 258 0 c 1
 258 47 l 1
 366 47 l 1
 366 274 l 1
 117 639 l 1
 19 639 l 1
 19 686 l 1
 54 683 144 683 184 683 c 0xa4
 229 683 326 683 367 686 c 1
 367 639 l 1
 282 639 l 1
 485 342 l 1
 672 617 l 2
 677 623 677 625 679 629 c 1
 653 639 626 639 603 639 c 1
 603 686 l 1
 640 683 696 683 735 683 c 2
 849 686 l 1
 849 639 l 1x20
590 837 m 0x18
 584 805 561 798 543 792 c 2
 381 738 l 1
 357 780 l 1
 387 804 460 867 491 891 c 0
 503 900 515 909 532 909 c 0
 570 909 598 874 590 837 c 0x18
EndSplineSet
Position2: "'cpsp' Capital Spacing lookup 0 subtable" dx=7 dy=0 dh=14 dv=0
EndChar

StartChar: Thorn
Encoding: 222 222 158
Width: 724
GlyphClass: 2
Flags: MW
HStem: 0 47<39 147> 178 47<278 373 373 384.5 278 410 278 373> 517 47<278 393 278 421> 639 47<39 147 39 39>
VStem: 147 131<47 178 47 225 225 517 564 639> 510 147<336 376.5>
LayerCount: 2
Fore
SplineSet
657 371 m 0
 657 301 615 178 410 178 c 2
 278 178 l 1
 278 47 l 1
 386 47 l 1
 386 0 l 1
 212 3 l 1
 39 0 l 1
 39 47 l 1
 147 47 l 1
 147 639 l 1
 39 639 l 1
 39 686 l 1
 213 683 l 1
 386 686 l 1
 386 639 l 1
 278 639 l 1
 278 564 l 1
 421 564 l 2
 576 564 657 476 657 371 c 0
510 372 m 0
 510 381 510 433 484 472 c 0
 454 517 413 517 393 517 c 2
 278 517 l 1
 278 225 l 1
 373 225 l 2
 396 225 510 225 510 372 c 0
EndSplineSet
Position2: "'cpsp' Capital Spacing lookup 0 subtable" dx=7 dy=0 dh=14 dv=0
EndChar

StartChar: germandbls
Encoding: 223 223 159
Width: 597
GlyphClass: 2
Flags: MW
HStem: -6 36<343.5 398.5 343.5 410.5> 0 47<37 106> 397 47<37 106 37 106> 408 36 664 36<265 365>
VStem: 106 108<47 397 397 397 444 556 556 558 0 604.5> 214 108 247 100<73 96 73 100> 296 118 414 118<544.5 576> 446 118<162 205.5>
LayerCount: 2
Fore
SplineSet
564 180 m 0x1c40
 564 58 467 -6 354 -6 c 0
 284 -6 247 38 247 80 c 0
 247 120 280 131 297 131 c 0
 323 131 347 111 347 81 c 0x8120
 347 65 338 46 322 37 c 1x02
 324 36 336 30 351 30 c 0
 446 30 446 145 446 179 c 0
 446 232 445 397 296 408 c 0x90a0
 287 409 278 409 278 426 c 0
 278 443 287 443 300 444 c 0
 396 450 414 508 414 563 c 0
 414 589 414 664 316 664 c 0
 214 664 214 586 214 558 c 2
 214 0 l 1
 187 2 177 3 149 3 c 2
 37 0 l 1
 37 47 l 1
 106 47 l 1
 106 397 l 1
 37 397 l 1x6c40
 37 444 l 1
 106 444 l 1
 106 556 l 2
 106 653 195 700 317 700 c 0
 474 700 532 628 532 562 c 0
 532 527 515 459 409 423 c 1
 494 391 564 305 564 180 c 0x1c40
EndSplineSet
Substitution2: "'smcp' Lowercase to Small Capitals lookup 17 subtable" Germandbls.sc
EndChar

StartChar: agrave
Encoding: 224 224 160
Width: 559
GlyphClass: 2
Flags: MW
HStem: -6 36<209.5 247.5 209.5 260> 0 47<473 533.5> 234 30 417 36<236 279.5> 509 21G<322 322> 684 20G<177 204.5>
VStem: 27 117<87 163 87 180.5> 352 114<139 234 234 234 265 299>
LayerCount: 2
Fore
SplineSet
553 24 m 0x53
 553 0 541 0 521 0 c 2
 473 0 l 2x40
 369 0 369 46 369 77 c 1
 347 35 300 -6 220 -6 c 0x80
 151 -6 27 12 27 108 c 0
 27 253 281 262 352 265 c 1
 352 299 l 2
 352 375 317 417 242 417 c 0
 230 417 198 416 170 410 c 1
 173 408 192 391 192 361 c 0
 192 319 160 298 129 298 c 0
 102 298 67 317 67 361 c 0
 67 449 189 453 246 453 c 0
 395 453 466 388 466 299 c 2
 466 84 l 2
 466 61 466 48 527 47 c 0
 540 47 553 47 553 24 c 0x53
352 139 m 2
 352 234 l 1
 302 231 144 217 144 109 c 0
 144 65 184 30 235 30 c 0xa3
 260 30 352 43 352 139 c 2
352 546 m 1x0d
 322 509 l 1
 171 590 l 2
 155 599 133 610 133 642 c 0
 133 673 161 704 193 704 c 0
 216 704 228 691 240 678 c 2
 352 546 l 1x0d
EndSplineSet
Substitution2: "'smcp' Lowercase to Small Capitals lookup 17 subtable" Agrave.sc
EndChar

StartChar: aacute
Encoding: 225 225 161
Width: 559
GlyphClass: 2
Flags: MW
HStem: -6 36<209.5 247.5 209.5 260> 0 47<473 533.5> 234 30 417 36<236 279.5> 509 21G<237 237> 684 20G<354.5 382>
VStem: 27 117<87 163 87 180.5> 352 114<139 234 234 234 265 299>
LayerCount: 2
Fore
SplineSet
553 24 m 0x53
 553 0 541 0 521 0 c 2
 473 0 l 2x40
 369 0 369 46 369 77 c 1
 347 35 300 -6 220 -6 c 0x80
 151 -6 27 12 27 108 c 0
 27 253 281 262 352 265 c 1
 352 299 l 2
 352 375 317 417 242 417 c 0
 230 417 198 416 170 410 c 1
 173 408 192 391 192 361 c 0
 192 319 160 298 129 298 c 0
 102 298 67 317 67 361 c 0
 67 449 189 453 246 453 c 0
 395 453 466 388 466 299 c 2
 466 84 l 2
 466 61 466 48 527 47 c 0
 540 47 553 47 553 24 c 0x53
352 139 m 2
 352 234 l 1
 302 231 144 217 144 109 c 0
 144 65 184 30 235 30 c 0xa3
 260 30 352 43 352 139 c 2
426 642 m 0x0c
 426 610 404 599 388 590 c 2
 237 509 l 1
 207 546 l 1
 319 678 l 2
 331 691 343 704 366 704 c 0
 398 704 426 673 426 642 c 0x0c
EndSplineSet
Substitution2: "'smcp' Lowercase to Small Capitals lookup 17 subtable" Aacute.sc
EndChar

StartChar: acircumflex
Encoding: 226 226 162
Width: 559
GlyphClass: 2
Flags: MW
HStem: -6 36<209.5 247.5 209.5 260> 0 47<473 533.5> 234 30 417 36<236 279.5> 503 21G<121 121 437 437> 690 20G<280 280>
VStem: 27 117<87 163 87 180.5> 352 114<139 234 234 234 265 299>
LayerCount: 2
Fore
SplineSet
553 24 m 0x53
 553 0 541 0 521 0 c 2
 473 0 l 2x40
 369 0 369 46 369 77 c 1
 347 35 300 -6 220 -6 c 0x80
 151 -6 27 12 27 108 c 0
 27 253 281 262 352 265 c 1
 352 299 l 2
 352 375 317 417 242 417 c 0
 230 417 198 416 170 410 c 1
 173 408 192 391 192 361 c 0
 192 319 160 298 129 298 c 0
 102 298 67 317 67 361 c 0
 67 449 189 453 246 453 c 0
 395 453 466 388 466 299 c 2
 466 84 l 2
 466 61 466 48 527 47 c 0
 540 47 553 47 553 24 c 0x53
352 139 m 2
 352 234 l 1
 302 231 144 217 144 109 c 0
 144 65 184 30 235 30 c 0xa3
 260 30 352 43 352 139 c 2
457 525 m 1x0c
 437 503 l 1
 279 602 l 1
 121 503 l 1
 103 525 l 1
 280 710 l 1
 457 525 l 1x0c
EndSplineSet
Substitution2: "'smcp' Lowercase to Small Capitals lookup 17 subtable" Acircumflex.sc
EndChar

StartChar: atilde
Encoding: 227 227 163
Width: 559
GlyphClass: 2
Flags: MW
HStem: 553 74<343 374.5> 570 74 587 74<185.5 217>
VStem: 27 117<87 163 87 180.5> 352 114<139 234 234 234 265 299>
CounterMasks: 1 e0
LayerCount: 2
Fore
SplineSet
553 24 m 0x18
 553 0 541 0 521 0 c 2
 473 0 l 2
 369 0 369 46 369 77 c 1
 347 35 300 -6 220 -6 c 0
 151 -6 27 12 27 108 c 0
 27 253 281 262 352 265 c 1
 352 299 l 2
 352 375 317 417 242 417 c 0
 230 417 198 416 170 410 c 1
 173 408 192 391 192 361 c 0
 192 319 160 298 129 298 c 0
 102 298 67 317 67 361 c 0
 67 449 189 453 246 453 c 0
 395 453 466 388 466 299 c 2
 466 84 l 2
 466 61 466 48 527 47 c 0
 540 47 553 47 553 24 c 0x18
352 139 m 2
 352 234 l 1
 302 231 144 217 144 109 c 0
 144 65 184 30 235 30 c 0
 260 30 352 43 352 139 c 2
471 636 m 1
 460 625 433 595 422 584 c 0
 395 557 368 553 350 553 c 0x98
 336 553 317 555 271 570 c 0x58
 228 584 211 587 191 587 c 0x38
 180 587 145 587 115 553 c 1x98
 89 578 l 1
 100 589 127 619 138 630 c 0
 165 657 192 661 210 661 c 0x38
 224 661 243 659 289 644 c 0x58
 332 630 349 627 369 627 c 0x98
 380 627 415 627 445 661 c 1x38
 471 636 l 1
EndSplineSet
Substitution2: "'smcp' Lowercase to Small Capitals lookup 17 subtable" Atilde.sc
EndChar

StartChar: adieresis
Encoding: 228 228 164
Width: 559
GlyphClass: 2
Flags: MW
HStem: -6 36<209.5 247.5 209.5 260> 0 47<473 533.5> 234 30 417 36<236 279.5> 537 140<131.5 170.5 388.5 427.5>
VStem: 27 117<87 163 87 180.5> 81 140<588 626.5> 338 140<588 626.5> 352 114<139 234 234 234 265 299>
LayerCount: 2
Fore
SplineSet
553 24 m 0x5480
 553 0 541 0 521 0 c 2
 473 0 l 2x40
 369 0 369 46 369 77 c 1
 347 35 300 -6 220 -6 c 0x80
 151 -6 27 12 27 108 c 0
 27 253 281 262 352 265 c 1
 352 299 l 2
 352 375 317 417 242 417 c 0
 230 417 198 416 170 410 c 1
 173 408 192 391 192 361 c 0
 192 319 160 298 129 298 c 0
 102 298 67 317 67 361 c 0
 67 449 189 453 246 453 c 0
 395 453 466 388 466 299 c 2
 466 84 l 2
 466 61 466 48 527 47 c 0
 540 47 553 47 553 24 c 0x5480
352 139 m 2
 352 234 l 1
 302 231 144 217 144 109 c 0
 144 65 184 30 235 30 c 0xa480
 260 30 352 43 352 139 c 2
221 607 m 0x0b
 221 569 190 537 151 537 c 0
 112 537 81 569 81 607 c 0
 81 646 112 677 151 677 c 0
 190 677 221 646 221 607 c 0x0b
478 607 m 0
 478 569 447 537 408 537 c 0
 369 537 338 569 338 607 c 0
 338 646 369 677 408 677 c 0
 447 677 478 646 478 607 c 0
EndSplineSet
Substitution2: "'smcp' Lowercase to Small Capitals lookup 17 subtable" Adieresis.sc
EndChar

StartChar: aring
Encoding: 229 229 165
Width: 559
GlyphClass: 2
Flags: MW
HStem: -6 36<209.5 247.5 209.5 260> 0 47<473 533.5> 234 30 417 36<236 279.5> 521 41<260.5 299.5 260.5 325> 648 41<262 298>
VStem: 27 117<87 163 87 180.5> 161 54<585.5 624> 345 54<586 624.5 586 625> 352 114<139 234 234 234 265 299>
LayerCount: 2
Fore
SplineSet
553 24 m 0x5240
 553 0 541 0 521 0 c 2
 473 0 l 2x40
 369 0 369 46 369 77 c 1
 347 35 300 -6 220 -6 c 0x80
 151 -6 27 12 27 108 c 0
 27 253 281 262 352 265 c 1
 352 299 l 2
 352 375 317 417 242 417 c 0
 230 417 198 416 170 410 c 1
 173 408 192 391 192 361 c 0
 192 319 160 298 129 298 c 0
 102 298 67 317 67 361 c 0
 67 449 189 453 246 453 c 0
 395 453 466 388 466 299 c 2
 466 84 l 2
 466 61 466 48 527 47 c 0
 540 47 553 47 553 24 c 0x5240
352 139 m 2
 352 234 l 1
 302 231 144 217 144 109 c 0
 144 65 184 30 235 30 c 0xa240
 260 30 352 43 352 139 c 2
345 605 m 0x0d80
 345 645 316 648 280 648 c 0
 244 648 215 645 215 605 c 0
 215 565 241 562 280 562 c 0
 319 562 345 565 345 605 c 0x0d80
399 604 m 0
 399 568 370 521 280 521 c 0
 193 521 161 565 161 606 c 0
 161 642 190 689 280 689 c 0
 367 689 399 645 399 604 c 0
EndSplineSet
Substitution2: "'smcp' Lowercase to Small Capitals lookup 17 subtable" Aring.sc
EndChar

StartChar: ae
Encoding: 230 230 166
Width: 831
GlyphClass: 2
Flags: MW
HStem: -6 36<215 242.5> 218 33<472 703 472 766 472 703> 361 36 366 33 417 36<242 286 592.5 639>
VStem: 37 117<84 130.5> 134 114 153 95 358 114<218 251 218 299 218 336> 377 95<99 218> 703 95<251 251>
LayerCount: 2
Fore
SplineSet
798 117 m 0x6860
 798 97 753 -6 613 -6 c 0
 545 -6 476 14 426 59 c 1
 371 -5 257 -6 228 -6 c 0
 144 -6 37 14 37 103 c 0xdc60
 37 158 85 199 153 220 c 0x01
 218 240 248 242 358 248 c 1
 358 299 l 2
 358 373 324 417 248 417 c 0
 236 417 204 416 175 410 c 1
 178 408 197 391 197 361 c 0
 197 319 165 298 134 298 c 0
 107 298 72 317 72 361 c 0x2a80
 72 449 193 453 252 453 c 0
 330 453 381 438 426 403 c 0
 430 400 432 399 432 399 c 1x18
 432 399 435 399 440 404 c 0
 489 440 543 453 599 453 c 0
 679 453 725 423 748 397 c 0
 792 347 798 280 798 246 c 0
 798 219 790 218 766 218 c 2
 472 218 l 1
 474 168 478 34 621 34 c 0
 669 34 726 57 749 116 c 0
 755 130 757 135 774 135 c 0
 779 135 798 135 798 117 c 0x6860
703 251 m 1
 700 305 695 417 598 417 c 0
 587 417 534 415 501 366 c 0
 493 355 474 327 472 251 c 1
 703 251 l 1
377 124 m 0
 377 129 377 130 374 138 c 0
 365 162 359 187 358 214 c 1x0080
 251 212 154 176 154 103 c 0
 154 65 188 30 242 30 c 0
 315 30 377 74 377 124 c 0
EndSplineSet
Substitution2: "'smcp' Lowercase to Small Capitals lookup 17 subtable" AE.sc
EndChar

StartChar: ccedilla
Encoding: 231 231 167
Width: 511
GlyphClass: 2
Flags: MW
HStem: -6 40 413 40<230.5 312.5>
VStem: 38 128<204 255 204 280> 166 125 305 125 307 128<-134 -101> 329 125 340 125<340 365.5>
LayerCount: 2
Fore
SplineSet
478 117 m 0x02
 478 111 453 15 329 -3 c 1
 329 -33 l 1x02
 384 -33 435 -66 435 -116 c 0
 435 -200 293 -200 176 -200 c 2
 128 -200 l 1
 128 -152 l 1
 152 -152 l 2
 220 -152 307 -152 307 -116 c 0
 307 -86 268 -81 233 -81 c 1
 233 -2 l 1
 111 17 38 105 38 222 c 0x24
 38 338 112 453 291 453 c 0
 349 453 465 447 465 361 c 0
 465 319 433 298 402 298 c 0
 375 298 340 317 340 361 c 0x51
 340 370 342 391 360 407 c 1
 347 410 330 413 295 413 c 0
 166 413 166 283 166 227 c 0
 166 181 166 34 305 34 c 0
 356 34 404 53 430 116 c 0xe8
 435 129 436 131 454 131 c 0
 464 131 478 131 478 117 c 0x02
EndSplineSet
Substitution2: "'smcp' Lowercase to Small Capitals lookup 17 subtable" Ccedilla.sc
EndChar

StartChar: egrave
Encoding: 232 232 168
Width: 527
GlyphClass: 2
Flags: MW
HStem: -6 40<231.5 334.5 231.5 372> 218 33<160 399 160 462 160 399> 417 36<264.5 313.5 199 337.5> 509 21G<306 306> 684 20G<161 188.5>
VStem: 32 128<192.5 218 192.5 251 192.5 287.5> 184 95 399 95<251 251>
LayerCount: 2
Fore
SplineSet
494 117 m 0
 494 100 451 -6 293 -6 c 0
 132 -6 32 91 32 225 c 0
 32 350 119 453 279 453 c 0
 348 453 401 435 438 399 c 0
 488 349 494 276 494 245 c 0
 494 218 484 218 462 218 c 2
 160 218 l 1
 160 167 161 34 302 34 c 0
 367 34 424 66 445 114 c 0
 451 130 453 135 470 135 c 0
 475 135 494 135 494 117 c 0
399 251 m 1
 398 286 396 417 279 417 c 0
 250 417 210 405 184 365 c 0
 163 332 162 290 160 251 c 1
 399 251 l 1
336 546 m 1
 306 509 l 1
 155 590 l 2
 139 599 117 610 117 642 c 0
 117 673 145 704 177 704 c 0
 200 704 212 691 224 678 c 2
 336 546 l 1
EndSplineSet
Substitution2: "'smcp' Lowercase to Small Capitals lookup 17 subtable" Egrave.sc
EndChar

StartChar: eacute
Encoding: 233 233 169
Width: 527
GlyphClass: 2
Flags: MW
HStem: -6 40<231.5 334.5 231.5 372> 218 33<160 399 160 462 160 399> 417 36<264.5 313.5 199 337.5> 509 21G<221 221> 684 20G<338.5 366>
VStem: 32 128<192.5 218 192.5 251 192.5 287.5> 184 95 399 95<251 251>
LayerCount: 2
Fore
SplineSet
494 117 m 0
 494 100 451 -6 293 -6 c 0
 132 -6 32 91 32 225 c 0
 32 350 119 453 279 453 c 0
 348 453 401 435 438 399 c 0
 488 349 494 276 494 245 c 0
 494 218 484 218 462 218 c 2
 160 218 l 1
 160 167 161 34 302 34 c 0
 367 34 424 66 445 114 c 0
 451 130 453 135 470 135 c 0
 475 135 494 135 494 117 c 0
399 251 m 1
 398 286 396 417 279 417 c 0
 250 417 210 405 184 365 c 0
 163 332 162 290 160 251 c 1
 399 251 l 1
410 642 m 0
 410 610 388 599 372 590 c 2
 221 509 l 1
 191 546 l 1
 303 678 l 2
 315 691 327 704 350 704 c 0
 382 704 410 673 410 642 c 0
EndSplineSet
Substitution2: "'smcp' Lowercase to Small Capitals lookup 17 subtable" Eacute.sc
EndChar

StartChar: ecircumflex
Encoding: 234 234 170
Width: 527
GlyphClass: 2
Flags: MW
HStem: -6 40<231.5 334.5 231.5 372> 218 33<160 399 160 462 160 399> 417 36<264.5 313.5 199 337.5> 503 21G<105 105 421 421> 690 20G<264 264>
VStem: 32 128<192.5 218 192.5 251 192.5 287.5> 184 95 399 95<251 251>
LayerCount: 2
Fore
SplineSet
494 117 m 0
 494 100 451 -6 293 -6 c 0
 132 -6 32 91 32 225 c 0
 32 350 119 453 279 453 c 0
 348 453 401 435 438 399 c 0
 488 349 494 276 494 245 c 0
 494 218 484 218 462 218 c 2
 160 218 l 1
 160 167 161 34 302 34 c 0
 367 34 424 66 445 114 c 0
 451 130 453 135 470 135 c 0
 475 135 494 135 494 117 c 0
399 251 m 1
 398 286 396 417 279 417 c 0
 250 417 210 405 184 365 c 0
 163 332 162 290 160 251 c 1
 399 251 l 1
441 525 m 1
 421 503 l 1
 263 602 l 1
 105 503 l 1
 87 525 l 1
 264 710 l 1
 441 525 l 1
EndSplineSet
Substitution2: "'smcp' Lowercase to Small Capitals lookup 17 subtable" Ecircumflex.sc
EndChar

StartChar: edieresis
Encoding: 235 235 171
Width: 527
GlyphClass: 2
Flags: MW
HStem: -6 40<231.5 334.5 231.5 372> 218 33<160 399 160 462 160 399> 417 36<264.5 313.5 199 337.5> 537 140<115.5 154.5 372.5 411.5>
VStem: 32 128<192.5 218 192.5 251 192.5 287.5> 65 140<588 626.5> 184 95 322 140<588 626.5> 399 95<251 251>
LayerCount: 2
Fore
SplineSet
494 117 m 0xc9
 494 100 451 -6 293 -6 c 0
 132 -6 32 91 32 225 c 0
 32 350 119 453 279 453 c 0
 348 453 401 435 438 399 c 0
 488 349 494 276 494 245 c 0xea80
 494 218 484 218 462 218 c 2
 160 218 l 1
 160 167 161 34 302 34 c 0
 367 34 424 66 445 114 c 0
 451 130 453 135 470 135 c 0
 475 135 494 135 494 117 c 0xc9
399 251 m 1
 398 286 396 417 279 417 c 0
 250 417 210 405 184 365 c 0
 163 332 162 290 160 251 c 1
 399 251 l 1
205 607 m 0x15
 205 569 174 537 135 537 c 0
 96 537 65 569 65 607 c 0
 65 646 96 677 135 677 c 0
 174 677 205 646 205 607 c 0x15
462 607 m 0
 462 569 431 537 392 537 c 0
 353 537 322 569 322 607 c 0
 322 646 353 677 392 677 c 0
 431 677 462 646 462 607 c 0
EndSplineSet
Substitution2: "'smcp' Lowercase to Small Capitals lookup 17 subtable" Edieresis.sc
EndChar

StartChar: igrave
Encoding: 236 236 172
Width: 319
GlyphClass: 2
Flags: MW
HStem: 0 47<47 116> 395 47<50 79.5> 395 55 509 21G<202 202> 684 20G<57 84.5>
VStem: 116 108<47 356 356 375.5>
LayerCount: 2
Fore
SplineSet
286 0 m 1xa4
 169 3 l 1xa4
 47 0 l 1
 47 47 l 1
 116 47 l 1
 116 356 l 2
 116 395 109 395 50 395 c 1
 50 442 l 1xc4
 224 450 l 1
 224 47 l 1
 286 47 l 1
 286 0 l 1xa4
232 546 m 1x18
 202 509 l 1
 51 590 l 2
 35 599 13 610 13 642 c 0
 13 673 41 704 73 704 c 0
 96 704 108 691 120 678 c 2
 232 546 l 1x18
EndSplineSet
Substitution2: "'smcp' Lowercase to Small Capitals lookup 17 subtable" Igrave.sc
EndChar

StartChar: iacute
Encoding: 237 237 173
Width: 319
GlyphClass: 2
Flags: MW
HStem: 0 47<47 116> 395 47<50 79.5> 395 55 509 21G<117 117> 684 20G<234.5 262>
VStem: 116 108<47 356 356 375.5>
LayerCount: 2
Fore
SplineSet
286 0 m 1xa4
 169 3 l 1xa4
 47 0 l 1
 47 47 l 1
 116 47 l 1
 116 356 l 2
 116 395 109 395 50 395 c 1
 50 442 l 1xc4
 224 450 l 1
 224 47 l 1
 286 47 l 1
 286 0 l 1xa4
306 642 m 0x18
 306 610 284 599 268 590 c 2
 117 509 l 1
 87 546 l 1
 199 678 l 2
 211 691 223 704 246 704 c 0
 278 704 306 673 306 642 c 0x18
EndSplineSet
Substitution2: "'smcp' Lowercase to Small Capitals lookup 17 subtable" Iacute.sc
EndChar

StartChar: icircumflex
Encoding: 238 238 174
Width: 319
GlyphClass: 2
Flags: MW
HStem: 0 47<47 116> 395 47<50 79.5> 395 55 503 21G<1 1 317 317> 690 20G<160 160>
VStem: 116 108<47 356 356 375.5>
LayerCount: 2
Fore
SplineSet
286 0 m 1xa4
 169 3 l 1xa4
 47 0 l 1
 47 47 l 1
 116 47 l 1
 116 356 l 2
 116 395 109 395 50 395 c 1
 50 442 l 1xc4
 224 450 l 1
 224 47 l 1
 286 47 l 1
 286 0 l 1xa4
337 525 m 1x18
 317 503 l 1
 159 602 l 1
 1 503 l 1
 -17 525 l 1
 160 710 l 1
 337 525 l 1x18
EndSplineSet
Substitution2: "'smcp' Lowercase to Small Capitals lookup 17 subtable" Icircumflex.sc
EndChar

StartChar: idieresis
Encoding: 239 239 175
Width: 319
GlyphClass: 2
Flags: MW
HStem: 0 47<47 116> 395 47<50 79.5> 395 55 537 140<11.5 50.5 268.5 307.5>
VStem: -39 140<588 626.5> 116 108<47 356 356 375.5> 218 140<588 626.5>
LayerCount: 2
Fore
SplineSet
286 0 m 1xa4
 169 3 l 1xa4
 47 0 l 1
 47 47 l 1
 116 47 l 1
 116 356 l 2
 116 395 109 395 50 395 c 1
 50 442 l 1xc4
 224 450 l 1
 224 47 l 1
 286 47 l 1
 286 0 l 1xa4
101 607 m 0x1a
 101 569 70 537 31 537 c 0
 -8 537 -39 569 -39 607 c 0
 -39 646 -8 677 31 677 c 0
 70 677 101 646 101 607 c 0x1a
358 607 m 0
 358 569 327 537 288 537 c 0
 249 537 218 569 218 607 c 0
 218 646 249 677 288 677 c 0
 327 677 358 646 358 607 c 0
EndSplineSet
Substitution2: "'smcp' Lowercase to Small Capitals lookup 17 subtable" Idieresis.sc
EndChar

StartChar: eth
Encoding: 240 240 176
Width: 575
GlyphClass: 2
Flags: MW
HStem: -6 40<273 335> 417 36<273 303.5 209 306>
VStem: 32 128<205 254 205 288.5> 414 128<225 229.5>
LayerCount: 2
Fore
SplineSet
542 259 m 0
 542 191 542 124 480 62 c 0
 445 28 383 -6 287 -6 c 0
 125 -6 32 91 32 219 c 0
 32 358 135 453 283 453 c 0
 324 453 363 439 391 413 c 1
 367 481 324 540 268 583 c 1
 162 536 l 1
 143 579 l 1
 221 614 l 1
 182 637 137 652 90 658 c 1
 93 696 l 1
 168 699 241 683 306 652 c 1
 419 702 l 1
 438 659 l 1
 358 623 l 1
 413 587 460 538 494 480 c 0
 542 396 542 322 542 259 c 0
414 215 m 0
 414 244 414 304 388 353 c 0
 364 397 326 417 286 417 c 0
 260 417 214 409 185 366 c 0
 160 329 160 279 160 229 c 0
 160 181 160 129 183 90 c 0
 211 43 259 34 287 34 c 0
 414 34 414 165 414 215 c 0
EndSplineSet
Substitution2: "'ss05' Style Set 5 lookup 23 subtable" eth.ipa
Substitution2: "'smcp' Lowercase to Small Capitals lookup 17 subtable" Eth.sc
EndChar

StartChar: ntilde
Encoding: 241 241 177
Width: 639
GlyphClass: 2
Flags: MW
HStem: 553 74<383 414.5> 570 74 587 74<225.5 257>
VStem: 114 114<47 256 47 356 47 375.5> 432 114<47 306 47 317 47 355>
CounterMasks: 1 e0
LayerCount: 2
Fore
SplineSet
615 0 m 1x18
 489 3 l 1
 363 0 l 1
 363 47 l 1
 432 47 l 1
 432 317 l 2
 432 393 411 414 377 414 c 0
 314 414 228 365 228 256 c 2
 228 47 l 1
 297 47 l 1
 297 0 l 1
 171 3 l 1
 45 0 l 1
 45 47 l 1
 114 47 l 1
 114 356 l 2
 114 395 107 395 45 395 c 1
 45 442 l 1
 217 450 l 1
 217 342 l 1
 243 393 296 450 392 450 c 0
 492 450 546 411 546 306 c 2
 546 47 l 1
 615 47 l 1
 615 0 l 1x18
511 636 m 1
 500 625 473 595 462 584 c 0
 435 557 408 553 390 553 c 0x98
 376 553 357 555 311 570 c 0x58
 268 584 251 587 231 587 c 0x38
 220 587 185 587 155 553 c 1x98
 129 578 l 1
 140 589 167 619 178 630 c 0
 205 657 232 661 250 661 c 0x38
 264 661 283 659 329 644 c 0x58
 372 630 389 627 409 627 c 0x98
 420 627 455 627 485 661 c 1x38
 511 636 l 1
EndSplineSet
Substitution2: "'smcp' Lowercase to Small Capitals lookup 17 subtable" Ntilde.sc
EndChar

StartChar: ograve
Encoding: 242 242 178
Width: 575
GlyphClass: 2
Flags: MW
HStem: -6 40<223.5 350.5 223.5 371> 417 36<262.5 308> 509 21G<330 330> 684 20G<185 212.5>
VStem: 32 128<185.5 251.5 185.5 284.5> 414 128<185.5 253>
LayerCount: 2
Fore
SplineSet
542 218 m 0
 542 95 455 -6 287 -6 c 0
 120 -6 32 94 32 218 c 0
 32 351 123 453 287 453 c 0
 450 453 542 352 542 218 c 0
414 229 m 0
 414 277 414 332 393 366 c 0
 371 401 329 417 287 417 c 0
 238 417 196 396 177 359 c 0
 160 325 160 274 160 229 c 0
 160 142 160 34 287 34 c 0
 414 34 414 142 414 229 c 0
360 546 m 1
 330 509 l 1
 179 590 l 2
 163 599 141 610 141 642 c 0
 141 673 169 704 201 704 c 0
 224 704 236 691 248 678 c 2
 360 546 l 1
EndSplineSet
Substitution2: "'smcp' Lowercase to Small Capitals lookup 17 subtable" Ograve.sc
EndChar

StartChar: oacute
Encoding: 243 243 179
Width: 575
GlyphClass: 2
Flags: MW
HStem: -6 40<223.5 350.5 223.5 371> 417 36<262.5 308> 509 21G<245 245> 684 20G<362.5 390>
VStem: 32 128<185.5 251.5 185.5 284.5> 414 128<185.5 253>
LayerCount: 2
Fore
SplineSet
542 218 m 0
 542 95 455 -6 287 -6 c 0
 120 -6 32 94 32 218 c 0
 32 351 123 453 287 453 c 0
 450 453 542 352 542 218 c 0
414 229 m 0
 414 277 414 332 393 366 c 0
 371 401 329 417 287 417 c 0
 238 417 196 396 177 359 c 0
 160 325 160 274 160 229 c 0
 160 142 160 34 287 34 c 0
 414 34 414 142 414 229 c 0
434 642 m 0
 434 610 412 599 396 590 c 2
 245 509 l 1
 215 546 l 1
 327 678 l 2
 339 691 351 704 374 704 c 0
 406 704 434 673 434 642 c 0
EndSplineSet
Substitution2: "'smcp' Lowercase to Small Capitals lookup 17 subtable" Oacute.sc
EndChar

StartChar: ocircumflex
Encoding: 244 244 180
Width: 575
GlyphClass: 2
Flags: MW
HStem: -6 40<223.5 350.5 223.5 371> 417 36<262.5 308> 503 21G<129 129 445 445> 690 20G<288 288>
VStem: 32 128<185.5 251.5 185.5 284.5> 414 128<185.5 253>
LayerCount: 2
Fore
SplineSet
542 218 m 0
 542 95 455 -6 287 -6 c 0
 120 -6 32 94 32 218 c 0
 32 351 123 453 287 453 c 0
 450 453 542 352 542 218 c 0
414 229 m 0
 414 277 414 332 393 366 c 0
 371 401 329 417 287 417 c 0
 238 417 196 396 177 359 c 0
 160 325 160 274 160 229 c 0
 160 142 160 34 287 34 c 0
 414 34 414 142 414 229 c 0
465 525 m 1
 445 503 l 1
 287 602 l 1
 129 503 l 1
 111 525 l 1
 288 710 l 1
 465 525 l 1
EndSplineSet
Substitution2: "'smcp' Lowercase to Small Capitals lookup 17 subtable" Ocircumflex.sc
EndChar

StartChar: otilde
Encoding: 245 245 181
Width: 575
GlyphClass: 2
Flags: MW
HStem: 553 74<351 382.5> 570 74 587 74<193.5 225>
VStem: 32 128<185.5 251.5 185.5 284.5> 414 128<185.5 253>
CounterMasks: 1 e0
LayerCount: 2
Fore
SplineSet
542 218 m 0x18
 542 95 455 -6 287 -6 c 0
 120 -6 32 94 32 218 c 0
 32 351 123 453 287 453 c 0
 450 453 542 352 542 218 c 0x18
414 229 m 0
 414 277 414 332 393 366 c 0
 371 401 329 417 287 417 c 0
 238 417 196 396 177 359 c 0
 160 325 160 274 160 229 c 0
 160 142 160 34 287 34 c 0
 414 34 414 142 414 229 c 0
479 636 m 1
 468 625 441 595 430 584 c 0
 403 557 376 553 358 553 c 0x98
 344 553 325 555 279 570 c 0x58
 236 584 219 587 199 587 c 0x38
 188 587 153 587 123 553 c 1x98
 97 578 l 1
 108 589 135 619 146 630 c 0
 173 657 200 661 218 661 c 0x38
 232 661 251 659 297 644 c 0x58
 340 630 357 627 377 627 c 0x98
 388 627 423 627 453 661 c 1x38
 479 636 l 1
EndSplineSet
Substitution2: "'smcp' Lowercase to Small Capitals lookup 17 subtable" Otilde.sc
EndChar

StartChar: odieresis
Encoding: 246 246 182
Width: 575
GlyphClass: 2
Flags: MW
HStem: -6 40<223.5 350.5 223.5 371> 417 36<262.5 308> 537 140<139.5 178.5 396.5 435.5>
VStem: 32 128<185.5 251.5 185.5 284.5> 89 140<588 626.5> 346 140<588 626.5> 414 128<185.5 253>
LayerCount: 2
Fore
SplineSet
542 218 m 0xd2
 542 95 455 -6 287 -6 c 0
 120 -6 32 94 32 218 c 0
 32 351 123 453 287 453 c 0
 450 453 542 352 542 218 c 0xd2
414 229 m 0
 414 277 414 332 393 366 c 0
 371 401 329 417 287 417 c 0
 238 417 196 396 177 359 c 0
 160 325 160 274 160 229 c 0
 160 142 160 34 287 34 c 0
 414 34 414 142 414 229 c 0
229 607 m 0x2c
 229 569 198 537 159 537 c 0
 120 537 89 569 89 607 c 0
 89 646 120 677 159 677 c 0
 198 677 229 646 229 607 c 0x2c
486 607 m 0
 486 569 455 537 416 537 c 0
 377 537 346 569 346 607 c 0
 346 646 377 677 416 677 c 0
 455 677 486 646 486 607 c 0
EndSplineSet
Substitution2: "'smcp' Lowercase to Small Capitals lookup 17 subtable" Odieresis.sc
EndChar

StartChar: divide
Encoding: 247 247 183
Width: 894
GlyphClass: 2
Flags: MW
HStem: -80 156<425.5 468.5> 220 61<99 783 110 783 783 788> 426 156<425.5 468.5>
VStem: 369 156<-23.5 19.5 482.5 525.5>
LayerCount: 2
Fore
SplineSet
829 250 m 0
 829 220 800 220 788 220 c 2
 105 220 l 2
 93 220 64 220 64 250 c 0
 64 281 95 281 110 281 c 2
 783 281 l 2
 798 281 829 281 829 250 c 0
525 504 m 0
 525 461 490 426 447 426 c 0
 404 426 369 461 369 504 c 0
 369 547 404 582 447 582 c 0
 490 582 525 547 525 504 c 0
525 -2 m 0
 525 -45 490 -80 447 -80 c 0
 404 -80 369 -45 369 -2 c 0
 369 41 404 76 447 76 c 0
 490 76 525 41 525 -2 c 0
EndSplineSet
EndChar

StartChar: oslash
Encoding: 248 248 184
Width: 575
GlyphClass: 2
Flags: MW
HStem: -107 21G<104 104> -6 36<281 357.5 281 371> 417 36<216.5 291.5 205 302> 532 20G
VStem: 32 114<194.5 256.5 194.5 284.5> 428 114<181.5 247>
LayerCount: 2
Fore
SplineSet
542 218 m 0
 542 95 455 -6 287 -6 c 0
 275 -6 227 -6 177 11 c 1
 104 -107 l 1
 74 -87 l 1
 144 26 l 1
 55 74 32 157 32 218 c 0
 32 351 123 453 287 453 c 0
 296 453 346 453 398 435 c 1
 470 552 l 1
 500 532 l 1
 430 419 l 1
 510 376 542 294 542 218 c 0
372 394 m 1
 347 411 317 417 287 417 c 0
 146 417 146 294 146 219 c 0
 146 170 146 113 175 77 c 1
 372 394 l 1
428 219 m 0
 428 275 427 329 398 368 c 1
 203 52 l 1
 236 30 275 30 287 30 c 0
 428 30 428 144 428 219 c 0
EndSplineSet
Substitution2: "'smcp' Lowercase to Small Capitals lookup 17 subtable" Oslash.sc
EndChar

StartChar: ugrave
Encoding: 249 249 185
Width: 639
GlyphClass: 2
Flags: MW
HStem: -6 53 395 55 509 21G<362 362> 684 20G<217 244.5>
VStem: 114 114<123 356 356 375.5> 432 114<165 356 356 375.5>
LayerCount: 2
Fore
SplineSet
615 0 m 1
 438 -6 l 1
 438 72 l 1
 392 -6 320 -6 294 -6 c 0
 195 -6 114 16 114 123 c 2
 114 356 l 2
 114 395 107 395 45 395 c 1
 45 442 l 1
 228 450 l 1
 228 109 l 2
 228 55 231 30 308 30 c 0
 381 30 432 83 432 165 c 2
 432 356 l 2
 432 395 425 395 363 395 c 1
 363 442 l 1
 546 450 l 1
 546 86 l 2
 546 47 553 47 615 47 c 1
 615 0 l 1
392 546 m 1
 362 509 l 1
 211 590 l 2
 195 599 173 610 173 642 c 0
 173 673 201 704 233 704 c 0
 256 704 268 691 280 678 c 2
 392 546 l 1
EndSplineSet
Substitution2: "'smcp' Lowercase to Small Capitals lookup 17 subtable" Ugrave.sc
EndChar

StartChar: uacute
Encoding: 250 250 186
Width: 639
GlyphClass: 2
Flags: MW
HStem: -6 53 395 55 509 21G<277 277> 684 20G<394.5 422>
VStem: 114 114<123 356 356 375.5> 432 114<165 356 356 375.5>
LayerCount: 2
Fore
SplineSet
615 0 m 1
 438 -6 l 1
 438 72 l 1
 392 -6 320 -6 294 -6 c 0
 195 -6 114 16 114 123 c 2
 114 356 l 2
 114 395 107 395 45 395 c 1
 45 442 l 1
 228 450 l 1
 228 109 l 2
 228 55 231 30 308 30 c 0
 381 30 432 83 432 165 c 2
 432 356 l 2
 432 395 425 395 363 395 c 1
 363 442 l 1
 546 450 l 1
 546 86 l 2
 546 47 553 47 615 47 c 1
 615 0 l 1
466 642 m 0
 466 610 444 599 428 590 c 2
 277 509 l 1
 247 546 l 1
 359 678 l 2
 371 691 383 704 406 704 c 0
 438 704 466 673 466 642 c 0
EndSplineSet
Substitution2: "'smcp' Lowercase to Small Capitals lookup 17 subtable" Uacute.sc
EndChar

StartChar: ucircumflex
Encoding: 251 251 187
Width: 639
GlyphClass: 2
Flags: MW
HStem: -6 53 395 55 503 21G<161 161 477 477> 690 20G<320 320>
VStem: 114 114<123 356 356 375.5> 432 114<165 356 356 375.5>
LayerCount: 2
Fore
SplineSet
615 0 m 1
 438 -6 l 1
 438 72 l 1
 392 -6 320 -6 294 -6 c 0
 195 -6 114 16 114 123 c 2
 114 356 l 2
 114 395 107 395 45 395 c 1
 45 442 l 1
 228 450 l 1
 228 109 l 2
 228 55 231 30 308 30 c 0
 381 30 432 83 432 165 c 2
 432 356 l 2
 432 395 425 395 363 395 c 1
 363 442 l 1
 546 450 l 1
 546 86 l 2
 546 47 553 47 615 47 c 1
 615 0 l 1
497 525 m 1
 477 503 l 1
 319 602 l 1
 161 503 l 1
 143 525 l 1
 320 710 l 1
 497 525 l 1
EndSplineSet
Substitution2: "'smcp' Lowercase to Small Capitals lookup 17 subtable" Ucircumflex.sc
EndChar

StartChar: udieresis
Encoding: 252 252 188
Width: 639
GlyphClass: 2
Flags: MW
HStem: -6 53 395 55 537 140<171.5 210.5 428.5 467.5>
VStem: 114 114<123 356 356 375.5> 121 140<588 626.5> 378 140<588 626.5> 432 114<165 356 356 375.5>
LayerCount: 2
Fore
SplineSet
615 0 m 1xd2
 438 -6 l 1
 438 72 l 1
 392 -6 320 -6 294 -6 c 0
 195 -6 114 16 114 123 c 2
 114 356 l 2
 114 395 107 395 45 395 c 1
 45 442 l 1
 228 450 l 1
 228 109 l 2
 228 55 231 30 308 30 c 0
 381 30 432 83 432 165 c 2
 432 356 l 2
 432 395 425 395 363 395 c 1
 363 442 l 1
 546 450 l 1
 546 86 l 2
 546 47 553 47 615 47 c 1
 615 0 l 1xd2
261 607 m 0x2c
 261 569 230 537 191 537 c 0
 152 537 121 569 121 607 c 0
 121 646 152 677 191 677 c 0
 230 677 261 646 261 607 c 0x2c
518 607 m 0
 518 569 487 537 448 537 c 0
 409 537 378 569 378 607 c 0
 378 646 409 677 448 677 c 0
 487 677 518 646 518 607 c 0
EndSplineSet
Substitution2: "'smcp' Lowercase to Small Capitals lookup 17 subtable" Udieresis.sc
EndChar

StartChar: yacute
Encoding: 253 253 189
Width: 607
GlyphClass: 2
Flags: MW
HStem: -200 36<122 164.5 122 167.5> 397 47<26 90 26 26> 509 21G<261 261> 684 20G<378.5 406>
VStem: 22 115<-124.5 -90.5 -124.5 -88.5> 337 115
LayerCount: 2
Fore
SplineSet
580 397 m 1
 516 397 513 390 506 376 c 2
 291 -81 l 2
 264 -138 206 -200 129 -200 c 0
 69 -200 22 -159 22 -108 c 0
 22 -69 51 -50 79 -50 c 0
 113 -50 137 -74 137 -107 c 0
 137 -142 114 -156 105 -160 c 1
 113 -163 115 -164 129 -164 c 0
 200 -164 232 -96 254 -48 c 2
 277 0 l 1
 90 397 l 1
 26 397 l 1
 26 444 l 1
 140 441 l 1
 264 444 l 1
 264 397 l 1
 210 397 l 1
 337 127 l 1
 452 373 l 1
 457 385 l 1
 457 397 410 397 410 397 c 1
 410 444 l 1
 501 441 l 2
 526 441 556 442 580 444 c 1
 580 397 l 1
450 642 m 0
 450 610 428 599 412 590 c 2
 261 509 l 1
 231 546 l 1
 343 678 l 2
 355 691 367 704 390 704 c 0
 422 704 450 673 450 642 c 0
EndSplineSet
Substitution2: "'smcp' Lowercase to Small Capitals lookup 17 subtable" Yacute.sc
EndChar

StartChar: thorn
Encoding: 254 254 190
Width: 639
GlyphClass: 2
Flags: MW
HStem: -194 47<37 106> -6 36<330 369.5 330 423> 363 47 410 40<338 382.5> 639 47<37 68>
VStem: 106 114<-147 39 107.5 117 117 329> 220 128 235 114 472 128<153.5 286>
LayerCount: 2
Fore
SplineSet
600 223 m 0x9c
 600 84 498 -6 348 -6 c 0x4280
 307 -6 263 4 220 39 c 1
 220 -147 l 1
 289 -147 l 1
 289 -194 l 1
 163 -191 l 1
 37 -194 l 1
 37 -147 l 1
 106 -147 l 1
 106 600 l 2
 106 639 99 639 37 639 c 1
 37 686 l 1
 214 694 l 1
 214 401 l 1
 237 419 290 450 365 450 c 0
 509 450 600 356 600 223 c 0x9c
472 223 m 0
 472 349 416 410 349 410 c 0
 327 410 275 404 235 363 c 0x2180
 221 349 220 348 220 329 c 2
 220 117 l 2
 220 98 220 97 231 84 c 0
 276 30 323 30 337 30 c 0
 402 30 472 82 472 223 c 0
EndSplineSet
Substitution2: "'smcp' Lowercase to Small Capitals lookup 17 subtable" Thorn.sc
EndChar

StartChar: ydieresis
Encoding: 255 255 191
Width: 607
GlyphClass: 2
Flags: MW
HStem: -200 36<122 164.5 122 167.5> 397 47<26 90 26 26> 537 140<155.5 194.5 412.5 451.5>
VStem: 22 115<-124.5 -90.5 -124.5 -88.5> 105 140<588 626.5> 337 115 362 140<588 626.5>
LayerCount: 2
Fore
SplineSet
580 397 m 1xcc
 516 397 513 390 506 376 c 2
 291 -81 l 2
 264 -138 206 -200 129 -200 c 0
 69 -200 22 -159 22 -108 c 0
 22 -69 51 -50 79 -50 c 0
 113 -50 137 -74 137 -107 c 0xd0
 137 -142 114 -156 105 -160 c 1
 113 -163 115 -164 129 -164 c 0
 200 -164 232 -96 254 -48 c 2
 277 0 l 1
 90 397 l 1
 26 397 l 1
 26 444 l 1
 140 441 l 1
 264 444 l 1
 264 397 l 1
 210 397 l 1
 337 127 l 1
 452 373 l 1
 457 385 l 1
 457 397 410 397 410 397 c 1
 410 444 l 1
 501 441 l 2
 526 441 556 442 580 444 c 1
 580 397 l 1xcc
245 607 m 0x2a
 245 569 214 537 175 537 c 0
 136 537 105 569 105 607 c 0
 105 646 136 677 175 677 c 0
 214 677 245 646 245 607 c 0x2a
502 607 m 0
 502 569 471 537 432 537 c 0
 393 537 362 569 362 607 c 0
 362 646 393 677 432 677 c 0
 471 677 502 646 502 607 c 0
EndSplineSet
Substitution2: "'smcp' Lowercase to Small Capitals lookup 17 subtable" Ydieresis.sc
EndChar

StartChar: Amacron
Encoding: 256 256 192
Width: 869
GlyphClass: 2
Flags: MW
HStem: 0 47<41 62> 193 47<275 503 275 523 255 503> 678 20G<420 442.5> 748 52<228 642 228 642>
LayerCount: 2
Fore
SplineSet
827 0 m 1
 792 3 704 3 664 3 c 0
 621 3 526 3 488 0 c 1
 488 47 l 1
 583 47 l 1
 523 193 l 1
 255 193 l 1
 205 72 l 1
 201 60 l 1
 201 47 290 47 290 47 c 1
 290 0 l 1
 253 3 197 3 158 3 c 2
 41 0 l 1
 41 47 l 1
 62 47 l 2
 138 47 141 55 147 70 c 2
 395 672 l 2
 402 690 406 698 434 698 c 0
 451 698 463 698 474 672 c 2
 730 47 l 1
 827 47 l 1
 827 0 l 1
503 240 m 1
 389 518 l 1
 275 240 l 1
 503 240 l 1
642 748 m 1
 228 748 l 1
 228 800 l 1
 642 800 l 1
 642 748 l 1
EndSplineSet
Position2: "'cpsp' Capital Spacing lookup 0 subtable" dx=7 dy=0 dh=14 dv=0
EndChar

StartChar: amacron
Encoding: 257 257 193
Width: 559
GlyphClass: 2
Flags: MW
HStem: -6 36<209.5 247.5 209.5 260> 0 47<473 533.5> 234 30 417 36<236 279.5> 581 52<73 487 73 487>
VStem: 27 117<87 163 87 180.5> 352 114<139 234 234 234 265 299>
LayerCount: 2
Fore
SplineSet
553 24 m 0x56
 553 0 541 0 521 0 c 2
 473 0 l 2x40
 369 0 369 46 369 77 c 1
 347 35 300 -6 220 -6 c 0x80
 151 -6 27 12 27 108 c 0
 27 253 281 262 352 265 c 1
 352 299 l 2
 352 375 317 417 242 417 c 0
 230 417 198 416 170 410 c 1
 173 408 192 391 192 361 c 0
 192 319 160 298 129 298 c 0
 102 298 67 317 67 361 c 0
 67 449 189 453 246 453 c 0
 395 453 466 388 466 299 c 2
 466 84 l 2
 466 61 466 48 527 47 c 0
 540 47 553 47 553 24 c 0x56
352 139 m 2
 352 234 l 1
 302 231 144 217 144 109 c 0
 144 65 184 30 235 30 c 0xa6
 260 30 352 43 352 139 c 2
487 581 m 1x08
 73 581 l 1
 73 633 l 1
 487 633 l 1
 487 581 l 1x08
EndSplineSet
EndChar

StartChar: Abreve
Encoding: 258 258 194
Width: 869
GlyphClass: 2
Flags: MW
HStem: 0 47<41 62> 193 47<275 503 275 523 255 503> 678 20G<420 442.5> 738 62<403 467 403 479.5> 905 20G<258 294 294 294 576 612 612 612>
LayerCount: 2
Fore
SplineSet
827 0 m 1
 792 3 704 3 664 3 c 0
 621 3 526 3 488 0 c 1
 488 47 l 1
 583 47 l 1
 523 193 l 1
 255 193 l 1
 205 72 l 1
 201 60 l 1
 201 47 290 47 290 47 c 1
 290 0 l 1
 253 3 197 3 158 3 c 2
 41 0 l 1
 41 47 l 1
 62 47 l 2
 138 47 141 55 147 70 c 2
 395 672 l 2
 402 690 406 698 434 698 c 0
 451 698 463 698 474 672 c 2
 730 47 l 1
 827 47 l 1
 827 0 l 1
503 240 m 1
 389 518 l 1
 275 240 l 1
 503 240 l 1
612 925 m 1
 609 810 524 738 435 738 c 0
 346 738 261 809 258 925 c 1
 294 925 l 1
 296 842 371 800 435 800 c 0
 499 800 574 842 576 925 c 1
 612 925 l 1
EndSplineSet
Position2: "'cpsp' Capital Spacing lookup 0 subtable" dx=7 dy=0 dh=14 dv=0
EndChar

StartChar: abreve
Encoding: 259 259 195
Width: 559
GlyphClass: 2
Flags: MW
HStem: -6 36<209.5 247.5 209.5 260> 0 47<473 533.5> 234 30 417 36<236 279.5> 513 62<248 312 248 324.5> 680 20G<103 139 139 139 421 457 457 457>
VStem: 27 117<87 163 87 180.5> 352 114<139 234 234 234 265 299>
LayerCount: 2
Fore
SplineSet
553 24 m 0x53
 553 0 541 0 521 0 c 2
 473 0 l 2x40
 369 0 369 46 369 77 c 1
 347 35 300 -6 220 -6 c 0x80
 151 -6 27 12 27 108 c 0
 27 253 281 262 352 265 c 1
 352 299 l 2
 352 375 317 417 242 417 c 0
 230 417 198 416 170 410 c 1
 173 408 192 391 192 361 c 0
 192 319 160 298 129 298 c 0
 102 298 67 317 67 361 c 0
 67 449 189 453 246 453 c 0
 395 453 466 388 466 299 c 2
 466 84 l 2
 466 61 466 48 527 47 c 0
 540 47 553 47 553 24 c 0x53
352 139 m 2
 352 234 l 1
 302 231 144 217 144 109 c 0
 144 65 184 30 235 30 c 0xa3
 260 30 352 43 352 139 c 2
457 700 m 1x0c
 454 585 369 513 280 513 c 0
 191 513 106 584 103 700 c 1
 139 700 l 1
 141 617 216 575 280 575 c 0
 344 575 419 617 421 700 c 1
 457 700 l 1x0c
EndSplineSet
Substitution2: "'smcp' Lowercase to Small Capitals lookup 17 subtable" Abreve.sc
EndChar

StartChar: Aogonek
Encoding: 260 260 196
Width: 869
GlyphClass: 2
Flags: MW
HStem: -206 78<695 712.5> 0 47<41 62> 193 47<275 503 275 523 255 503> 678 20G<420 442.5>
LayerCount: 2
Fore
SplineSet
827 0 m 1
 799 2 747 3 703 3 c 1
 629 -50 671 -128 719 -128 c 0
 733 -128 752 -123 765 -105 c 0
 771 -97 781 -102 792 -112 c 0
 800 -118 804 -131 798 -140 c 0
 773 -177 737 -206 688 -206 c 0
 620 -206 575 -154 575 -100 c 0
 575 -61 593 -26 628 3 c 1
 582 3 515 2 488 0 c 1
 488 47 l 1
 583 47 l 1
 523 193 l 1
 255 193 l 1
 205 72 l 1
 201 60 l 1
 201 47 290 47 290 47 c 1
 290 0 l 1
 253 3 197 3 158 3 c 2
 41 0 l 1
 41 47 l 1
 62 47 l 2
 138 47 141 55 147 70 c 2
 395 672 l 2
 402 690 406 698 434 698 c 0
 451 698 463 698 474 672 c 2
 730 47 l 1
 827 47 l 1
 827 0 l 1
503 240 m 1
 389 518 l 1
 275 240 l 1
 503 240 l 1
EndSplineSet
Position2: "'cpsp' Capital Spacing lookup 0 subtable" dx=7 dy=0 dh=14 dv=0
EndChar

StartChar: aogonek
Encoding: 261 261 197
Width: 559
GlyphClass: 2
Flags: MW
HStem: -206 78<450 467.5> -6 36<209.5 247.5 209.5 260> 0 47<473 533.5> 417 36<236 279.5>
VStem: 27 117<87 163 87 180.5> 352 114<139 234 234 234 265 299>
LayerCount: 2
Fore
SplineSet
553 -140 m 0xbc
 528 -177 492 -206 443 -206 c 0
 375 -206 330 -154 330 -100 c 0
 330 -61 366 -7 406 11 c 1
 369 27 369 55 369 77 c 1
 347 35 300 -6 220 -6 c 0xcc
 151 -6 27 12 27 108 c 0
 27 253 281 262 352 265 c 1
 352 299 l 2
 352 375 317 417 242 417 c 0
 230 417 198 416 170 410 c 1
 173 408 192 391 192 361 c 0
 192 319 160 298 129 298 c 0
 102 298 67 317 67 361 c 0
 67 449 189 453 246 453 c 0
 395 453 466 388 466 299 c 2
 466 84 l 2
 466 61 466 48 527 47 c 0
 540 47 553 47 553 24 c 0
 553 0 541 0 521 0 c 2
 473 0 l 1
 399 -53 426 -128 474 -128 c 0
 488 -128 507 -123 520 -105 c 0
 526 -97 536 -102 547 -112 c 0
 555 -118 559 -131 553 -140 c 0xbc
352 139 m 2
 352 234 l 1
 302 231 144 217 144 109 c 0
 144 65 184 30 235 30 c 0
 260 30 352 43 352 139 c 2
EndSplineSet
Substitution2: "'smcp' Lowercase to Small Capitals lookup 17 subtable" Aogonek.sc
EndChar

StartChar: Cacute
Encoding: 262 262 198
Width: 831
GlyphClass: 2
Flags: MW
HStem: -11 47<451 540.5 451 559.5> 650 47<461 500 341.5 541> 738 21G<404 404> 889 20G<546.5 574>
VStem: 64 153<298 371 298 445.5> 717 49
LayerCount: 2
Fore
SplineSet
766 227 m 0
 766 112 653 -11 466 -11 c 0
 217 -11 64 138 64 343 c 0
 64 548 217 697 466 697 c 0
 534 697 601 679 663 629 c 1
 729 688 l 2
 737 695 739 697 748 697 c 0
 766 697 766 688 766 669 c 2
 766 454 l 2
 766 428 765 426 739 426 c 0
 716 426 715 428 712 447 c 0
 690 574 595 650 487 650 c 0
 435 650 348 639 283 573 c 0
 220 507 217 399 217 343 c 0
 217 253 229 178 276 121 c 0
 328 60 412 36 490 36 c 0
 591 36 712 97 719 231 c 0
 720 248 729 248 742 248 c 0
 759 248 766 247 766 227 c 0
613 837 m 0
 607 805 584 798 566 792 c 2
 404 738 l 1
 380 780 l 1
 410 804 483 867 514 891 c 0
 526 900 538 909 555 909 c 0
 593 909 621 874 613 837 c 0
EndSplineSet
Position2: "'cpsp' Capital Spacing lookup 0 subtable" dx=7 dy=0 dh=14 dv=0
EndChar

StartChar: cacute
Encoding: 263 263 199
Width: 511
GlyphClass: 2
Flags: MW
HStem: -6 40<235.5 330.5 235.5 367> 413 40<230.5 312.5> 509 21G<239 239> 684 20G<356.5 384>
VStem: 38 128<204 255 204 280> 166 125 305 125 340 125<340 365.5>
LayerCount: 2
Fore
SplineSet
478 117 m 0xca
 478 110 448 -6 286 -6 c 0
 132 -6 38 89 38 222 c 0x88
 38 338 112 453 291 453 c 0
 349 453 465 447 465 361 c 0
 465 319 433 298 402 298 c 0
 375 298 340 317 340 361 c 0x45
 340 370 342 391 360 407 c 1
 347 410 330 413 295 413 c 0
 166 413 166 283 166 227 c 0
 166 181 166 34 305 34 c 0
 356 34 404 53 430 116 c 0
 435 129 436 131 454 131 c 0
 464 131 478 131 478 117 c 0xca
428 642 m 0x30
 428 610 406 599 390 590 c 2
 239 509 l 1
 209 546 l 1
 321 678 l 2
 333 691 345 704 368 704 c 0
 400 704 428 673 428 642 c 0x30
EndSplineSet
Substitution2: "'smcp' Lowercase to Small Capitals lookup 17 subtable" Cacute.sc
EndChar

StartChar: Ccircumflex
Encoding: 264 264 200
Width: 831
GlyphClass: 2
Flags: MW
HStem: -11 47<451 540.5 451 559.5> 650 47<461 500 341.5 541> 728 21G<297 297 617 617> 873 20G<458 458>
VStem: 64 153<298 371 298 445.5> 717 49
LayerCount: 2
Fore
SplineSet
766 227 m 0
 766 112 653 -11 466 -11 c 0
 217 -11 64 138 64 343 c 0
 64 548 217 697 466 697 c 0
 534 697 601 679 663 629 c 1
 729 688 l 2
 737 695 739 697 748 697 c 0
 766 697 766 688 766 669 c 2
 766 454 l 2
 766 428 765 426 739 426 c 0
 716 426 715 428 712 447 c 0
 690 574 595 650 487 650 c 0
 435 650 348 639 283 573 c 0
 220 507 217 399 217 343 c 0
 217 253 229 178 276 121 c 0
 328 60 412 36 490 36 c 0
 591 36 712 97 719 231 c 0
 720 248 729 248 742 248 c 0
 759 248 766 247 766 227 c 0
633 752 m 1
 617 728 l 1
 457 786 l 1
 297 728 l 1
 283 752 l 1
 458 893 l 1
 633 752 l 1
EndSplineSet
Position2: "'cpsp' Capital Spacing lookup 0 subtable" dx=7 dy=0 dh=14 dv=0
EndChar

StartChar: ccircumflex
Encoding: 265 265 201
Width: 511
GlyphClass: 2
Flags: MW
HStem: -6 40<235.5 330.5 235.5 367> 413 40<230.5 312.5> 503 21G<123 123 439 439> 690 20G<282 282>
VStem: 38 128<204 255 204 280> 166 125 305 125 340 125<340 365.5>
LayerCount: 2
Fore
SplineSet
478 117 m 0xca
 478 110 448 -6 286 -6 c 0
 132 -6 38 89 38 222 c 0x88
 38 338 112 453 291 453 c 0
 349 453 465 447 465 361 c 0
 465 319 433 298 402 298 c 0
 375 298 340 317 340 361 c 0x45
 340 370 342 391 360 407 c 1
 347 410 330 413 295 413 c 0
 166 413 166 283 166 227 c 0
 166 181 166 34 305 34 c 0
 356 34 404 53 430 116 c 0
 435 129 436 131 454 131 c 0
 464 131 478 131 478 117 c 0xca
459 525 m 1x30
 439 503 l 1
 281 602 l 1
 123 503 l 1
 105 525 l 1
 282 710 l 1
 459 525 l 1x30
EndSplineSet
EndChar

StartChar: Cdotaccent
Encoding: 266 266 202
Width: 831
GlyphClass: 2
Flags: MW
HStem: -11 47<451 540.5 451 559.5> 650 47<461 500 341.5 541> 739 156<435.5 478.5>
VStem: 64 153<298 371 298 445.5> 379 156<795.5 838.5> 717 49
LayerCount: 2
Fore
SplineSet
766 227 m 0
 766 112 653 -11 466 -11 c 0
 217 -11 64 138 64 343 c 0
 64 548 217 697 466 697 c 0
 534 697 601 679 663 629 c 1
 729 688 l 2
 737 695 739 697 748 697 c 0
 766 697 766 688 766 669 c 2
 766 454 l 2
 766 428 765 426 739 426 c 0
 716 426 715 428 712 447 c 0
 690 574 595 650 487 650 c 0
 435 650 348 639 283 573 c 0
 220 507 217 399 217 343 c 0
 217 253 229 178 276 121 c 0
 328 60 412 36 490 36 c 0
 591 36 712 97 719 231 c 0
 720 248 729 248 742 248 c 0
 759 248 766 247 766 227 c 0
535 817 m 0
 535 774 500 739 457 739 c 0
 414 739 379 774 379 817 c 0
 379 860 414 895 457 895 c 0
 500 895 535 860 535 817 c 0
EndSplineSet
Position2: "'cpsp' Capital Spacing lookup 0 subtable" dx=7 dy=0 dh=14 dv=0
EndChar

StartChar: cdotaccent
Encoding: 267 267 203
Width: 511
GlyphClass: 2
Flags: MW
HStem: -6 40<235.5 330.5 235.5 367> 413 40<230.5 312.5> 529 156<259.5 302.5>
VStem: 38 128<204 255 204 280> 166 125 203 156<585.5 628.5> 305 125 340 125<340 365.5>
LayerCount: 2
Fore
SplineSet
478 117 m 0xd2
 478 110 448 -6 286 -6 c 0
 132 -6 38 89 38 222 c 0x90
 38 338 112 453 291 453 c 0
 349 453 465 447 465 361 c 0
 465 319 433 298 402 298 c 0
 375 298 340 317 340 361 c 0x49
 340 370 342 391 360 407 c 1
 347 410 330 413 295 413 c 0
 166 413 166 283 166 227 c 0
 166 181 166 34 305 34 c 0
 356 34 404 53 430 116 c 0
 435 129 436 131 454 131 c 0
 464 131 478 131 478 117 c 0xd2
359 607 m 0x24
 359 564 324 529 281 529 c 0
 238 529 203 564 203 607 c 0
 203 650 238 685 281 685 c 0
 324 685 359 650 359 607 c 0x24
EndSplineSet
EndChar

StartChar: Ccaron
Encoding: 268 268 204
Width: 831
GlyphClass: 2
Flags: MW
HStem: -11 47<451 540.5 451 559.5> 650 47<461 500 341.5 541> 728 21G<458 458> 873 20G<299 299 619 619>
VStem: 64 153<298 371 298 445.5> 717 49
LayerCount: 2
Fore
SplineSet
766 227 m 0
 766 112 653 -11 466 -11 c 0
 217 -11 64 138 64 343 c 0
 64 548 217 697 466 697 c 0
 534 697 601 679 663 629 c 1
 729 688 l 2
 737 695 739 697 748 697 c 0
 766 697 766 688 766 669 c 2
 766 454 l 2
 766 428 765 426 739 426 c 0
 716 426 715 428 712 447 c 0
 690 574 595 650 487 650 c 0
 435 650 348 639 283 573 c 0
 220 507 217 399 217 343 c 0
 217 253 229 178 276 121 c 0
 328 60 412 36 490 36 c 0
 591 36 712 97 719 231 c 0
 720 248 729 248 742 248 c 0
 759 248 766 247 766 227 c 0
633 869 m 1
 458 728 l 1
 283 869 l 1
 299 893 l 1
 459 835 l 1
 619 893 l 1
 633 869 l 1
EndSplineSet
Position2: "'cpsp' Capital Spacing lookup 0 subtable" dx=7 dy=0 dh=14 dv=0
EndChar

StartChar: ccaron
Encoding: 269 269 205
Width: 511
GlyphClass: 2
Flags: MW
HStem: -6 40<235.5 330.5 235.5 367> 413 40<230.5 312.5> 503 21G<282 282> 690 20G<125 125 441 441>
VStem: 38 128<204 255 204 280> 166 125 305 125 340 125<340 365.5>
LayerCount: 2
Fore
SplineSet
478 117 m 0xca
 478 110 448 -6 286 -6 c 0
 132 -6 38 89 38 222 c 0x88
 38 338 112 453 291 453 c 0
 349 453 465 447 465 361 c 0
 465 319 433 298 402 298 c 0
 375 298 340 317 340 361 c 0x45
 340 370 342 391 360 407 c 1
 347 410 330 413 295 413 c 0
 166 413 166 283 166 227 c 0
 166 181 166 34 305 34 c 0
 356 34 404 53 430 116 c 0
 435 129 436 131 454 131 c 0
 464 131 478 131 478 117 c 0xca
459 688 m 1x30
 282 503 l 1
 105 688 l 1
 125 710 l 1
 283 611 l 1
 441 710 l 1
 459 688 l 1x30
EndSplineSet
Substitution2: "'smcp' Lowercase to Small Capitals lookup 17 subtable" Ccaron.sc
EndChar

StartChar: Dcaron
Encoding: 270 270 206
Width: 882
GlyphClass: 2
Flags: MW
HStem: 0 47<39 147 283 429 429 459.5 39 147> 639 47<39 147 39 469 283 283 283 429> 728 21G<357 357> 873 20G<198 198 518 518>
VStem: 147 136<47 639 47 639> 670 147<283.5 384.5>
LayerCount: 2
Fore
SplineSet
817 337 m 0
 817 123 667 0 470 0 c 2
 39 0 l 1
 39 47 l 1
 147 47 l 1
 147 639 l 1
 39 639 l 1
 39 686 l 1
 469 686 l 2
 667 686 817 557 817 337 c 0
670 338 m 0
 670 431 662 499 627 550 c 0
 578 620 495 639 429 639 c 2
 283 639 l 1
 283 47 l 1
 429 47 l 2
 490 47 578 63 626 131 c 0
 658 176 670 229 670 338 c 0
532 869 m 1
 357 728 l 1
 182 869 l 1
 198 893 l 1
 358 835 l 1
 518 893 l 1
 532 869 l 1
EndSplineSet
Position2: "'cpsp' Capital Spacing lookup 0 subtable" dx=7 dy=0 dh=14 dv=0
EndChar

StartChar: dcaron
Encoding: 271 271 207
Width: 639
GlyphClass: 2
Flags: MW
HStem: -6 36<227 308.5> 0 47<570 601> 414 36<283.5 305.5 216 327.5> 432 21G<609 617.5> 577 117<615.5 646> 639 47<355 386> 639 55
VStem: 38 128<186 245 186 291.5> 418 114<-6 86 43 86 103 353 353 353>
LayerCount: 2
Fore
SplineSet
601 0 m 1x4280
 418 -6 l 1
 418 43 l 1
 387 18 339 -6 278 -6 c 0
 130 -6 38 89 38 221 c 0
 38 362 143 450 289 450 c 0
 322 450 374 444 424 405 c 1
 424 600 l 2
 424 639 417 639 355 639 c 1
 355 686 l 1xa580
 532 694 l 1
 532 86 l 2
 532 47 539 47 601 47 c 1
 601 0 l 1x4280
418 103 m 1x40
 418 353 l 1
 396 382 356 414 299 414 c 0
 268 414 221 404 192 362 c 0
 166 323 166 269 166 221 c 0
 166 151 166 30 288 30 c 0xa380
 364 30 405 85 418 103 c 1x40
702 600 m 0
 702 496 623 432 612 432 c 0
 606 432 598 439 598 447 c 0
 598 451 600 453 604 457 c 0
 620 471 669 510 675 592 c 1
 673 590 658 577 634 577 c 0x18
 595 577 575 606 575 636 c 0
 575 668 598 694 633 694 c 0
 676 694 702 651 702 600 c 0
EndSplineSet
Substitution2: "'smcp' Lowercase to Small Capitals lookup 17 subtable" Dcaron.sc
EndChar

StartChar: Dcroat
Encoding: 272 272 208
Width: 882
GlyphClass: 2
Flags: MW
HStem: 0 47<39 147 283 429 429 459.5 39 147> 319 48<39 147 39 147 283 441> 639 47<39 147 39 469 283 283 283 429>
VStem: 147 136<47 319 47 319 367 639> 670 147<283.5 384.5>
CounterMasks: 1 e0
LayerCount: 2
Fore
SplineSet
817 337 m 0
 817 123 667 0 470 0 c 2
 39 0 l 1
 39 47 l 1
 147 47 l 1
 147 319 l 1
 39 319 l 1
 39 367 l 1
 147 367 l 1
 147 639 l 1
 39 639 l 1
 39 686 l 1
 469 686 l 2
 667 686 817 557 817 337 c 0
670 338 m 0
 670 431 662 499 627 550 c 0
 578 620 495 639 429 639 c 2
 283 639 l 1
 283 367 l 1
 441 367 l 1
 441 319 l 1
 283 319 l 1
 283 47 l 1
 429 47 l 2
 490 47 578 63 626 131 c 0
 658 176 670 229 670 338 c 0
EndSplineSet
Position2: "'cpsp' Capital Spacing lookup 0 subtable" dx=7 dy=0 dh=14 dv=0
EndChar

StartChar: dcroat
Encoding: 273 273 209
Width: 639
GlyphClass: 2
Flags: MW
HStem: -6 36<227 308.5> 0 47<570 601> 414 36<283.5 305.5 216 327.5> 521 48<256 424 256 424 532 601> 639 47<355 386> 639 55
VStem: 38 128<186 245 186 291.5> 418 114<-6 86 43 86 103 353 353 353>
LayerCount: 2
Fore
SplineSet
601 0 m 1x55
 418 -6 l 1
 418 43 l 1
 387 18 339 -6 278 -6 c 0
 130 -6 38 89 38 221 c 0
 38 362 143 450 289 450 c 0
 322 450 374 444 424 405 c 1
 424 521 l 1
 256 521 l 1
 256 569 l 1
 424 569 l 1
 424 600 l 2
 424 639 417 639 355 639 c 1
 355 686 l 1xbb
 532 694 l 1
 532 569 l 1
 601 569 l 1
 601 521 l 1
 532 521 l 1
 532 86 l 2
 532 47 539 47 601 47 c 1
 601 0 l 1x55
418 103 m 1x40
 418 353 l 1
 396 382 356 414 299 414 c 0
 268 414 221 404 192 362 c 0
 166 323 166 269 166 221 c 0
 166 151 166 30 288 30 c 0xa3
 364 30 405 85 418 103 c 1x40
EndSplineSet
Substitution2: "'smcp' Lowercase to Small Capitals lookup 17 subtable" Eth.sc
EndChar

StartChar: Emacron
Encoding: 274 274 210
Width: 756
GlyphClass: 2
Flags: MW
HStem: 0 47<39 147 289 441 441 533.5 39 147> 329 47<289 344 289 344> 633 47<39 147 39 660 289 289 289 441> 748 52<171 585 171 585>
VStem: 147 142<47 329 376 633> 450 47<212 249 456 493> 644 47<439 439> 676 47<274 274>
LayerCount: 2
Fore
SplineSet
723 274 m 1xed
 677 0 l 1
 39 0 l 1
 39 47 l 1
 147 47 l 1
 147 633 l 1
 39 633 l 1
 39 680 l 1
 660 680 l 1
 691 439 l 1
 644 439 l 1xaa
 628 560 602 633 441 633 c 2
 289 633 l 1
 289 376 l 1
 344 376 l 2
 441 376 450 419 450 493 c 1
 497 493 l 1
 497 212 l 1
 450 212 l 1
 450 286 440 329 344 329 c 2
 289 329 l 1
 289 47 l 1
 441 47 l 2
 626 47 654 136 676 274 c 1
 723 274 l 1xed
585 748 m 1x10
 171 748 l 1
 171 800 l 1
 585 800 l 1
 585 748 l 1x10
EndSplineSet
Position2: "'cpsp' Capital Spacing lookup 0 subtable" dx=7 dy=0 dh=14 dv=0
EndChar

StartChar: emacron
Encoding: 275 275 211
Width: 527
GlyphClass: 2
Flags: MW
HStem: -6 40<231.5 334.5 231.5 372> 218 33<160 399 160 462 160 399> 417 36<264.5 313.5 199 337.5> 581 52<57 471 57 471>
VStem: 32 128<192.5 218 192.5 251 192.5 287.5> 184 95 399 95<251 251>
LayerCount: 2
Fore
SplineSet
494 117 m 0
 494 100 451 -6 293 -6 c 0
 132 -6 32 91 32 225 c 0
 32 350 119 453 279 453 c 0
 348 453 401 435 438 399 c 0
 488 349 494 276 494 245 c 0
 494 218 484 218 462 218 c 2
 160 218 l 1
 160 167 161 34 302 34 c 0
 367 34 424 66 445 114 c 0
 451 130 453 135 470 135 c 0
 475 135 494 135 494 117 c 0
399 251 m 1
 398 286 396 417 279 417 c 0
 250 417 210 405 184 365 c 0
 163 332 162 290 160 251 c 1
 399 251 l 1
471 581 m 1
 57 581 l 1
 57 633 l 1
 471 633 l 1
 471 581 l 1
EndSplineSet
EndChar

StartChar: Ebreve
Encoding: 276 276 212
Width: 756
GlyphClass: 2
Flags: MW
HStem: 0 47<39 147 289 441 441 533.5 39 147> 329 47<289 344 289 344> 633 47<39 147 39 660 289 289 289 441> 738 62<346 410 346 422.5> 905 20G<201 237 237 237 519 555 555 555>
VStem: 147 142<47 329 376 633> 450 47<212 249 456 493> 644 47<439 439> 676 47<274 274>
LayerCount: 2
Fore
SplineSet
723 274 m 1xe680
 677 0 l 1
 39 0 l 1
 39 47 l 1
 147 47 l 1
 147 633 l 1
 39 633 l 1
 39 680 l 1
 660 680 l 1
 691 439 l 1
 644 439 l 1xa5
 628 560 602 633 441 633 c 2
 289 633 l 1
 289 376 l 1
 344 376 l 2
 441 376 450 419 450 493 c 1
 497 493 l 1
 497 212 l 1
 450 212 l 1
 450 286 440 329 344 329 c 2
 289 329 l 1
 289 47 l 1
 441 47 l 2
 626 47 654 136 676 274 c 1
 723 274 l 1xe680
555 925 m 1x18
 552 810 467 738 378 738 c 0
 289 738 204 809 201 925 c 1
 237 925 l 1
 239 842 314 800 378 800 c 0
 442 800 517 842 519 925 c 1
 555 925 l 1x18
EndSplineSet
Position2: "'cpsp' Capital Spacing lookup 0 subtable" dx=7 dy=0 dh=14 dv=0
EndChar

StartChar: ebreve
Encoding: 277 277 213
Width: 527
GlyphClass: 2
Flags: MW
HStem: -6 40<231.5 334.5 231.5 372> 218 33<160 399 160 462 160 399> 417 36<264.5 313.5 199 337.5> 513 62<232 296 232 308.5> 680 20G<87 123 123 123 405 441 441 441>
VStem: 32 128<192.5 218 192.5 251 192.5 287.5> 184 95 399 95<251 251>
LayerCount: 2
Fore
SplineSet
494 117 m 0
 494 100 451 -6 293 -6 c 0
 132 -6 32 91 32 225 c 0
 32 350 119 453 279 453 c 0
 348 453 401 435 438 399 c 0
 488 349 494 276 494 245 c 0
 494 218 484 218 462 218 c 2
 160 218 l 1
 160 167 161 34 302 34 c 0
 367 34 424 66 445 114 c 0
 451 130 453 135 470 135 c 0
 475 135 494 135 494 117 c 0
399 251 m 1
 398 286 396 417 279 417 c 0
 250 417 210 405 184 365 c 0
 163 332 162 290 160 251 c 1
 399 251 l 1
441 700 m 1
 438 585 353 513 264 513 c 0
 175 513 90 584 87 700 c 1
 123 700 l 1
 125 617 200 575 264 575 c 0
 328 575 403 617 405 700 c 1
 441 700 l 1
EndSplineSet
EndChar

StartChar: Edotaccent
Encoding: 278 278 214
Width: 756
GlyphClass: 2
Flags: MW
HStem: 0 47<39 147 289 441 441 533.5 39 147> 329 47<289 344 289 344> 633 47<39 147 39 660 289 289 289 441> 739 156<356.5 399.5>
VStem: 147 142<47 329 376 633> 300 156<795.5 838.5> 450 47<212 249 456 493> 644 47<439 439> 676 47<274 274>
LayerCount: 2
Fore
SplineSet
723 274 m 1xea80
 677 0 l 1
 39 0 l 1
 39 47 l 1
 147 47 l 1
 147 633 l 1
 39 633 l 1
 39 680 l 1
 660 680 l 1
 691 439 l 1
 644 439 l 1xa9
 628 560 602 633 441 633 c 2
 289 633 l 1
 289 376 l 1
 344 376 l 2
 441 376 450 419 450 493 c 1
 497 493 l 1
 497 212 l 1
 450 212 l 1
 450 286 440 329 344 329 c 2
 289 329 l 1
 289 47 l 1
 441 47 l 2
 626 47 654 136 676 274 c 1
 723 274 l 1xea80
456 817 m 0x14
 456 774 421 739 378 739 c 0
 335 739 300 774 300 817 c 0
 300 860 335 895 378 895 c 0
 421 895 456 860 456 817 c 0x14
EndSplineSet
Position2: "'cpsp' Capital Spacing lookup 0 subtable" dx=7 dy=0 dh=14 dv=0
EndChar

StartChar: edotaccent
Encoding: 279 279 215
Width: 527
GlyphClass: 2
Flags: MW
HStem: -6 40<231.5 334.5 231.5 372> 218 33<160 399 160 462 160 399> 417 36<264.5 313.5 199 337.5> 529 156<242.5 285.5>
VStem: 32 128<192.5 218 192.5 251 192.5 287.5> 184 95 186 156<585.5 628.5> 399 95<251 251>
LayerCount: 2
Fore
SplineSet
494 117 m 0xed
 494 100 451 -6 293 -6 c 0
 132 -6 32 91 32 225 c 0
 32 350 119 453 279 453 c 0
 348 453 401 435 438 399 c 0
 488 349 494 276 494 245 c 0
 494 218 484 218 462 218 c 2
 160 218 l 1
 160 167 161 34 302 34 c 0
 367 34 424 66 445 114 c 0
 451 130 453 135 470 135 c 0
 475 135 494 135 494 117 c 0xed
399 251 m 1
 398 286 396 417 279 417 c 0
 250 417 210 405 184 365 c 0
 163 332 162 290 160 251 c 1
 399 251 l 1
342 607 m 0x12
 342 564 307 529 264 529 c 0
 221 529 186 564 186 607 c 0
 186 650 221 685 264 685 c 0
 307 685 342 650 342 607 c 0x12
EndSplineSet
EndChar

StartChar: Eogonek
Encoding: 280 280 216
Width: 756
GlyphClass: 2
Flags: MW
HStem: -206 78<585 602.5> 0 47<39 147 289 441 441 523 39 147> 329 47<289 344 289 344> 633 47<39 147 39 660 289 289 289 441>
VStem: 147 142<47 329 376 633> 450 47<212 249 456 493> 644 47<439 439> 676 47<274 274>
LayerCount: 2
Fore
SplineSet
723 274 m 1x7d
 677 0 l 1
 603 0 l 1
 529 -53 561 -128 609 -128 c 0
 623 -128 642 -123 655 -105 c 0
 661 -97 671 -102 682 -112 c 0
 690 -118 694 -131 688 -140 c 0
 663 -177 627 -206 578 -206 c 0
 510 -206 465 -154 465 -100 c 0
 465 -61 488 -29 523 0 c 1
 39 0 l 1
 39 47 l 1
 147 47 l 1
 147 633 l 1
 39 633 l 1
 39 680 l 1
 660 680 l 1
 691 439 l 1
 644 439 l 1xda
 628 560 602 633 441 633 c 2
 289 633 l 1
 289 376 l 1
 344 376 l 2
 441 376 450 419 450 493 c 1
 497 493 l 1
 497 212 l 1
 450 212 l 1
 450 286 440 329 344 329 c 2
 289 329 l 1
 289 47 l 1
 441 47 l 2
 626 47 654 136 676 274 c 1
 723 274 l 1x7d
EndSplineSet
Position2: "'cpsp' Capital Spacing lookup 0 subtable" dx=7 dy=0 dh=14 dv=0
EndChar

StartChar: eogonek
Encoding: 281 281 217
Width: 527
GlyphClass: 2
Flags: MW
HStem: -206 78<365 382.5> -140 40 -6 40 218 33<160 399 160 462 160 399> 417 36<264.5 313.5 199 337.5>
VStem: 32 128<192.5 218 192.5 251 192.5 287.5> 184 95 279 95 399 95<251 251>
LayerCount: 2
Fore
SplineSet
494 117 m 0x7d80
 494 104 464 31 374 3 c 1
 300 -50 341 -128 389 -128 c 0x9580
 403 -128 422 -123 435 -105 c 0
 441 -97 451 -102 462 -112 c 0
 470 -118 474 -131 468 -140 c 0x40
 443 -177 407 -206 358 -206 c 0x80
 290 -206 245 -154 245 -100 c 0
 245 -61 252 -38 285 -6 c 1
 129 -3 32 93 32 225 c 0
 32 350 119 453 279 453 c 0
 348 453 401 435 438 399 c 0
 488 349 494 276 494 245 c 0
 494 218 484 218 462 218 c 2
 160 218 l 1
 160 167 161 34 302 34 c 0
 367 34 424 66 445 114 c 0
 451 130 453 135 470 135 c 0
 475 135 494 135 494 117 c 0x7d80
399 251 m 1
 398 286 396 417 279 417 c 0
 250 417 210 405 184 365 c 0x1a80
 163 332 162 290 160 251 c 1
 399 251 l 1
EndSplineSet
Substitution2: "'smcp' Lowercase to Small Capitals lookup 17 subtable" Eogonek.sc
EndChar

StartChar: Ecaron
Encoding: 282 282 218
Width: 756
GlyphClass: 2
Flags: MW
HStem: 0 47<39 147 289 441 441 533.5 39 147> 329 47<289 344 289 344> 633 47<39 147 39 660 289 289 289 441> 728 21G<378 378> 873 20G<219 219 539 539>
VStem: 147 142<47 329 376 633> 450 47<212 249 456 493> 644 47<439 439> 676 47<274 274>
LayerCount: 2
Fore
SplineSet
723 274 m 1xe680
 677 0 l 1
 39 0 l 1
 39 47 l 1
 147 47 l 1
 147 633 l 1
 39 633 l 1
 39 680 l 1
 660 680 l 1
 691 439 l 1
 644 439 l 1xa5
 628 560 602 633 441 633 c 2
 289 633 l 1
 289 376 l 1
 344 376 l 2
 441 376 450 419 450 493 c 1
 497 493 l 1
 497 212 l 1
 450 212 l 1
 450 286 440 329 344 329 c 2
 289 329 l 1
 289 47 l 1
 441 47 l 2
 626 47 654 136 676 274 c 1
 723 274 l 1xe680
553 869 m 1x18
 378 728 l 1
 203 869 l 1
 219 893 l 1
 379 835 l 1
 539 893 l 1
 553 869 l 1x18
EndSplineSet
Position2: "'cpsp' Capital Spacing lookup 0 subtable" dx=7 dy=0 dh=14 dv=0
EndChar

StartChar: ecaron
Encoding: 283 283 219
Width: 527
GlyphClass: 2
Flags: MW
HStem: -6 40<231.5 334.5 231.5 372> 218 33<160 399 160 462 160 399> 417 36<264.5 313.5 199 337.5> 503 21G<264 264> 690 20G<107 107 423 423>
VStem: 32 128<192.5 218 192.5 251 192.5 287.5> 184 95 399 95<251 251>
LayerCount: 2
Fore
SplineSet
494 117 m 0
 494 100 451 -6 293 -6 c 0
 132 -6 32 91 32 225 c 0
 32 350 119 453 279 453 c 0
 348 453 401 435 438 399 c 0
 488 349 494 276 494 245 c 0
 494 218 484 218 462 218 c 2
 160 218 l 1
 160 167 161 34 302 34 c 0
 367 34 424 66 445 114 c 0
 451 130 453 135 470 135 c 0
 475 135 494 135 494 117 c 0
399 251 m 1
 398 286 396 417 279 417 c 0
 250 417 210 405 184 365 c 0
 163 332 162 290 160 251 c 1
 399 251 l 1
441 688 m 1
 264 503 l 1
 87 688 l 1
 107 710 l 1
 265 611 l 1
 423 710 l 1
 441 688 l 1
EndSplineSet
Substitution2: "'smcp' Lowercase to Small Capitals lookup 17 subtable" Ecaron.sc
EndChar

StartChar: Gcircumflex
Encoding: 284 284 220
Width: 904
GlyphClass: 2
Flags: MW
HStem: -11 47<451 483.5> 229 47<479 623 479 479> 650 47<439 491 342 540.5> 728 21G<292 292 612 612> 873 20G<453 453>
VStem: 64 153<298.5 400 298.5 446.5> 623 142<128 229>
LayerCount: 2
Fore
SplineSet
845 229 m 1
 765 229 l 1
 765 28 l 2
 765 13 765 0 751 0 c 0
 744 0 684 26 653 53 c 1
 603 -9 500 -11 467 -11 c 0
 209 -11 64 144 64 343 c 0
 64 550 219 697 465 697 c 0
 517 697 589 687 662 629 c 1
 728 688 l 2
 736 695 738 697 747 697 c 0
 765 697 765 688 765 669 c 2
 765 454 l 2
 765 428 764 426 738 426 c 0
 715 426 714 428 711 447 c 0
 689 574 594 650 487 650 c 0
 391 650 314 613 274 563 c 0
 237 514 217 456 217 344 c 0
 217 253 230 182 273 127 c 0
 322 65 408 36 494 36 c 0
 526 36 558 42 584 57 c 0
 623 80 623 109 623 128 c 2
 623 229 l 1
 479 229 l 1
 479 276 l 1
 533 273 626 273 684 273 c 0
 723 273 810 273 845 276 c 1
 845 229 l 1
628 752 m 1
 612 728 l 1
 452 786 l 1
 292 728 l 1
 278 752 l 1
 453 893 l 1
 628 752 l 1
EndSplineSet
Position2: "'cpsp' Capital Spacing lookup 0 subtable" dx=7 dy=0 dh=14 dv=0
EndChar

StartChar: gcircumflex
Encoding: 285 285 221
Width: 575
GlyphClass: 2
Flags: MW
HStem: -201 36<227 352 227 375.5> -13 96<188 303 242 303 242 312> 12 96 84 96 154 36<242.5 299 211 327> 302 96 354 96 414 36<211 292 183 299> 414 41 503 21G<89 89 405 405> 690 20G<248 248>
VStem: 56 111<281.5 324.5 279.5 337> 255 88 454 88
LayerCount: 2
Fore
SplineSet
558 397 m 0x0080
 558 373 541 354 515 354 c 0x0a08
 489 354 472 372 472 397 c 0
 472 403 474 412 476 417 c 1
 465 416 444 414 414 398 c 1
 429 382 454 349 454 302 c 0
 454 232 399 154 255 154 c 0x0c0c
 230 154 179 156 133 180 c 1
 127 172 123 157 123 147 c 0
 123 129 134 91 178 84 c 0
 183 83 229 83 255 83 c 0x5008
 351 83 411 83 467 55 c 0
 534 21 542 -42 542 -72 c 0
 542 -142 464 -201 287 -201 c 0
 87 -201 32 -126 32 -75 c 0
 32 -12 105 9 118 12 c 1
 78 44 74 93 74 108 c 0
 74 129 80 162 108 197 c 1
 76 220 56 261 56 302 c 0
 56 372 111 450 255 450 c 0xa51c
 329 450 371 429 389 417 c 1
 433 452 480 455 495 455 c 0
 541 455 558 420 558 397 c 0x0080
343 302 m 0
 343 347 343 414 255 414 c 0
 167 414 167 347 167 302 c 0xc518
 167 257 167 190 255 190 c 0
 343 190 343 257 343 302 c 0
456 -75 m 0
 456 -13 343 -13 312 -13 c 2
 195 -13 l 2
 181 -13 118 -13 118 -73 c 0
 118 -119 167 -165 287 -165 c 0
 417 -165 456 -111 456 -75 c 0
425 525 m 1x0060
 405 503 l 1
 247 602 l 1
 89 503 l 1
 71 525 l 1
 248 710 l 1
 425 525 l 1x0060
EndSplineSet
EndChar

StartChar: Gbreve
Encoding: 286 286 222
Width: 904
GlyphClass: 2
Flags: MW
HStem: -11 47<451 483.5> 229 47<479 623 479 479> 650 47<439 491 342 540.5> 738 62<421 485 421 497.5> 905 20G<276 312 312 312 594 630 630 630>
VStem: 64 153<298.5 400 298.5 446.5> 623 142<128 229>
LayerCount: 2
Fore
SplineSet
845 229 m 1
 765 229 l 1
 765 28 l 2
 765 13 765 0 751 0 c 0
 744 0 684 26 653 53 c 1
 603 -9 500 -11 467 -11 c 0
 209 -11 64 144 64 343 c 0
 64 550 219 697 465 697 c 0
 517 697 589 687 662 629 c 1
 728 688 l 2
 736 695 738 697 747 697 c 0
 765 697 765 688 765 669 c 2
 765 454 l 2
 765 428 764 426 738 426 c 0
 715 426 714 428 711 447 c 0
 689 574 594 650 487 650 c 0
 391 650 314 613 274 563 c 0
 237 514 217 456 217 344 c 0
 217 253 230 182 273 127 c 0
 322 65 408 36 494 36 c 0
 526 36 558 42 584 57 c 0
 623 80 623 109 623 128 c 2
 623 229 l 1
 479 229 l 1
 479 276 l 1
 533 273 626 273 684 273 c 0
 723 273 810 273 845 276 c 1
 845 229 l 1
630 925 m 1
 627 810 542 738 453 738 c 0
 364 738 279 809 276 925 c 1
 312 925 l 1
 314 842 389 800 453 800 c 0
 517 800 592 842 594 925 c 1
 630 925 l 1
EndSplineSet
Position2: "'cpsp' Capital Spacing lookup 0 subtable" dx=7 dy=0 dh=14 dv=0
EndChar

StartChar: gbreve
Encoding: 287 287 223
Width: 575
GlyphClass: 2
Flags: MW
HStem: -201 36<227 352 227 375.5> -13 96<188 303 242 303 242 312> 12 96 84 96 154 36<242.5 299 211 327> 302 96 354 96 414 36<211 292 183 299> 414 41 513 62<216 280 216 292.5> 680 20G<71 107 107 107 389 425 425 425>
VStem: 56 111<281.5 324.5 279.5 337> 255 88 454 88
LayerCount: 2
Fore
SplineSet
558 397 m 0x0080
 558 373 541 354 515 354 c 0x0a08
 489 354 472 372 472 397 c 0
 472 403 474 412 476 417 c 1
 465 416 444 414 414 398 c 1
 429 382 454 349 454 302 c 0
 454 232 399 154 255 154 c 0x0c0c
 230 154 179 156 133 180 c 1
 127 172 123 157 123 147 c 0
 123 129 134 91 178 84 c 0
 183 83 229 83 255 83 c 0x5008
 351 83 411 83 467 55 c 0
 534 21 542 -42 542 -72 c 0
 542 -142 464 -201 287 -201 c 0
 87 -201 32 -126 32 -75 c 0
 32 -12 105 9 118 12 c 1
 78 44 74 93 74 108 c 0
 74 129 80 162 108 197 c 1
 76 220 56 261 56 302 c 0
 56 372 111 450 255 450 c 0xa51c
 329 450 371 429 389 417 c 1
 433 452 480 455 495 455 c 0
 541 455 558 420 558 397 c 0x0080
343 302 m 0
 343 347 343 414 255 414 c 0
 167 414 167 347 167 302 c 0xc518
 167 257 167 190 255 190 c 0
 343 190 343 257 343 302 c 0
456 -75 m 0
 456 -13 343 -13 312 -13 c 2
 195 -13 l 2
 181 -13 118 -13 118 -73 c 0
 118 -119 167 -165 287 -165 c 0
 417 -165 456 -111 456 -75 c 0
425 700 m 1x0060
 422 585 337 513 248 513 c 0
 159 513 74 584 71 700 c 1
 107 700 l 1
 109 617 184 575 248 575 c 0
 312 575 387 617 389 700 c 1
 425 700 l 1x0060
EndSplineSet
Substitution2: "'smcp' Lowercase to Small Capitals lookup 17 subtable" Gbreve.sc
EndChar

StartChar: Gdotaccent
Encoding: 288 288 224
Width: 904
GlyphClass: 2
Flags: MW
HStem: -11 47<451 483.5> 229 47<479 623 479 479> 650 47<439 491 342 540.5> 739 156<430.5 473.5>
VStem: 64 153<298.5 400 298.5 446.5> 374 156<795.5 838.5> 623 142<128 229>
LayerCount: 2
Fore
SplineSet
845 229 m 1
 765 229 l 1
 765 28 l 2
 765 13 765 0 751 0 c 0
 744 0 684 26 653 53 c 1
 603 -9 500 -11 467 -11 c 0
 209 -11 64 144 64 343 c 0
 64 550 219 697 465 697 c 0
 517 697 589 687 662 629 c 1
 728 688 l 2
 736 695 738 697 747 697 c 0
 765 697 765 688 765 669 c 2
 765 454 l 2
 765 428 764 426 738 426 c 0
 715 426 714 428 711 447 c 0
 689 574 594 650 487 650 c 0
 391 650 314 613 274 563 c 0
 237 514 217 456 217 344 c 0
 217 253 230 182 273 127 c 0
 322 65 408 36 494 36 c 0
 526 36 558 42 584 57 c 0
 623 80 623 109 623 128 c 2
 623 229 l 1
 479 229 l 1
 479 276 l 1
 533 273 626 273 684 273 c 0
 723 273 810 273 845 276 c 1
 845 229 l 1
530 817 m 0
 530 774 495 739 452 739 c 0
 409 739 374 774 374 817 c 0
 374 860 409 895 452 895 c 0
 495 895 530 860 530 817 c 0
EndSplineSet
Position2: "'cpsp' Capital Spacing lookup 0 subtable" dx=7 dy=0 dh=14 dv=0
EndChar

StartChar: gdotaccent
Encoding: 289 289 225
Width: 575
GlyphClass: 2
Flags: MW
HStem: -201 36<227 352 227 375.5> -13 96<188 303 242 303 242 312> 12 96 84 96 154 36<242.5 299 211 327> 302 96 354 96 414 36<211 292 183 299> 414 41 529 156<225.5 268.5>
VStem: 56 111<281.5 324.5 279.5 337> 169 156<585.5 628.5> 255 88 454 88
LayerCount: 2
Fore
SplineSet
558 397 m 0x0080
 558 373 541 354 515 354 c 0x0a08
 489 354 472 372 472 397 c 0
 472 403 474 412 476 417 c 1
 465 416 444 414 414 398 c 1
 429 382 454 349 454 302 c 0
 454 232 399 154 255 154 c 0x0c0c
 230 154 179 156 133 180 c 1
 127 172 123 157 123 147 c 0
 123 129 134 91 178 84 c 0
 183 83 229 83 255 83 c 0x5008
 351 83 411 83 467 55 c 0
 534 21 542 -42 542 -72 c 0
 542 -142 464 -201 287 -201 c 0
 87 -201 32 -126 32 -75 c 0
 32 -12 105 9 118 12 c 1
 78 44 74 93 74 108 c 0
 74 129 80 162 108 197 c 1
 76 220 56 261 56 302 c 0
 56 372 111 450 255 450 c 0xa52c
 329 450 371 429 389 417 c 1
 433 452 480 455 495 455 c 0
 541 455 558 420 558 397 c 0x0080
343 302 m 0
 343 347 343 414 255 414 c 0
 167 414 167 347 167 302 c 0xc528
 167 257 167 190 255 190 c 0
 343 190 343 257 343 302 c 0
456 -75 m 0
 456 -13 343 -13 312 -13 c 2
 195 -13 l 2
 181 -13 118 -13 118 -73 c 0
 118 -119 167 -165 287 -165 c 0
 417 -165 456 -111 456 -75 c 0
325 607 m 0x0050
 325 564 290 529 247 529 c 0
 204 529 169 564 169 607 c 0
 169 650 204 685 247 685 c 0
 290 685 325 650 325 607 c 0x0050
EndSplineSet
EndChar

StartChar: Gcommaaccent
Encoding: 290 290 226
Width: 904
GlyphClass: 2
Flags: MW
HStem: -295 21G<423 431.5> -150 117<429.5 460> -11 47<451 483.5> 229 47<479 623 479 479> 650 47<439 491 342 540.5>
VStem: 64 153<298.5 400 298.5 446.5> 623 142<128 229>
LayerCount: 2
Fore
SplineSet
845 229 m 1
 765 229 l 1
 765 28 l 2
 765 13 765 0 751 0 c 0
 744 0 684 26 653 53 c 1
 603 -9 500 -11 467 -11 c 0
 209 -11 64 144 64 343 c 0
 64 550 219 697 465 697 c 0
 517 697 589 687 662 629 c 1
 728 688 l 2
 736 695 738 697 747 697 c 0
 765 697 765 688 765 669 c 2
 765 454 l 2
 765 428 764 426 738 426 c 0
 715 426 714 428 711 447 c 0
 689 574 594 650 487 650 c 0
 391 650 314 613 274 563 c 0
 237 514 217 456 217 344 c 0
 217 253 230 182 273 127 c 0
 322 65 408 36 494 36 c 0
 526 36 558 42 584 57 c 0
 623 80 623 109 623 128 c 2
 623 229 l 1
 479 229 l 1
 479 276 l 1
 533 273 626 273 684 273 c 0
 723 273 810 273 845 276 c 1
 845 229 l 1
516 -127 m 0
 516 -231 437 -295 426 -295 c 0
 420 -295 412 -288 412 -280 c 0
 412 -276 414 -274 418 -270 c 0
 434 -256 483 -217 489 -135 c 1
 487 -137 472 -150 448 -150 c 0
 409 -150 389 -121 389 -91 c 0
 389 -59 412 -33 447 -33 c 0
 490 -33 516 -76 516 -127 c 0
EndSplineSet
Position2: "'cpsp' Capital Spacing lookup 0 subtable" dx=7 dy=0 dh=14 dv=0
EndChar

StartChar: gcommaaccent
Encoding: 291 291 227
Width: 575
GlyphClass: 2
Flags: MW
HStem: -201 36<227 352 227 375.5> -13 96<188 303 242 303 242 312> 12 96 84 96 154 36<242.5 299 211 327> 302 96 354 96 414 36<211 292 183 299> 414 41 487 117<240 270.5> 729 20G<268.5 277>
VStem: 56 111<281.5 324.5 279.5 337> 255 88 454 88
LayerCount: 2
Fore
SplineSet
311 545 m 0x00e0
 311 513 288 487 253 487 c 0
 210 487 184 530 184 581 c 0
 184 685 263 749 274 749 c 0
 280 749 288 742 288 734 c 0
 288 730 286 728 282 724 c 0
 266 710 217 671 211 589 c 1
 213 591 228 604 252 604 c 0
 291 604 311 575 311 545 c 0x00e0
558 397 m 0
 558 373 541 354 515 354 c 0x0a08
 489 354 472 372 472 397 c 0
 472 403 474 412 476 417 c 1
 465 416 444 414 414 398 c 1
 429 382 454 349 454 302 c 0
 454 232 399 154 255 154 c 0x0c0c
 230 154 179 156 133 180 c 1
 127 172 123 157 123 147 c 0
 123 129 134 91 178 84 c 0
 183 83 229 83 255 83 c 0x5008
 351 83 411 83 467 55 c 0
 534 21 542 -42 542 -72 c 0
 542 -142 464 -201 287 -201 c 0
 87 -201 32 -126 32 -75 c 0
 32 -12 105 9 118 12 c 1
 78 44 74 93 74 108 c 0
 74 129 80 162 108 197 c 1
 76 220 56 261 56 302 c 0
 56 372 111 450 255 450 c 0xa51c
 329 450 371 429 389 417 c 1
 433 452 480 455 495 455 c 0
 541 455 558 420 558 397 c 0
343 302 m 0
 343 347 343 414 255 414 c 0
 167 414 167 347 167 302 c 0xc518
 167 257 167 190 255 190 c 0
 343 190 343 257 343 302 c 0
456 -75 m 0
 456 -13 343 -13 312 -13 c 2
 195 -13 l 2
 181 -13 118 -13 118 -73 c 0
 118 -119 167 -165 287 -165 c 0
 417 -165 456 -111 456 -75 c 0
EndSplineSet
EndChar

StartChar: Hcircumflex
Encoding: 292 292 228
Width: 900
GlyphClass: 2
Flags: MW
HStem: 0 47<39 147> 333 47<289 610 289 610> 639 47<39 147 39 39> 728 21G<290 290 610 610> 873 20G<451 451>
VStem: 147 142<47 333 47 380 380 639> 610 142<47 333 333 333 380 639 47 639 47 728>
LayerCount: 2
Fore
SplineSet
860 0 m 1
 822 3 724 3 681 3 c 0
 638 3 540 3 502 0 c 1
 502 47 l 1
 610 47 l 1
 610 333 l 1
 289 333 l 1
 289 47 l 1
 397 47 l 1
 397 0 l 1
 359 3 261 3 218 3 c 0
 175 3 77 3 39 0 c 1
 39 47 l 1
 147 47 l 1
 147 639 l 1
 39 639 l 1
 39 686 l 1
 77 683 175 683 218 683 c 0
 261 683 359 683 397 686 c 1
 397 639 l 1
 289 639 l 1
 289 380 l 1
 610 380 l 1
 610 639 l 1
 502 639 l 1
 502 686 l 1
 540 683 638 683 681 683 c 0
 724 683 822 683 860 686 c 1
 860 639 l 1
 752 639 l 1
 752 47 l 1
 860 47 l 1
 860 0 l 1
626 752 m 1
 610 728 l 1
 450 786 l 1
 290 728 l 1
 276 752 l 1
 451 893 l 1
 626 752 l 1
EndSplineSet
Position2: "'cpsp' Capital Spacing lookup 0 subtable" dx=7 dy=0 dh=14 dv=0
EndChar

StartChar: hcircumflex
Encoding: 293 293 229
Width: 639
GlyphClass: 2
Flags: MW
HStem: 0 47<45 114> 414 36<345.5 394> 639 47<45 76> 639 55 736 21G<159 159 479 479> 881 20G<320 320>
VStem: 114 114<47 256 47 600> 432 114<47 306 47 317 47 355>
LayerCount: 2
Fore
SplineSet
615 0 m 1xd1
 489 3 l 1xd1
 363 0 l 1
 363 47 l 1
 432 47 l 1
 432 317 l 2
 432 393 411 414 377 414 c 0
 314 414 228 365 228 256 c 2
 228 47 l 1
 297 47 l 1
 297 0 l 1
 171 3 l 1
 45 0 l 1
 45 47 l 1
 114 47 l 1
 114 600 l 2
 114 639 107 639 45 639 c 1
 45 686 l 1xe3
 222 694 l 1
 222 354 l 1
 223 354 l 1
 245 392 296 450 392 450 c 0
 492 450 546 411 546 306 c 2
 546 47 l 1
 615 47 l 1
 615 0 l 1xd1
495 760 m 1x0c
 479 736 l 1
 319 794 l 1
 159 736 l 1
 145 760 l 1
 320 901 l 1
 495 760 l 1x0c
EndSplineSet
EndChar

StartChar: Hbar
Encoding: 294 294 230
Width: 900
GlyphClass: 2
Flags: MW
HStem: 0 47<39 147> 333 47<289 610 289 610> 491 48<39 147 39 147 289 610 752 860> 639 47<39 147 39 39>
VStem: 147 142<47 333 47 380 380 491 539 639> 610 142<47 333 333 333 380 491 47 491 539 639>
LayerCount: 2
Fore
SplineSet
860 0 m 1
 822 3 724 3 681 3 c 0
 638 3 540 3 502 0 c 1
 502 47 l 1
 610 47 l 1
 610 333 l 1
 289 333 l 1
 289 47 l 1
 397 47 l 1
 397 0 l 1
 359 3 261 3 218 3 c 0
 175 3 77 3 39 0 c 1
 39 47 l 1
 147 47 l 1
 147 491 l 1
 39 491 l 1
 39 539 l 1
 147 539 l 1
 147 639 l 1
 39 639 l 1
 39 686 l 1
 77 683 175 683 218 683 c 0
 261 683 359 683 397 686 c 1
 397 639 l 1
 289 639 l 1
 289 539 l 1
 610 539 l 1
 610 639 l 1
 502 639 l 1
 502 686 l 1
 540 683 638 683 681 683 c 0
 724 683 822 683 860 686 c 1
 860 639 l 1
 752 639 l 1
 752 539 l 1
 860 539 l 1
 860 491 l 1
 752 491 l 1
 752 47 l 1
 860 47 l 1
 860 0 l 1
610 380 m 1
 610 491 l 1
 289 491 l 1
 289 380 l 1
 610 380 l 1
EndSplineSet
Position2: "'cpsp' Capital Spacing lookup 0 subtable" dx=7 dy=0 dh=14 dv=0
EndChar

StartChar: hbar
Encoding: 295 295 231
Width: 639
GlyphClass: 2
Flags: MW
HStem: 0 47<45 114> 306 48 414 36<345.5 394> 521 48<45 114 45 114 222 319> 639 47<45 76> 639 55
VStem: 114 114<47 256 47 521> 432 114<47 306 47 317 47 355>
LayerCount: 2
Fore
SplineSet
615 0 m 1xf5
 489 3 l 1xf5
 363 0 l 1
 363 47 l 1
 432 47 l 1
 432 317 l 2
 432 393 411 414 377 414 c 0
 314 414 228 365 228 256 c 2
 228 47 l 1
 297 47 l 1
 297 0 l 1
 171 3 l 1
 45 0 l 1
 45 47 l 1
 114 47 l 1
 114 521 l 1
 45 521 l 1
 45 569 l 1
 114 569 l 1
 114 600 l 2
 114 639 107 639 45 639 c 1
 45 686 l 1xbb
 222 694 l 1
 222 569 l 1
 319 569 l 1
 319 521 l 1
 222 521 l 1
 222 354 l 1
 223 354 l 1
 245 392 296 450 392 450 c 0
 492 450 546 411 546 306 c 2
 546 47 l 1
 615 47 l 1
 615 0 l 1xf5
EndSplineSet
EndChar

StartChar: Itilde
Encoding: 296 296 232
Width: 436
GlyphClass: 2
Flags: MW
HStem: 728 74<282 313.5> 745 74 762 74<124.5 156>
VStem: 147 142<47 639 47 639>
CounterMasks: 1 e0
LayerCount: 2
Fore
SplineSet
403 0 m 1x10
 362 3 264 3 218 3 c 0
 172 3 74 3 33 0 c 1
 33 47 l 1
 147 47 l 1
 147 639 l 1
 33 639 l 1
 33 686 l 1
 74 683 172 683 218 683 c 0
 264 683 362 683 403 686 c 1
 403 639 l 1
 289 639 l 1
 289 47 l 1
 403 47 l 1
 403 0 l 1x10
410 811 m 1
 399 800 372 770 361 759 c 0
 334 732 307 728 289 728 c 0x90
 275 728 256 730 210 745 c 0x50
 167 759 150 762 130 762 c 0x30
 119 762 84 762 54 728 c 1x90
 28 753 l 1
 39 764 66 794 77 805 c 0
 104 832 131 836 149 836 c 0x30
 163 836 182 834 228 819 c 0x50
 271 805 288 802 308 802 c 0x90
 319 802 354 802 384 836 c 1x30
 410 811 l 1
EndSplineSet
Position2: "'cpsp' Capital Spacing lookup 0 subtable" dx=7 dy=0 dh=14 dv=0
EndChar

StartChar: itilde
Encoding: 297 297 233
Width: 319
GlyphClass: 2
Flags: MW
HStem: 553 74<223 254.5> 570 74 587 74<65.5 97>
VStem: 116 108<47 356 356 375.5>
CounterMasks: 1 e0
LayerCount: 2
Fore
SplineSet
286 0 m 1x10
 169 3 l 1
 47 0 l 1
 47 47 l 1
 116 47 l 1
 116 356 l 2
 116 395 109 395 50 395 c 1
 50 442 l 1
 224 450 l 1
 224 47 l 1
 286 47 l 1
 286 0 l 1x10
351 636 m 1
 340 625 313 595 302 584 c 0
 275 557 248 553 230 553 c 0x90
 216 553 197 555 151 570 c 0x50
 108 584 91 587 71 587 c 0x30
 60 587 25 587 -5 553 c 1x90
 -31 578 l 1
 -20 589 7 619 18 630 c 0
 45 657 72 661 90 661 c 0x30
 104 661 123 659 169 644 c 0x50
 212 630 229 627 249 627 c 0x90
 260 627 295 627 325 661 c 1x30
 351 636 l 1
EndSplineSet
EndChar

StartChar: Imacron
Encoding: 298 298 234
Width: 436
GlyphClass: 2
Flags: MW
HStem: 0 47<33 147> 639 47<33 147 33 33> 748 52<12 426 12 426>
VStem: 147 142<47 639 47 639>
LayerCount: 2
Fore
SplineSet
403 0 m 1
 362 3 264 3 218 3 c 0
 172 3 74 3 33 0 c 1
 33 47 l 1
 147 47 l 1
 147 639 l 1
 33 639 l 1
 33 686 l 1
 74 683 172 683 218 683 c 0
 264 683 362 683 403 686 c 1
 403 639 l 1
 289 639 l 1
 289 47 l 1
 403 47 l 1
 403 0 l 1
426 748 m 1
 12 748 l 1
 12 800 l 1
 426 800 l 1
 426 748 l 1
EndSplineSet
Position2: "'cpsp' Capital Spacing lookup 0 subtable" dx=7 dy=0 dh=14 dv=0
EndChar

StartChar: imacron
Encoding: 299 299 235
Width: 319
GlyphClass: 2
Flags: MW
HStem: 0 47<47 116> 395 47<50 79.5> 395 55 581 52<-47 367 -47 367>
VStem: 116 108<47 356 356 375.5>
LayerCount: 2
Fore
SplineSet
286 0 m 1xa8
 169 3 l 1xa8
 47 0 l 1
 47 47 l 1
 116 47 l 1
 116 356 l 2
 116 395 109 395 50 395 c 1
 50 442 l 1xc8
 224 450 l 1
 224 47 l 1
 286 47 l 1
 286 0 l 1xa8
367 581 m 1x10
 -47 581 l 1
 -47 633 l 1
 367 633 l 1
 367 581 l 1x10
EndSplineSet
EndChar

